<svg width="215" height="142" viewBox="0 0 215 142" fill="none" xmlns="http://www.w3.org/2000/svg">
<g clip-path="url(#clip0_464_12103)">
<path opacity="0.6" d="M59.793 45.4209C59.793 45.4209 59.8302 45.4069 59.8442 45.3976C59.8628 45.3976 59.8953 45.3743 59.8953 45.3743C59.9139 45.365 59.9372 45.365 59.9511 45.351C59.9651 45.3417 60.0023 45.3277 60.0023 45.3277C68.5208 41.3599 76.9277 37.5178 85.251 33.8433C85.7392 33.6198 86.0972 33.3264 86.3111 32.9584C86.525 32.5905 86.6273 32.1621 86.5576 31.701C86.5297 31.2353 86.3437 30.7323 86.0135 30.2387C85.6974 29.7404 85.2649 29.2234 84.7023 28.7298C75.0864 20.3004 65.9355 11.6056 57.2542 2.70584C56.7474 2.19822 56.1894 1.72785 55.5756 1.35528C54.9711 0.964085 54.3248 0.656716 53.6785 0.433175C53.0275 0.21429 52.3811 0.079234 51.772 0.0140345C51.1582 -0.0325367 50.5816 0.0233487 50.0655 0.172376L50.0144 0.191005C50.0144 0.191005 49.9818 0.209633 49.9632 0.209633C49.9446 0.209633 49.9307 0.218947 49.9121 0.228262C49.9074 0.24689 49.8609 0.228262 49.8609 0.24689C41.2261 3.54878 32.4844 6.98573 23.645 10.5996C23.1289 10.8092 22.7244 11.1119 22.4872 11.5078C22.2501 11.9083 22.1152 12.3554 22.1152 12.863C22.1338 13.366 22.2687 13.9109 22.5337 14.4744C22.8127 15.0332 23.194 15.6247 23.7427 16.1602C32.7169 25.4652 42.2212 34.5093 52.1626 43.3205C52.7345 43.8049 53.353 44.2519 54.0179 44.6012C54.6828 44.9505 55.3756 45.2299 56.0638 45.4162C56.7474 45.6165 57.4309 45.6863 58.0679 45.7096C58.7003 45.705 59.2908 45.6211 59.793 45.4302V45.4209Z" fill="#C9D6DE"/>
<path opacity="0.76" d="M89.7849 64.805L89.8221 64.7863C89.836 64.7817 89.85 64.7724 89.8639 64.7677C89.8732 64.7631 89.8965 64.7631 89.9011 64.7491C89.9011 64.7491 89.9244 64.7305 89.9383 64.7305C96.5132 61.233 103.023 57.8566 109.454 54.5873C109.835 54.401 110.105 54.1495 110.24 53.8514C110.388 53.5627 110.421 53.2274 110.342 52.8781C110.267 52.5242 110.077 52.1563 109.789 51.7883C109.496 51.4251 109.1 51.0618 108.612 50.7032C100.173 44.7515 92.0726 38.5435 84.2655 32.1679C83.8191 31.8 83.3216 31.4694 82.7915 31.2179C82.2661 30.9524 81.7174 30.7522 81.1734 30.6078C80.6293 30.4681 80.0946 30.3843 79.5924 30.3843C79.0902 30.3703 78.6345 30.4588 78.23 30.5938C78.2207 30.6078 78.2021 30.6031 78.1881 30.6078C78.1788 30.6171 78.1602 30.6218 78.1463 30.6264C78.1463 30.6264 78.1184 30.6451 78.1044 30.6451C78.1044 30.659 78.0766 30.659 78.0626 30.6637C71.3575 33.6629 64.5641 36.7505 57.7009 39.9779C57.301 40.1735 56.9988 40.425 56.836 40.7417C56.65 41.0444 56.6268 41.4123 56.65 41.7988C56.7151 42.1854 56.8639 42.5952 57.129 43.0143C57.4033 43.4242 57.7706 43.8526 58.2589 44.2485C66.3217 50.9221 74.738 57.3583 83.4471 63.6081C83.9447 63.9527 84.4747 64.2694 85.0467 64.4883C85.6093 64.7165 86.1905 64.8981 86.7625 65.0006C87.3344 65.0984 87.8924 65.1356 88.4039 65.117C88.9154 65.0797 89.385 64.9866 89.7802 64.8096L89.7849 64.805Z" fill="#C9D6DE"/>
<path opacity="0.61" d="M33.2276 50.5247C33.2276 50.5247 33.2509 50.5107 33.2648 50.5107C33.2648 50.4967 33.2881 50.5014 33.302 50.4967C33.302 50.4967 33.3392 50.4967 33.3392 50.4827C33.3532 50.4827 33.3625 50.4734 33.3718 50.4641C39.4073 47.4463 45.373 44.5403 51.2737 41.732C51.6224 41.569 51.8689 41.3408 52.0177 41.0661C52.1572 40.7866 52.213 40.4793 52.1804 40.1393C52.1246 39.804 52.0037 39.4361 51.7805 39.0682C51.5573 38.7003 51.2319 38.337 50.832 37.9737C43.8758 31.8636 37.2451 25.5719 30.9631 19.1171C30.6004 18.7538 30.1866 18.4232 29.7542 18.1484C29.3171 17.8783 28.8475 17.6687 28.3918 17.4964C27.9268 17.3381 27.4664 17.2542 27.0294 17.2123C26.5923 17.1844 26.1738 17.217 25.8157 17.352L25.7785 17.366C25.7785 17.366 25.746 17.366 25.7413 17.38C25.7413 17.38 25.7134 17.38 25.7041 17.394C25.7041 17.394 25.6763 17.3986 25.667 17.4079C19.5384 19.9461 13.3355 22.596 7.05823 25.353C6.68624 25.502 6.4212 25.7535 6.23986 26.0376C6.05851 26.3216 5.97016 26.6663 5.98876 27.0342C5.99341 27.4068 6.09571 27.8073 6.30495 28.2124C6.50955 28.6176 6.79319 29.0461 7.18843 29.4373C13.6982 36.1528 20.5428 42.7193 27.7501 49.067C28.1593 49.4209 28.615 49.7329 29.0892 49.9844C29.5682 50.2359 30.0704 50.4222 30.5632 50.5573C31.0561 50.6877 31.5444 50.7389 32.0001 50.7482C32.4557 50.7529 32.8696 50.6551 33.2369 50.52L33.2276 50.5247Z" fill="#3C98CF"/>
<path opacity="0.61" d="M179.763 92.4346C179.763 92.4346 179.796 92.4207 179.81 92.4067L179.856 92.3834C179.856 92.3834 179.889 92.3694 179.898 92.3601C179.916 92.3601 179.94 92.3322 179.94 92.3322C187.468 87.5633 194.908 82.9155 202.292 78.426C202.719 78.1559 202.994 77.8486 203.129 77.5132C203.263 77.1779 203.249 76.81 203.091 76.4468C202.938 76.0789 202.645 75.7063 202.231 75.3477C201.803 75.0031 201.269 74.6491 200.599 74.3464C189.212 69.1351 178.061 63.6537 167.194 57.8882C166.571 57.5529 165.888 57.2688 165.186 57.0778C164.484 56.8729 163.763 56.7379 163.065 56.654C162.363 56.5888 161.684 56.5562 161.061 56.6401C160.438 56.696 159.876 56.8496 159.406 57.0639C159.406 57.0825 159.355 57.0872 159.355 57.0872C159.341 57.1011 159.318 57.0965 159.304 57.1104C159.304 57.1104 159.262 57.1198 159.257 57.1337C159.243 57.143 159.215 57.143 159.211 57.157C151.464 61.367 143.634 65.7028 135.724 70.1969C135.259 70.4577 134.943 70.7791 134.794 71.147C134.627 71.5056 134.636 71.9107 134.762 72.3252C134.901 72.7351 135.162 73.1728 135.585 73.578C135.994 73.9925 136.538 74.3976 137.212 74.7516C148.456 80.8058 159.969 86.5993 171.761 92.0667C172.412 92.3974 173.142 92.6256 173.876 92.7886C174.606 92.9609 175.355 93.068 176.076 93.0913C176.796 93.1285 177.494 93.1006 178.117 92.9749C178.745 92.8677 179.303 92.6768 179.763 92.4346Z" fill="#5DA6DB"/>
<path opacity="0.56" d="M122.575 85.0805C122.575 85.0805 122.607 85.0711 122.617 85.0618C122.63 85.0525 122.654 85.0525 122.658 85.0386C122.672 85.0386 122.686 85.0246 122.696 85.0153C122.7 85.0013 122.719 84.9966 122.733 84.992C128.973 81.2663 135.143 77.6477 141.248 74.1363C141.611 73.936 141.844 73.6752 141.965 73.3865C142.081 73.0977 142.085 72.7857 141.983 72.4597C141.876 72.1337 141.653 71.8077 141.346 71.4677C141.03 71.1371 140.593 70.839 140.091 70.5177C131.233 65.4461 122.626 60.1416 114.293 54.6183C113.805 54.3109 113.284 54.0315 112.736 53.8173C112.192 53.5984 111.62 53.454 111.071 53.3469C110.518 53.2491 109.978 53.2212 109.476 53.2398C108.974 53.2724 108.518 53.3655 108.132 53.5285C108.123 53.5378 108.104 53.5425 108.095 53.5472C108.086 53.5565 108.072 53.5565 108.058 53.5658L108.021 53.5844C108.021 53.5844 107.983 53.5844 107.983 53.603C101.585 56.8537 95.1266 60.2348 88.5982 63.7323C88.2076 63.9232 87.9612 64.2026 87.8077 64.5053C87.6682 64.8127 87.6403 65.1527 87.7194 65.5206C87.8124 65.8792 87.9844 66.2797 88.3053 66.6383C88.5889 67.0295 89.012 67.3974 89.5328 67.7281C98.149 73.5075 107.063 79.0355 116.209 84.3586C116.734 84.6427 117.288 84.9035 117.869 85.0851C118.446 85.2714 119.036 85.4158 119.613 85.4577C120.185 85.5275 120.743 85.5136 121.249 85.4577C121.752 85.3785 122.207 85.2667 122.589 85.0758L122.575 85.0805Z" fill="#3C98CF"/>
<path opacity="0.75" d="M66.0425 77.6294L66.0844 77.6108C66.0937 77.5968 66.1123 77.5968 66.1262 77.5875C66.1402 77.5782 66.1495 77.5642 66.1681 77.5642C66.1727 77.5503 66.2099 77.541 66.2099 77.541C72.822 73.8153 79.3551 70.1967 85.8277 66.7132C86.2089 66.5129 86.4647 66.2382 86.6088 65.9308C86.753 65.6234 86.7902 65.2741 86.6972 64.9109C86.6042 64.5476 86.4228 64.1611 86.1206 63.7745C85.837 63.3787 85.4092 63.0201 84.9116 62.6522C76.2769 56.5188 67.9443 50.1618 59.9512 43.5906C59.4862 43.2227 58.9794 42.8827 58.44 42.6173C57.9006 42.3518 57.3426 42.1376 56.7893 42.0025C56.236 41.8675 55.6919 41.793 55.1805 41.793C54.6736 41.8069 54.204 41.8815 53.7995 42.0351C53.7995 42.0351 53.7716 42.0445 53.7576 42.0491C53.7437 42.0491 53.7297 42.0584 53.7158 42.0677C53.7018 42.0677 53.6925 42.0817 53.6786 42.0864C53.6693 42.1003 53.6414 42.105 53.6414 42.105C46.8898 45.3231 40.0684 48.6948 33.1587 52.1411C32.7589 52.3553 32.4706 52.6254 32.2939 52.9468C32.1265 53.2774 32.0753 53.65 32.1218 54.0551C32.1869 54.4603 32.3497 54.8888 32.624 55.3172C32.8937 55.7503 33.2843 56.1834 33.7818 56.584C42.0493 63.4392 50.6701 70.057 59.6071 76.4419C60.1 76.8191 60.6673 77.1079 61.2439 77.3407C61.8205 77.5736 62.411 77.7459 62.9922 77.8576C63.5688 77.9648 64.1361 78.0113 64.6569 77.9601C65.1777 77.9228 65.6473 77.8111 66.0472 77.6201L66.0425 77.6294Z" fill="url(#paint0_linear_464_12103)"/>
<path opacity="0.67" d="M193.373 119.166C193.373 119.166 193.401 119.148 193.415 119.138C193.433 119.138 193.457 119.11 193.457 119.11C193.471 119.096 193.485 119.087 193.498 119.082C193.512 119.078 193.522 119.064 193.536 119.054C200.501 113.918 207.364 108.869 214.19 103.989C214.6 103.705 214.851 103.383 214.934 103.039C215.046 102.703 214.995 102.345 214.809 102C214.623 101.655 214.321 101.302 213.879 100.994C213.446 100.668 212.884 100.379 212.205 100.142C200.655 95.8946 189.295 91.3819 178.149 86.5804C177.508 86.2963 176.815 86.0914 176.108 85.9424C175.401 85.8166 174.69 85.7049 173.997 85.6862C173.309 85.663 172.639 85.7002 172.039 85.8213C171.44 85.9238 170.909 86.1287 170.463 86.3569C170.449 86.3708 170.431 86.3708 170.417 86.3848C170.417 86.3848 170.389 86.4174 170.37 86.4128C170.365 86.4314 170.328 86.4221 170.324 86.4407C170.324 86.4593 170.282 86.4686 170.282 86.4686C163.098 91.1444 155.825 95.9226 148.488 100.84C148.051 101.125 147.795 101.469 147.66 101.828C147.544 102.191 147.567 102.578 147.735 102.969C147.893 103.36 148.204 103.756 148.651 104.119C149.088 104.487 149.664 104.827 150.348 105.134C161.861 110.173 173.597 114.933 185.538 119.38C186.212 119.632 186.933 119.8 187.658 119.93C188.388 120.042 189.123 120.074 189.825 120.065C190.527 120.046 191.201 119.967 191.806 119.809C192.406 119.646 192.95 119.455 193.364 119.166H193.373Z" fill="#C9D6DE"/>
<path opacity="0.74" d="M43.5925 96.1138C43.5925 96.1138 43.6297 96.0998 43.6436 96.0858C43.6576 96.0765 43.6762 96.0626 43.6948 96.0579C43.7041 96.0393 43.7366 96.0439 43.7459 96.03C43.7552 96.0113 43.7785 96.0113 43.7971 96.002C52.1343 91.0329 60.3971 86.2407 68.5529 81.565C69.0319 81.2902 69.3387 80.9316 69.5294 80.5357C69.6968 80.1259 69.734 79.6788 69.6177 79.1992C69.4736 78.7288 69.2737 78.2025 68.8645 77.7228C68.5064 77.2059 67.9717 76.7123 67.3114 76.2745C56.2076 68.39 45.4989 60.2121 35.2135 51.7595C34.6276 51.2658 33.9487 50.8793 33.2745 50.516C32.5863 50.1853 31.8702 49.9339 31.1681 49.7429C30.4566 49.5892 29.7685 49.4961 29.1221 49.4961C28.4758 49.5287 27.876 49.6218 27.3645 49.8361C27.3505 49.8454 27.3133 49.8593 27.3133 49.8593C27.2948 49.8687 27.2622 49.8826 27.2622 49.8826C27.2483 49.8919 27.2297 49.9013 27.2111 49.9059C27.2018 49.9246 27.1739 49.9152 27.1599 49.9292C18.6414 54.2789 10.0159 58.7684 1.29276 63.4069C0.776625 63.6677 0.427886 64.0449 0.209343 64.4734C0.00474947 64.9065 -0.0603485 65.3955 0.00939932 65.9217C0.0651976 66.448 0.330239 66.9929 0.669679 67.561C1.04632 68.1059 1.5485 68.6555 2.16228 69.1957C12.8151 77.9697 23.8818 86.4922 35.3762 94.6747C36.0086 95.1591 36.734 95.5177 37.4686 95.825C38.2033 96.1184 38.9566 96.3792 39.7006 96.4724C40.4306 96.6261 41.156 96.6354 41.8162 96.5842C42.4719 96.5003 43.0857 96.3932 43.5739 96.1231L43.5925 96.1138Z" fill="#3C98CF"/>
<path opacity="0.6" d="M178.205 140.691L178.265 140.65C178.265 140.65 178.302 140.608 178.325 140.608C178.349 140.598 178.363 140.575 178.386 140.561C178.405 140.58 178.423 140.533 178.446 140.519C188.044 133.096 197.543 125.835 206.955 118.766C207.508 118.356 207.847 117.89 207.964 117.401C208.126 116.926 207.992 116.423 207.764 115.911C207.489 115.422 207.043 114.942 206.439 114.472C205.82 114.02 205.034 113.601 204.086 113.252C187.816 107.221 171.811 100.799 156.113 93.962C155.206 93.5708 154.225 93.296 153.24 93.0585C152.244 92.8582 151.24 92.7604 150.278 92.7092C149.306 92.6952 148.376 92.7465 147.539 92.9234C146.697 93.0725 145.93 93.3239 145.339 93.7105C145.33 93.6872 145.298 93.7384 145.279 93.7477C145.26 93.7664 145.219 93.785 145.219 93.785C145.195 93.785 145.158 93.8223 145.158 93.8223C145.144 93.8362 145.102 93.8595 145.102 93.8595C135.147 100.608 125.131 107.584 114.985 114.714C114.413 115.156 114.009 115.613 113.865 116.139C113.679 116.651 113.758 117.215 113.999 117.774C114.255 118.328 114.688 118.887 115.306 119.418C115.906 119.967 116.729 120.442 117.705 120.861C133.929 127.996 150.459 134.73 167.268 141.041C168.212 141.409 169.226 141.665 170.249 141.814C171.276 141.926 172.299 142.037 173.285 142C174.266 142 175.215 141.86 176.047 141.618C176.879 141.376 177.628 141.097 178.209 140.696L178.205 140.691Z" fill="#18469E"/>
</g>
<defs>
<linearGradient id="paint0_linear_464_12103" x1="32.4356" y1="52.5739" x2="83.2536" y2="48.315" gradientUnits="userSpaceOnUse">
<stop stop-color="#20377A"/>
<stop offset="1" stop-color="#2C85C5"/>
</linearGradient>
<clipPath id="clip0_464_12103">
<rect width="215" height="142" fill="white"/>
</clipPath>
</defs>
</svg>
