<svg width="445" height="353" viewBox="0 0 445 353" fill="none" xmlns="http://www.w3.org/2000/svg">
<path opacity="0.59" d="M285.959 175.375L285.995 175.402L286.03 175.428L286.065 175.455L286.101 175.481C292.509 179.836 298.722 184.368 304.723 189.067C305.081 189.345 305.408 189.579 305.696 189.76C305.983 189.941 306.231 190.069 306.43 190.139C306.624 190.21 306.77 190.228 306.854 190.184C306.938 190.139 306.96 190.033 306.907 189.861C306.067 186.989 305.682 184.205 305.78 181.632C305.788 181.486 305.727 181.288 305.62 181.05C305.514 180.811 305.351 180.538 305.147 180.238C304.948 179.938 304.705 179.62 304.431 179.298C304.157 178.976 303.856 178.645 303.529 178.327L303.498 178.296L303.467 178.265L303.436 178.234L303.4 178.204C297.7 172.794 291.77 167.547 285.61 162.473C285.256 162.182 284.907 161.939 284.588 161.754C284.27 161.568 283.974 161.44 283.717 161.379C283.465 161.313 283.248 161.308 283.094 161.37C282.939 161.432 282.842 161.555 282.815 161.749C282.408 165.015 282.51 168.518 283.111 172.123C283.147 172.331 283.253 172.573 283.412 172.842C283.576 173.107 283.792 173.398 284.049 173.69C284.305 173.981 284.606 174.281 284.924 174.572C285.247 174.859 285.597 175.137 285.95 175.388L285.959 175.375Z" fill="#EDEDED"/>
<path opacity="0.64" d="M245.093 153.171C245.093 153.171 245.115 153.184 245.128 153.188C245.128 153.188 245.151 153.202 245.164 153.206L245.199 153.224L245.235 153.241C251.589 156.11 257.785 159.132 263.821 162.291C264.179 162.481 264.516 162.609 264.812 162.684C265.108 162.759 265.369 162.777 265.581 162.742C265.794 162.706 265.957 162.618 266.063 162.477C266.169 162.34 266.209 162.146 266.183 161.903C265.723 157.786 265.754 153.771 266.28 149.972C266.307 149.751 266.271 149.504 266.183 149.235C266.094 148.966 265.948 148.683 265.758 148.401C265.568 148.114 265.334 147.832 265.064 147.563C264.794 147.293 264.485 147.042 264.157 146.812C264.144 146.812 264.122 146.79 264.122 146.79C264.109 146.786 264.1 146.768 264.087 146.768L264.051 146.746L264.016 146.724C258.134 142.978 252.076 139.369 245.84 135.909C245.478 135.711 245.124 135.565 244.792 135.49C244.461 135.41 244.151 135.393 243.881 135.433C243.612 135.472 243.382 135.569 243.214 135.724C243.041 135.878 242.935 136.09 242.886 136.35C242.214 140.728 242.033 145.33 242.378 150.047C242.396 150.316 242.484 150.603 242.634 150.89C242.776 151.181 242.984 151.472 243.231 151.754C243.479 152.037 243.762 152.306 244.08 152.549C244.394 152.791 244.735 153.008 245.089 153.18L245.093 153.171Z" fill="#EDEDED"/>
<path opacity="0.6" d="M298.413 200.671L298.466 200.693L298.519 200.72L298.572 200.742L298.625 200.764C308.159 204.881 317.486 209.24 326.6 213.821C327.14 214.09 327.599 214.297 327.962 214.438C328.329 214.58 328.603 214.659 328.776 214.672C328.948 214.686 329.019 214.633 328.979 214.513C328.939 214.394 328.793 214.205 328.524 213.949C323.951 209.598 319.891 205.194 316.38 200.773C316.181 200.521 315.894 200.221 315.54 199.89C315.186 199.559 314.771 199.198 314.315 198.823C313.86 198.452 313.364 198.068 312.856 197.697C312.347 197.327 311.821 196.969 311.308 196.643L311.25 196.607L311.197 196.572L311.14 196.537L311.087 196.502C302.145 190.99 292.956 185.709 283.536 180.67C282.988 180.378 282.506 180.162 282.099 180.025C281.692 179.889 281.365 179.831 281.131 179.849C280.896 179.866 280.755 179.959 280.719 180.131C280.684 180.299 280.759 180.546 280.954 180.859C284.27 186.194 288.189 191.529 292.673 196.802C292.929 197.102 293.279 197.437 293.694 197.777C294.11 198.121 294.592 198.474 295.109 198.823C295.627 199.171 296.184 199.507 296.741 199.82C297.303 200.133 297.864 200.42 298.408 200.663L298.413 200.671Z" fill="#C9D6DE"/>
<path opacity="0.64" d="M250.211 169.343L250.246 169.356L250.281 169.37L250.317 169.383C250.317 169.383 250.339 169.392 250.352 169.396C256.296 171.492 262.115 173.72 267.802 176.081C268.138 176.222 268.439 176.306 268.691 176.346C268.943 176.381 269.151 176.372 269.306 176.315C269.46 176.257 269.558 176.152 269.593 176.006C269.629 175.86 269.602 175.671 269.505 175.441C267.846 171.532 266.604 167.644 265.786 163.836C265.737 163.62 265.635 163.377 265.48 163.13C265.33 162.879 265.131 162.623 264.897 162.371C264.662 162.12 264.397 161.873 264.11 161.643C263.822 161.414 263.513 161.206 263.194 161.03L263.163 161.012L263.132 160.995L263.101 160.977L263.07 160.959C257.467 158.082 251.719 155.333 245.828 152.721C245.483 152.571 245.165 152.478 244.882 152.439C244.599 152.399 244.347 152.417 244.148 152.487C243.949 152.558 243.798 152.677 243.705 152.845C243.613 153.012 243.582 153.229 243.63 153.485C244.351 157.8 245.532 162.208 247.146 166.643C247.239 166.894 247.389 167.154 247.593 167.415C247.792 167.675 248.039 167.931 248.318 168.174C248.596 168.416 248.906 168.641 249.224 168.84C249.547 169.039 249.883 169.206 250.215 169.339L250.211 169.343Z" fill="#EEF7FC"/>
<path opacity="0.64" d="M280.529 191.298L280.56 191.311L280.591 191.325C280.591 191.325 280.613 191.333 280.622 191.338L280.653 191.351C286.075 193.2 291.382 195.181 296.582 197.286C296.892 197.409 297.153 197.493 297.365 197.537C297.577 197.581 297.736 197.586 297.838 197.555C297.94 197.524 297.984 197.454 297.966 197.348C297.949 197.242 297.865 197.101 297.719 196.924C295.189 193.928 292.978 190.897 291.099 187.865C290.992 187.693 290.833 187.499 290.639 187.292C290.444 187.089 290.21 186.872 289.949 186.661C289.692 186.449 289.409 186.237 289.122 186.043C288.83 185.844 288.529 185.663 288.233 185.509L288.202 185.496L288.171 185.478L288.14 185.46L288.109 185.447C282.966 182.861 277.695 180.395 272.304 178.061C271.99 177.928 271.716 177.84 271.482 177.8C271.247 177.761 271.057 177.765 270.92 177.813C270.783 177.862 270.694 177.955 270.672 178.087C270.65 178.219 270.686 178.392 270.792 178.599C272.6 182.111 274.772 185.628 277.284 189.109C277.425 189.308 277.624 189.515 277.858 189.727C278.093 189.935 278.363 190.146 278.659 190.341C278.951 190.539 279.265 190.724 279.583 190.892C279.901 191.06 280.22 191.201 280.529 191.316V191.298Z" fill="#EDEDED"/>
<path opacity="0.8" d="M175.386 135.014C175.386 135.014 175.417 135.019 175.434 135.027L175.483 135.041L175.532 135.054C175.532 135.054 175.567 135.058 175.58 135.067C184.213 136.894 192.672 138.902 200.964 141.068C201.455 141.201 201.915 141.227 202.326 141.183C202.737 141.139 203.1 141.002 203.396 140.803C203.692 140.6 203.922 140.331 204.077 140C204.232 139.669 204.294 139.281 204.272 138.844C203.812 131.361 204.029 124.023 204.948 116.954C204.997 116.548 204.957 116.129 204.842 115.714C204.727 115.299 204.537 114.889 204.267 114.518C204.006 114.139 203.688 113.786 203.308 113.49C202.941 113.181 202.507 112.939 202.047 112.758C202.03 112.758 201.999 112.74 201.999 112.74C201.999 112.74 201.968 112.722 201.95 112.722L201.901 112.705C201.901 112.705 201.866 112.7 201.853 112.687C193.61 109.876 185.181 107.22 176.571 104.74C176.071 104.594 175.58 104.55 175.12 104.594C174.66 104.634 174.232 104.771 173.86 104.978C173.489 105.19 173.17 105.473 172.931 105.817C172.693 106.165 172.533 106.576 172.476 107.035C171.521 114.748 171.229 122.73 171.693 130.866C171.72 131.325 171.844 131.78 172.043 132.221C172.242 132.658 172.52 133.073 172.852 133.448C173.183 133.823 173.581 134.145 174.006 134.423C174.439 134.688 174.899 134.895 175.381 135.027L175.386 135.014Z" fill="#EDEDED"/>
<path opacity="0.51" d="M258.033 186.888L258.077 186.901L258.122 186.914L258.166 186.927L258.21 186.941C265.657 188.887 272.963 191 280.127 193.273C280.551 193.405 280.909 193.48 281.201 193.493C281.493 193.506 281.71 193.467 281.856 193.374C281.997 193.281 282.064 193.136 282.041 192.946C282.019 192.756 281.913 192.518 281.714 192.24C278.287 187.483 275.315 182.674 272.83 177.869C272.688 177.595 272.476 177.299 272.211 176.999C271.946 176.699 271.627 176.395 271.273 176.104C270.92 175.812 270.535 175.53 270.132 175.278C269.734 175.027 269.314 174.802 268.907 174.621L268.868 174.603L268.828 174.586L268.788 174.568L268.748 174.55C261.615 171.656 254.323 168.929 246.88 166.365C246.447 166.215 246.062 166.14 245.739 166.127C245.412 166.114 245.147 166.171 244.957 166.286C244.767 166.4 244.643 166.573 244.603 166.798C244.568 167.023 244.616 167.301 244.758 167.623C247.199 173.037 250.148 178.464 253.589 183.843C253.788 184.148 254.058 184.461 254.376 184.765C254.699 185.07 255.075 185.365 255.477 185.639C255.88 185.913 256.313 186.164 256.746 186.376C257.184 186.588 257.626 186.769 258.051 186.888H258.033Z" fill="#C9D6DE"/>
<path opacity="0.62" d="M347.724 225.943L347.768 225.956C347.768 225.956 347.794 225.965 347.812 225.97L347.856 225.983L347.901 225.996C355.166 228.282 362.313 230.744 369.326 233.378C369.742 233.533 370.074 233.665 370.321 233.753C370.564 233.846 370.724 233.908 370.79 233.939C370.856 233.97 370.83 233.965 370.71 233.921C370.591 233.881 370.379 233.802 370.065 233.687C364.749 231.706 359.708 229.606 354.95 227.413C354.675 227.293 354.339 227.135 353.963 226.954C353.588 226.777 353.167 226.574 352.73 226.367C352.292 226.159 351.841 225.943 351.394 225.727C350.947 225.515 350.505 225.303 350.098 225.109C350.085 225.109 350.054 225.087 350.054 225.087C350.054 225.087 350.028 225.07 350.01 225.065L349.966 225.043L349.922 225.021C342.912 221.698 335.753 218.543 328.452 215.578C328.027 215.406 327.678 215.274 327.412 215.19C327.147 215.106 326.961 215.066 326.864 215.066C326.767 215.066 326.758 215.115 326.846 215.203C326.935 215.291 327.116 215.419 327.395 215.591C332.135 218.482 337.19 221.266 342.55 223.927C342.85 224.077 343.226 224.244 343.633 224.421C344.044 224.597 344.5 224.778 344.964 224.959C345.433 225.14 345.911 225.321 346.379 225.484C346.848 225.652 347.304 225.802 347.724 225.939V225.943Z" fill="#C9D6DE"/>
<path opacity="0.73" d="M206.2 157.831L206.24 157.839C206.254 157.844 206.267 157.848 206.276 157.848C206.276 157.848 206.302 157.857 206.315 157.857C206.315 157.857 206.342 157.857 206.355 157.866C212.617 159.124 218.768 160.509 224.796 162.023C225.154 162.111 225.473 162.137 225.742 162.106C226.012 162.075 226.233 161.992 226.397 161.855C226.56 161.722 226.667 161.537 226.711 161.317C226.746 161.096 226.728 160.831 226.631 160.536C224.942 155.479 223.713 150.449 222.952 145.507C222.908 145.224 222.797 144.929 222.642 144.637C222.483 144.35 222.28 144.064 222.032 143.803C221.784 143.539 221.501 143.3 221.201 143.084C220.896 142.872 220.564 142.696 220.223 142.568C220.21 142.568 220.197 142.563 220.188 142.555C220.175 142.559 220.153 142.541 220.153 142.541C220.139 142.537 220.117 142.528 220.117 142.528C220.104 142.528 220.091 142.524 220.082 142.515C214.072 140.529 207.934 138.663 201.668 136.929C201.301 136.832 200.96 136.792 200.659 136.827C200.354 136.858 200.089 136.951 199.877 137.096C199.664 137.246 199.496 137.44 199.399 137.688C199.297 137.93 199.271 138.217 199.311 138.544C200.045 143.953 201.265 149.465 202.968 154.998C203.056 155.311 203.229 155.624 203.437 155.92C203.649 156.216 203.91 156.502 204.202 156.754C204.493 157.01 204.821 157.231 205.161 157.416C205.502 157.601 205.856 157.742 206.209 157.826L206.2 157.831Z" fill="#C9D6DE"/>
<path opacity="0.54" d="M383.902 236.677L383.951 236.69L383.999 236.703L384.048 236.717L384.097 236.73C392.463 239.214 400.698 241.906 408.795 244.787C409.272 244.964 409.648 245.114 409.918 245.242C410.188 245.37 410.347 245.48 410.404 245.559C410.462 245.639 410.404 245.692 410.236 245.709C410.068 245.731 409.79 245.709 409.392 245.656C402.635 244.717 396.121 243.635 389.854 242.426C389.496 242.356 389.058 242.246 388.581 242.109C388.103 241.972 387.577 241.804 387.042 241.619C386.502 241.434 385.954 241.222 385.41 241.019C384.875 240.798 384.349 240.591 383.867 240.375C383.867 240.375 383.836 240.357 383.818 240.353L383.769 240.33L383.721 240.308L383.672 240.286C375.531 236.58 367.23 233.085 358.779 229.798C358.289 229.604 357.895 229.454 357.607 229.33C357.316 229.215 357.13 229.127 357.055 229.087C356.975 229.048 357.006 229.043 357.148 229.079C357.289 229.123 357.546 229.193 357.917 229.317C364.219 231.347 370.799 233.244 377.649 234.978C378.038 235.08 378.503 235.194 379.011 235.331C379.52 235.455 380.068 235.614 380.63 235.764C381.191 235.918 381.766 236.068 382.323 236.227C382.881 236.372 383.416 236.527 383.898 236.677H383.902Z" fill="#C9D6DE"/>
<path opacity="0.51" d="M151.673 131.665L151.722 131.673C151.739 131.673 151.775 131.682 151.775 131.682C151.792 131.682 151.828 131.691 151.828 131.691L151.876 131.7C160.831 133.037 169.618 134.55 178.237 136.218C178.746 136.32 179.228 136.32 179.648 136.218C180.077 136.134 180.453 135.949 180.758 135.698C181.072 135.455 181.302 135.124 181.461 134.74C181.616 134.361 181.682 133.919 181.656 133.438C181.129 125.161 181.328 117.028 182.244 109.165C182.288 108.711 182.257 108.247 182.129 107.806C182.005 107.365 181.797 106.941 181.527 106.549C181.262 106.156 180.922 105.803 180.528 105.512C180.152 105.203 179.697 104.973 179.215 104.828C179.215 104.828 179.179 104.819 179.162 104.81L179.108 104.797C179.108 104.797 179.073 104.784 179.055 104.784C179.055 104.784 179.02 104.779 179.002 104.77C170.397 102.476 161.61 100.323 152.65 98.3414C152.128 98.2311 151.62 98.2223 151.142 98.3061C150.665 98.3943 150.227 98.5753 149.838 98.8312C149.453 99.0871 149.13 99.4269 148.878 99.824C148.639 100.226 148.467 100.684 148.414 101.196C147.481 109.69 147.268 118.458 147.821 127.376C147.848 127.879 147.985 128.373 148.193 128.841C148.401 129.308 148.697 129.741 149.042 130.129C149.396 130.509 149.798 130.848 150.245 131.113C150.691 131.373 151.169 131.576 151.673 131.669V131.665Z" fill="#EDEDED"/>
<path opacity="0.63" d="M327.12 223.295C327.12 223.295 327.164 223.309 327.186 223.313L327.253 223.331L327.319 223.344L327.385 223.357C338.826 226.053 350.08 229.01 361.145 232.231C361.804 232.42 362.326 232.562 362.71 232.632C363.095 232.712 363.338 232.725 363.444 232.694C363.546 232.659 363.506 232.571 363.316 232.429C363.126 232.284 362.785 232.09 362.29 231.842C353.879 227.584 345.937 223.137 338.494 218.508C338.065 218.248 337.539 217.943 336.946 217.621C336.349 217.308 335.69 216.968 335.005 216.633C334.32 216.293 333.603 215.962 332.896 215.649C332.188 215.335 331.494 215.04 330.844 214.788C330.844 214.788 330.795 214.77 330.773 214.762L330.702 214.735C330.68 214.726 330.636 214.709 330.636 214.709C330.614 214.7 330.565 214.682 330.565 214.682C319.452 210.459 308.122 206.497 296.58 202.808C295.912 202.592 295.36 202.46 294.94 202.398C294.519 202.336 294.228 202.349 294.073 202.433C293.918 202.517 293.905 202.667 294.042 202.883C294.179 203.095 294.462 203.373 294.9 203.708C302.373 209.339 310.391 214.793 318.921 220.043C319.403 220.339 319.992 220.657 320.646 220.966C321.3 221.279 322.017 221.588 322.755 221.879C323.494 222.175 324.259 222.444 325.002 222.691C325.745 222.934 326.466 223.141 327.125 223.309L327.12 223.295Z" fill="#C9D6DE"/>
<path opacity="0.58" d="M184.738 152.444H184.769L184.8 152.453C184.8 152.453 184.818 152.458 184.831 152.458H184.862C190.115 153.181 195.281 153.998 200.353 154.92C200.654 154.977 200.919 154.973 201.144 154.92C201.37 154.867 201.556 154.77 201.693 154.633C201.83 154.496 201.918 154.315 201.954 154.103C201.989 153.892 201.971 153.649 201.883 153.384C200.455 148.808 199.411 144.255 198.77 139.776C198.734 139.52 198.641 139.26 198.509 139.008C198.376 138.757 198.204 138.51 197.991 138.293C197.788 138.073 197.545 137.874 197.288 137.707C197.027 137.543 196.753 137.407 196.461 137.318C196.452 137.314 196.439 137.314 196.43 137.309C196.421 137.309 196.399 137.301 196.399 137.301C196.39 137.296 196.382 137.292 196.368 137.292L196.337 137.283C191.261 135.986 186.087 134.786 180.807 133.691C180.501 133.629 180.214 133.625 179.957 133.674C179.701 133.727 179.48 133.828 179.299 133.978C179.113 134.119 178.98 134.318 178.901 134.547C178.821 134.777 178.79 135.041 178.83 135.328C179.475 140.182 180.519 145.115 181.983 150.066C182.067 150.344 182.2 150.622 182.381 150.878C182.562 151.134 182.783 151.377 183.031 151.593C183.279 151.809 183.553 151.99 183.84 152.135C184.128 152.281 184.428 152.387 184.725 152.44L184.738 152.444Z" fill="#EEF7FC"/>
<path opacity="0.74" d="M128.997 127.733C128.997 127.733 129.028 127.733 129.046 127.742C129.046 127.742 129.081 127.742 129.094 127.746C129.112 127.746 129.143 127.751 129.143 127.751C129.143 127.751 129.178 127.759 129.192 127.755C137.386 128.523 145.439 129.414 153.346 130.473C153.815 130.531 154.248 130.5 154.637 130.381C155.031 130.27 155.371 130.067 155.65 129.798C155.92 129.524 156.145 129.202 156.287 128.823C156.428 128.443 156.49 128.011 156.455 127.543C155.915 119.535 156.035 111.663 156.804 104.02C156.835 103.579 156.804 103.142 156.689 102.723C156.565 102.308 156.384 101.907 156.128 101.554C155.88 101.192 155.557 100.883 155.199 100.627C154.836 100.371 154.429 100.177 153.987 100.062C153.974 100.053 153.943 100.049 153.943 100.049L153.899 100.04C153.899 100.04 153.863 100.04 153.854 100.031C153.854 100.031 153.824 100.027 153.81 100.022C145.894 98.434 137.824 96.9558 129.594 95.6453C129.112 95.5703 128.643 95.5923 128.21 95.7071C127.772 95.8174 127.37 96.0248 127.02 96.2895C126.671 96.5631 126.375 96.9029 126.154 97.3C125.928 97.6927 125.778 98.1472 125.742 98.637C124.977 106.831 124.876 115.259 125.455 123.819C125.486 124.3 125.61 124.772 125.809 125.209C126.003 125.646 126.282 126.043 126.596 126.4C126.928 126.74 127.295 127.049 127.701 127.279C128.113 127.504 128.551 127.662 129.01 127.729L128.997 127.733Z" fill="#EDEDED"/>
<path opacity="0.61" d="M307.725 216.195H307.756L307.787 216.208H307.818C307.818 216.208 307.84 216.217 307.849 216.217C313.076 217.073 318.223 218.044 323.291 219.125C323.592 219.191 323.826 219.222 324.003 219.226C324.176 219.231 324.291 219.209 324.335 219.156C324.379 219.107 324.357 219.032 324.269 218.935C324.176 218.838 324.021 218.719 323.791 218.573C319.904 216.16 316.255 213.649 312.846 211.059C312.651 210.909 312.408 210.75 312.134 210.591C311.86 210.432 311.559 210.264 311.245 210.11C310.931 209.951 310.599 209.806 310.277 209.669C309.954 209.532 309.631 209.417 309.335 209.325C309.321 209.325 309.304 209.316 309.304 209.316C309.304 209.316 309.282 209.307 309.273 209.307L309.242 209.298C309.242 209.298 309.22 209.294 309.211 209.289C304.103 207.78 298.903 206.381 293.609 205.106C293.3 205.031 293.048 204.996 292.853 205C292.658 205 292.526 205.04 292.455 205.111C292.384 205.181 292.38 205.283 292.442 205.415C292.504 205.543 292.636 205.702 292.84 205.883C296.285 208.901 299.991 211.835 303.948 214.673C304.174 214.831 304.444 214.995 304.744 215.149C305.045 215.304 305.377 215.454 305.717 215.59C306.058 215.727 306.407 215.851 306.748 215.952C307.088 216.054 307.415 216.138 307.721 216.195H307.725Z" fill="#5DA6DB"/>
<path opacity="0.52" d="M344.718 228.805L344.749 228.81C344.749 228.81 344.772 228.81 344.78 228.814C344.78 228.814 344.802 228.814 344.811 228.819H344.842C350.361 229.639 355.801 230.579 361.16 231.638C361.479 231.704 361.726 231.74 361.903 231.762C362.08 231.779 362.182 231.775 362.213 231.757C362.239 231.731 362.2 231.691 362.08 231.629C361.961 231.568 361.771 231.484 361.496 231.387C356.888 229.666 352.475 227.835 348.269 225.893C348.026 225.783 347.739 225.659 347.416 225.527C347.093 225.399 346.744 225.267 346.386 225.13C346.027 225.002 345.66 224.865 345.298 224.746C344.94 224.627 344.59 224.516 344.272 224.424L344.236 224.415C344.236 224.415 344.214 224.406 344.201 224.406L344.166 224.397C344.166 224.397 344.144 224.389 344.13 224.389C338.695 222.866 333.168 221.463 327.556 220.192C327.233 220.117 326.972 220.077 326.782 220.069C326.592 220.055 326.463 220.073 326.419 220.126C326.371 220.175 326.393 220.25 326.494 220.347C326.596 220.444 326.769 220.567 327.021 220.713C331.293 223.113 335.794 225.408 340.504 227.583C340.769 227.702 341.083 227.83 341.428 227.954C341.773 228.077 342.145 228.196 342.525 228.307C342.905 228.417 343.29 228.514 343.662 228.602C344.033 228.686 344.387 228.761 344.71 228.81L344.718 228.805Z" fill="#5DA6DB"/>
<path opacity="0.58" d="M157.71 156.208C157.71 156.208 157.745 156.217 157.763 156.212H157.816L157.869 156.225C157.886 156.225 157.917 156.225 157.917 156.225C166.912 156.918 175.757 157.792 184.451 158.829C184.964 158.891 185.424 158.851 185.808 158.727C186.198 158.608 186.525 158.401 186.746 158.114C186.989 157.84 187.139 157.492 187.188 157.09C187.246 156.693 187.21 156.239 187.06 155.753C184.552 147.414 182.735 139.105 181.585 130.924C181.532 130.452 181.36 129.984 181.13 129.539C180.904 129.089 180.595 128.674 180.236 128.294C179.887 127.91 179.467 127.579 179.02 127.31C178.574 127.046 178.096 126.829 177.596 126.715C177.583 126.706 177.543 126.701 177.543 126.701C177.526 126.701 177.512 126.693 177.49 126.693C177.472 126.688 177.442 126.684 177.442 126.684C177.442 126.684 177.406 126.684 177.393 126.675C168.663 125.033 159.77 123.551 150.714 122.227C150.183 122.148 149.692 122.179 149.254 122.307C148.816 122.435 148.436 122.651 148.131 122.946C147.83 123.246 147.583 123.608 147.454 124.041C147.3 124.464 147.273 124.954 147.344 125.479C148.507 134.273 150.391 143.195 152.973 152.153C153.119 152.66 153.367 153.146 153.672 153.604C153.982 154.059 154.366 154.478 154.795 154.84C155.224 155.202 155.697 155.511 156.188 155.744C156.684 155.978 157.197 156.137 157.701 156.203L157.71 156.208Z" fill="#C9D6DE"/>
<path opacity="0.62" d="M382.323 237.639H382.363L382.402 237.647H382.442L382.482 237.656C389.469 238.565 396.368 239.624 403.169 240.846C403.572 240.922 403.881 240.97 404.094 241.019C404.306 241.063 404.425 241.089 404.452 241.094C404.474 241.102 404.403 241.094 404.235 241.072C404.067 241.054 403.797 241.014 403.435 240.944C397.182 239.88 391.128 238.649 385.264 237.286C384.928 237.202 384.53 237.109 384.096 237.003C383.663 236.902 383.194 236.774 382.716 236.659C382.239 236.531 381.752 236.412 381.284 236.288C380.815 236.16 380.359 236.046 379.953 235.94L379.908 235.927L379.864 235.913C379.864 235.913 379.838 235.904 379.82 235.9L379.776 235.891C372.842 234.069 365.797 232.414 358.655 230.918C358.239 230.835 357.917 230.768 357.687 230.742C357.457 230.711 357.32 230.707 357.28 230.729C357.24 230.751 357.297 230.795 357.452 230.87C357.607 230.94 357.859 231.038 358.217 231.157C364.196 233.125 370.401 234.938 376.813 236.593C377.175 236.681 377.6 236.787 378.055 236.884C378.511 236.986 379.002 237.074 379.497 237.171C379.992 237.259 380.492 237.352 380.974 237.431C381.452 237.511 381.912 237.577 382.318 237.634L382.323 237.639Z" fill="#18469E"/>
<path opacity="0.69" d="M94.4185 140.276C94.4495 140.276 94.476 140.276 94.507 140.285C94.507 140.285 94.5689 140.303 94.5954 140.29C94.5954 140.29 94.6529 140.303 94.6839 140.294C94.6839 140.294 94.7414 140.298 94.7723 140.294C110.153 140.921 125.272 141.816 140.131 142.95C141.011 143.012 141.829 142.906 142.554 142.619C143.28 142.341 143.917 141.909 144.434 141.353C144.951 140.797 145.323 140.109 145.606 139.35C145.849 138.578 145.964 137.722 145.902 136.804C144.726 121.051 144.805 105.537 146.075 90.4461C146.159 89.5768 146.039 88.7208 145.823 87.9133C145.606 87.1058 145.212 86.3645 144.739 85.6938C144.257 85.0275 143.664 84.4407 142.975 83.9994C142.289 83.5405 141.515 83.2096 140.679 83.0507L140.595 83.0331C140.569 83.0198 140.511 83.0154 140.511 83.0154C140.48 83.0242 140.427 83.0022 140.427 83.0022C140.401 82.9889 140.37 82.9889 140.339 82.9889C125.423 80.8533 110.228 78.9603 94.7502 77.3409C93.8525 77.2174 92.968 77.3409 92.1544 77.6145C91.3362 77.8749 90.5579 78.2896 89.9344 78.8897C89.2666 79.4413 88.7271 80.1561 88.3336 80.9592C87.9179 81.7534 87.6658 82.658 87.5995 83.6155C86.3657 99.7035 86.3436 116.215 87.6481 132.965C87.7144 133.909 87.9621 134.818 88.3424 135.652C88.7139 136.495 89.2401 137.254 89.8504 137.907C90.4651 138.56 91.1859 139.098 91.9509 139.517C92.7292 139.919 93.5562 140.201 94.423 140.268L94.4185 140.276Z" fill="#EDEDED"/>
<path opacity="0.73" d="M286.878 217.288H286.931L286.984 217.301H287.037L287.086 217.31C295.913 218.161 304.611 219.207 313.181 220.438C313.686 220.513 314.088 220.522 314.384 220.482C314.676 220.443 314.862 220.355 314.933 220.222C315.008 220.09 314.972 219.909 314.813 219.697C314.663 219.481 314.389 219.234 314 218.951C307.331 214.151 301.087 209.178 295.28 204.072C294.944 203.781 294.533 203.477 294.069 203.181C293.604 202.885 293.091 202.594 292.552 202.325C292.017 202.056 291.459 201.809 290.907 201.597C290.354 201.385 289.81 201.213 289.306 201.085C289.306 201.085 289.27 201.076 289.253 201.072C289.253 201.072 289.217 201.063 289.2 201.059L289.147 201.045L289.094 201.032C280.417 199.13 271.599 197.405 262.631 195.883C262.109 195.79 261.68 195.781 261.353 195.83C261.026 195.878 260.8 195.998 260.685 196.165C260.57 196.337 260.561 196.562 260.672 196.827C260.782 197.096 261.008 197.41 261.362 197.749C267.261 203.53 273.629 209.173 280.448 214.645C280.833 214.954 281.297 215.258 281.815 215.545C282.328 215.832 282.894 216.096 283.477 216.335C284.057 216.569 284.654 216.772 285.233 216.935C285.812 217.098 286.374 217.213 286.882 217.279L286.878 217.288Z" fill="#18469E"/>
<path opacity="0.58" d="M325.007 227.223C325.007 227.223 325.034 227.223 325.043 227.223C325.043 227.223 325.065 227.223 325.078 227.223H325.114L325.149 227.227C331.296 227.73 337.359 228.361 343.342 229.129C343.696 229.168 343.965 229.186 344.16 229.177C344.35 229.164 344.465 229.129 344.492 229.063C344.518 229.001 344.47 228.917 344.328 228.811C344.195 228.705 343.97 228.577 343.665 228.436C338.42 225.987 333.41 223.406 328.651 220.696C328.377 220.542 328.05 220.379 327.687 220.216C327.329 220.052 326.931 219.893 326.529 219.739C326.122 219.589 325.711 219.443 325.308 219.32C324.906 219.196 324.512 219.086 324.154 219.011C324.141 219.011 324.119 219.002 324.119 219.002L324.083 218.993C324.083 218.993 324.061 218.993 324.048 218.984L324.012 218.976C317.932 217.731 311.754 216.619 305.483 215.644C305.121 215.587 304.829 215.569 304.617 215.591C304.404 215.613 304.272 215.671 304.218 215.759C304.165 215.847 304.196 215.971 304.311 216.116C304.426 216.262 304.625 216.434 304.913 216.624C309.764 219.81 314.885 222.872 320.262 225.793C320.567 225.956 320.926 226.119 321.315 226.274C321.704 226.428 322.124 226.57 322.553 226.697C322.982 226.825 323.415 226.936 323.831 227.024C324.247 227.112 324.649 227.178 325.007 227.214V227.223Z" fill="#18469E"/>
<path opacity="0.68" d="M137.562 149.199H137.597H137.633C137.646 149.199 137.655 149.199 137.668 149.199C137.681 149.199 137.69 149.199 137.704 149.199C143.501 149.345 149.206 149.592 154.818 149.94C155.149 149.962 155.445 149.914 155.693 149.808C155.941 149.706 156.144 149.548 156.295 149.345C156.445 149.142 156.538 148.895 156.573 148.617C156.613 148.339 156.582 148.03 156.485 147.699C154.813 142.029 153.593 136.372 152.805 130.799C152.761 130.477 152.646 130.168 152.505 129.868C152.354 129.572 152.155 129.299 151.921 129.052C151.687 128.809 151.421 128.593 151.134 128.434C150.846 128.266 150.532 128.147 150.214 128.094H150.183C150.183 128.094 150.161 128.085 150.152 128.085C150.152 128.085 150.13 128.081 150.121 128.081H150.09C144.439 127.353 138.685 126.722 132.835 126.201C132.494 126.17 132.176 126.214 131.897 126.316C131.619 126.422 131.371 126.585 131.176 126.797C130.982 127.013 130.836 127.273 130.747 127.569C130.659 127.865 130.632 128.2 130.685 128.553C131.499 134.505 132.782 140.533 134.506 146.587C134.604 146.931 134.767 147.258 134.966 147.558C135.174 147.858 135.417 148.131 135.696 148.365C135.97 148.603 136.28 148.798 136.598 148.934C136.916 149.076 137.248 149.173 137.575 149.195L137.562 149.199Z" fill="#EEF7FC"/>
<path opacity="0.6" d="M228.909 196.223C228.909 196.223 228.931 196.223 228.945 196.223H228.98C228.98 196.223 229.002 196.223 229.015 196.227H229.051C235.158 196.536 241.172 196.964 247.093 197.511C247.443 197.547 247.73 197.52 247.951 197.454C248.168 197.384 248.318 197.273 248.398 197.119C248.477 196.969 248.482 196.779 248.411 196.563C248.34 196.347 248.19 196.104 247.964 195.835C244.091 191.299 240.584 186.67 237.448 181.997C237.272 181.728 237.033 181.459 236.754 181.207C236.476 180.951 236.162 180.709 235.825 180.492C235.489 180.276 235.131 180.082 234.769 179.923C234.41 179.764 234.043 179.645 233.698 179.579C233.685 179.579 233.663 179.57 233.663 179.57C233.65 179.57 233.641 179.566 233.628 179.566H233.592L233.557 179.553C227.565 178.573 221.467 177.713 215.271 176.976C214.913 176.932 214.603 176.954 214.36 177.029C214.117 177.104 213.931 177.232 213.816 177.408C213.697 177.58 213.652 177.796 213.683 178.048C213.71 178.299 213.82 178.577 214.011 178.886C217.212 183.992 220.799 189.048 224.77 194.017C224.991 194.299 225.274 194.568 225.597 194.82C225.915 195.071 226.273 195.301 226.649 195.499C227.021 195.698 227.414 195.866 227.799 195.989C228.184 196.117 228.56 196.192 228.914 196.227L228.909 196.223Z" fill="#18469E"/>
<path opacity="0.57" d="M79.2255 126.595C79.2255 126.595 79.2565 126.595 79.2742 126.595C79.2742 126.595 79.3095 126.595 79.3228 126.595H79.3714C79.3714 126.595 79.4068 126.604 79.4201 126.595C87.9948 126.537 96.4324 126.621 104.729 126.842C105.219 126.851 105.67 126.754 106.077 126.573C106.48 126.383 106.833 126.114 107.121 125.774C107.413 125.439 107.629 125.024 107.762 124.569C107.904 124.115 107.952 123.608 107.904 123.074C107.147 113.926 107.09 104.907 107.683 96.1132C107.718 95.6058 107.656 95.1116 107.523 94.6527C107.377 94.1982 107.161 93.7834 106.904 93.3995C106.621 93.0377 106.294 92.7112 105.909 92.4773C105.529 92.2302 105.091 92.0758 104.622 92.0008C104.622 92.0008 104.587 91.9919 104.574 91.9919C104.574 91.9919 104.538 91.9919 104.525 91.9875C104.507 91.9875 104.49 91.9831 104.472 91.9831C104.472 91.9831 104.437 91.9787 104.423 91.9787C96.0742 91.2374 87.5791 90.6108 78.9336 90.1255C78.4295 90.1078 77.9386 90.1872 77.4832 90.3637C77.0277 90.5446 76.6075 90.8138 76.2493 91.1624C75.9 91.5198 75.5772 91.9258 75.3737 92.4023C75.1438 92.87 75.0288 93.3995 74.9846 93.9555C74.4407 103.288 74.5247 112.845 75.387 122.526C75.4312 123.074 75.5816 123.59 75.7983 124.066C76.0238 124.539 76.3024 124.975 76.6562 125.333C76.9967 125.703 77.4036 125.995 77.8414 126.211C78.2792 126.423 78.7435 126.568 79.2255 126.582V126.595Z" fill="#EDEDED"/>
<path opacity="0.76" d="M266.015 220.506H266.082L266.152 220.514H266.219L266.285 220.519C278.092 220.929 289.736 221.595 301.212 222.496C301.888 222.553 302.423 222.513 302.813 222.407C303.202 222.301 303.445 222.116 303.538 221.878C303.631 221.635 303.569 221.34 303.356 220.991C303.14 220.647 302.773 220.254 302.242 219.826C293.159 212.528 284.668 204.996 276.797 197.278C276.346 196.833 275.788 196.391 275.165 195.972C274.537 195.548 273.847 195.143 273.122 194.776C272.396 194.414 271.649 194.088 270.906 193.823C270.168 193.558 269.434 193.351 268.757 193.228L268.686 193.214C268.664 193.205 268.615 193.201 268.615 193.201L268.545 193.188C268.545 193.188 268.496 193.179 268.474 193.179C256.817 191.427 244.974 189.923 232.946 188.656C232.247 188.586 231.672 188.616 231.239 188.744C230.801 188.868 230.505 189.084 230.354 189.375C230.2 189.662 230.2 190.028 230.354 190.448C230.514 190.867 230.819 191.339 231.296 191.851C239.327 200.415 248.021 208.786 257.33 216.927C257.856 217.39 258.493 217.827 259.192 218.238C259.89 218.644 260.655 219.019 261.438 219.336C262.221 219.658 263.026 219.919 263.804 220.122C264.582 220.325 265.334 220.453 266.02 220.501L266.015 220.506Z" fill="#18469E"/>
<path opacity="0.59" d="M168.2 181.314H168.262C168.284 181.314 168.324 181.314 168.324 181.314C168.346 181.309 168.364 181.314 168.386 181.314C168.403 181.309 168.448 181.314 168.448 181.314C178.291 181.402 187.989 181.68 197.533 182.139C198.094 182.161 198.572 182.086 198.957 181.918C199.337 181.755 199.629 181.499 199.806 181.177C199.991 180.859 200.067 180.467 200.027 180.03C199.987 179.593 199.841 179.099 199.558 178.578C194.839 169.682 190.815 160.712 187.476 151.759C187.282 151.243 186.99 150.74 186.636 150.263C186.274 149.791 185.845 149.354 185.376 148.961C184.903 148.573 184.381 148.242 183.846 147.977C183.302 147.726 182.749 147.532 182.196 147.439C182.196 147.439 182.156 147.43 182.139 147.43C182.139 147.43 182.099 147.43 182.081 147.421C182.059 147.421 182.042 147.421 182.024 147.413C182.002 147.413 181.962 147.404 181.962 147.404C172.317 146.292 162.509 145.378 152.536 144.637C151.953 144.589 151.435 144.668 151.002 144.844C150.569 145.025 150.215 145.286 149.963 145.639C149.706 145.987 149.547 146.411 149.512 146.892C149.459 147.373 149.543 147.911 149.75 148.48C153.169 158.091 157.312 167.714 162.195 177.254C162.455 177.797 162.836 178.313 163.278 178.777C163.711 179.249 164.224 179.672 164.768 180.034C165.312 180.396 165.892 180.7 166.475 180.912C167.059 181.133 167.647 181.256 168.209 181.296L168.2 181.314Z" fill="#EDEDED"/>
<path opacity="0.53" d="M305.208 227.454C305.208 227.454 305.239 227.454 305.253 227.454C305.253 227.454 305.279 227.454 305.297 227.454C305.31 227.454 305.341 227.454 305.341 227.454C305.354 227.454 305.368 227.454 305.381 227.454C312.448 227.595 319.422 227.878 326.303 228.315C326.709 228.345 327.023 228.323 327.244 228.275C327.466 228.226 327.589 228.147 327.616 228.032C327.647 227.926 327.576 227.785 327.412 227.626C327.249 227.467 326.984 227.287 326.625 227.088C320.456 223.717 314.579 220.182 309.007 216.498C308.684 216.286 308.3 216.074 307.884 215.867C307.464 215.664 307.008 215.465 306.54 215.284C306.071 215.104 305.593 214.945 305.124 214.812C304.66 214.68 304.205 214.574 303.793 214.508C303.793 214.508 303.762 214.503 303.749 214.499H303.705L303.661 214.486H303.616C296.598 213.528 289.479 212.725 282.257 212.072C281.833 212.032 281.501 212.05 281.258 212.108C281.014 212.169 280.864 212.275 280.807 212.416C280.754 212.558 280.789 212.734 280.93 212.941C281.068 213.149 281.306 213.378 281.647 213.63C287.347 217.831 293.375 221.881 299.712 225.769C300.07 225.989 300.49 226.201 300.945 226.391C301.401 226.581 301.892 226.757 302.387 226.907C302.882 227.057 303.387 227.181 303.869 227.273C304.346 227.37 304.81 227.419 305.222 227.441L305.208 227.454Z" fill="#3C98CF"/>
<path opacity="0.52" d="M344.458 236.92H344.546H344.59H344.634C352.276 236.933 359.825 237.105 367.285 237.45C367.727 237.467 368.059 237.458 368.284 237.423C368.51 237.388 368.634 237.331 368.638 237.251C368.652 237.172 368.554 237.07 368.346 236.955C368.139 236.841 367.825 236.708 367.404 236.563C360.17 234.061 353.178 231.378 346.461 228.51C346.072 228.347 345.616 228.179 345.125 228.011C344.634 227.848 344.104 227.689 343.569 227.539C343.034 227.394 342.485 227.261 341.963 227.146C341.437 227.032 340.937 226.943 340.482 226.882H340.438L340.393 226.868C340.38 226.864 340.363 226.864 340.349 226.864C340.336 226.864 340.305 226.86 340.305 226.86C332.668 225.946 324.925 225.201 317.079 224.627C316.62 224.592 316.27 224.6 316.023 224.649C315.775 224.698 315.638 224.781 315.602 224.896C315.572 225.011 315.647 225.156 315.832 225.324C316.018 225.492 316.319 225.682 316.726 225.889C323.624 229.322 330.802 232.587 338.253 235.645C338.673 235.821 339.164 235.976 339.681 236.13C340.203 236.28 340.761 236.417 341.318 236.527C341.875 236.642 342.441 236.739 342.972 236.801C343.507 236.872 344.011 236.907 344.458 236.92Z" fill="#C9D6DE"/>
<path opacity="0.7" d="M109.387 157.372C109.387 157.372 109.427 157.377 109.445 157.372C109.445 157.372 109.485 157.372 109.502 157.372C109.52 157.372 109.542 157.363 109.56 157.372C109.56 157.372 109.6 157.363 109.617 157.372C119.488 157.116 129.208 157.054 138.769 157.147C139.335 157.147 139.839 157.046 140.255 156.829C140.683 156.631 141.02 156.309 141.267 155.929C141.519 155.55 141.674 155.091 141.727 154.583C141.771 154.076 141.732 153.516 141.55 152.924C138.596 142.811 136.407 132.724 134.961 122.765C134.873 122.191 134.696 121.635 134.43 121.119C134.178 120.598 133.816 120.139 133.422 119.716C133.02 119.305 132.56 118.957 132.065 118.688C131.574 118.41 131.034 118.246 130.49 118.171L130.433 118.163L130.375 118.158C130.375 118.158 130.34 118.149 130.322 118.154H130.265C120.607 117.439 110.785 116.901 100.795 116.512C100.211 116.49 99.6762 116.609 99.1941 116.812C98.7165 117.029 98.2964 117.342 97.9736 117.743C97.6508 118.149 97.4031 118.626 97.2572 119.169C97.129 119.711 97.0759 120.307 97.1732 120.943C98.6944 131.515 101.007 142.215 104.067 152.951C104.258 153.551 104.514 154.133 104.872 154.654C105.23 155.175 105.664 155.642 106.137 156.044C106.619 156.437 107.145 156.768 107.694 156.993C108.238 157.231 108.812 157.35 109.374 157.372H109.387Z" fill="url(#paint0_linear_2025_764)"/>
<path opacity="0.51" d="M206.871 196.89H206.911H206.951C206.964 196.89 206.991 196.89 206.991 196.89C207.004 196.89 207.031 196.89 207.031 196.89C213.801 196.851 220.479 196.939 227.054 197.16C227.439 197.173 227.758 197.12 227.996 197.014C228.235 196.912 228.403 196.754 228.483 196.555C228.562 196.357 228.567 196.118 228.487 195.849C228.408 195.58 228.24 195.28 227.983 194.958C223.605 189.504 219.647 183.953 216.114 178.345C215.915 178.023 215.641 177.709 215.331 177.414C215.022 177.118 214.668 176.844 214.292 176.597C213.916 176.355 213.518 176.143 213.116 175.984C212.713 175.816 212.311 175.706 211.926 175.649C211.913 175.649 211.882 175.644 211.882 175.644C211.869 175.64 211.842 175.64 211.842 175.64C211.842 175.64 211.815 175.64 211.802 175.635H211.762C205.089 174.96 198.31 174.413 191.425 174.003C191.022 173.976 190.686 174.029 190.412 174.144C190.138 174.254 189.939 174.431 189.81 174.651C189.687 174.876 189.638 175.146 189.673 175.45C189.709 175.755 189.828 176.099 190.049 176.456C193.667 182.515 197.731 188.52 202.232 194.419C202.489 194.755 202.812 195.068 203.166 195.359C203.528 195.646 203.926 195.911 204.346 196.131C204.766 196.352 205.2 196.533 205.629 196.661C206.058 196.793 206.478 196.868 206.871 196.882V196.89Z" fill="#18469E"/>
<path opacity="0.51" d="M56.3312 123.061C56.3312 123.061 56.3577 123.061 56.371 123.061C56.3842 123.061 56.3975 123.061 56.4108 123.061C56.424 123.065 56.4373 123.061 56.4506 123.061C56.4638 123.061 56.4771 123.061 56.4904 123.061C63.1812 122.725 69.7703 122.487 76.2489 122.359C76.6292 122.35 76.983 122.253 77.2969 122.09C77.6109 121.927 77.8807 121.688 78.1018 121.402C78.3141 121.11 78.4954 120.775 78.5882 120.4C78.6988 120.025 78.7209 119.614 78.6855 119.182C77.9912 111.791 77.8586 104.493 78.2212 97.3622C78.2345 96.9519 78.2035 96.5503 78.0841 96.1885C77.9735 95.8223 77.7967 95.4958 77.5888 95.2045C77.3633 94.9265 77.1068 94.675 76.8017 94.4985C76.4965 94.322 76.1604 94.1941 75.7934 94.1676C75.7845 94.1588 75.7669 94.1544 75.7536 94.1676C75.7536 94.1676 75.7271 94.1676 75.7138 94.1676H75.674C75.674 94.1676 75.6474 94.1676 75.6342 94.1676C69.1026 93.8984 62.4604 93.7263 55.7032 93.6602C55.3096 93.6602 54.9249 93.7396 54.5755 93.9073C54.2218 94.0661 53.8989 94.3044 53.6248 94.6C53.3417 94.8868 53.1118 95.2398 52.9526 95.6325C52.7845 96.0208 52.6784 96.4489 52.6651 96.8989C52.3246 104.431 52.5369 112.131 53.3019 119.923C53.3373 120.365 53.4611 120.779 53.6336 121.159C53.8061 121.538 54.0404 121.874 54.319 122.156C54.5932 122.438 54.9072 122.668 55.2521 122.822C55.5926 122.986 55.9597 123.065 56.3356 123.074L56.3312 123.061Z" fill="#C9D6DE"/>
<path opacity="0.54" d="M245.499 212.727C245.499 212.727 245.521 212.727 245.53 212.727H245.597C245.597 212.727 245.619 212.727 245.628 212.727C251.359 212.603 257.01 212.59 262.582 212.696C262.91 212.7 263.171 212.66 263.356 212.581C263.542 212.506 263.657 212.387 263.701 212.241C263.745 212.096 263.71 211.924 263.599 211.729C263.493 211.535 263.303 211.319 263.042 211.09C258.545 207.162 254.344 203.125 250.461 198.991C250.236 198.752 249.961 198.518 249.656 198.302C249.347 198.086 249.006 197.879 248.652 197.702C248.299 197.526 247.932 197.367 247.569 197.248C247.206 197.128 246.853 197.04 246.521 197C246.508 197 246.499 197 246.485 197C246.472 197 246.45 197 246.45 197C246.437 197 246.415 197 246.415 197H246.379C240.706 196.506 234.943 196.131 229.097 195.862C228.757 195.849 228.478 195.884 228.266 195.972C228.054 196.061 227.912 196.193 227.841 196.361C227.775 196.533 227.771 196.736 227.85 196.961C227.93 197.19 228.085 197.446 228.323 197.715C232.303 202.238 236.611 206.664 241.232 210.975C241.493 211.222 241.811 211.447 242.152 211.659C242.497 211.866 242.873 212.056 243.257 212.21C243.642 212.369 244.036 212.493 244.416 212.585C244.796 212.674 245.163 212.722 245.495 212.731L245.499 212.727Z" fill="#3C98CF"/>
<path opacity="0.56" d="M147.34 175.512H147.38H147.42C147.42 175.512 147.447 175.512 147.46 175.512C147.46 175.512 147.486 175.512 147.5 175.512C154 175.243 160.404 175.089 166.714 175.053C167.086 175.053 167.404 174.978 167.656 174.842C167.908 174.709 168.09 174.511 168.213 174.277C168.324 174.038 168.381 173.756 168.35 173.443C168.328 173.13 168.218 172.785 168.032 172.424C164.839 166.215 162.111 159.958 159.838 153.714C159.709 153.357 159.515 153.004 159.272 152.686C159.033 152.364 158.741 152.069 158.427 151.813C158.104 151.561 157.764 151.341 157.401 151.177C157.043 151.014 156.671 150.899 156.304 150.864H156.269L156.234 150.855C156.234 150.855 156.207 150.855 156.198 150.855H156.163C149.773 150.485 143.276 150.22 136.678 150.087C136.294 150.074 135.953 150.149 135.666 150.29C135.378 150.427 135.148 150.635 134.985 150.891C134.812 151.142 134.719 151.455 134.697 151.795C134.666 152.135 134.728 152.514 134.865 152.911C137.209 159.565 140.039 166.228 143.334 172.847C143.524 173.218 143.767 173.575 144.068 173.893C144.36 174.215 144.705 174.497 145.063 174.736C145.426 174.974 145.815 175.164 146.199 175.305C146.589 175.433 146.978 175.512 147.349 175.521L147.34 175.512Z" fill="url(#paint1_linear_2025_764)"/>
<path opacity="0.52" d="M285.158 228.034H285.203H285.242H285.282C285.282 228.034 285.309 228.034 285.322 228.034C292.389 227.765 299.367 227.632 306.257 227.65C306.664 227.65 306.973 227.606 307.19 227.527C307.407 227.447 307.522 227.328 307.544 227.182C307.566 227.037 307.491 226.865 307.318 226.671C307.141 226.481 306.876 226.265 306.509 226.035C300.185 222.148 294.166 218.097 288.471 213.892C288.143 213.649 287.754 213.411 287.325 213.19C286.896 212.965 286.432 212.762 285.959 212.577C285.486 212.392 284.999 212.233 284.526 212.114C284.057 211.99 283.602 211.902 283.186 211.862H283.142C283.142 211.862 283.115 211.853 283.102 211.853C283.102 211.853 283.075 211.853 283.062 211.853H283.022C275.978 211.346 268.831 210.984 261.588 210.768C261.168 210.755 260.832 210.799 260.593 210.896C260.354 210.989 260.204 211.13 260.155 211.306C260.102 211.483 260.155 211.699 260.292 211.937C260.438 212.176 260.677 212.445 261.031 212.723C266.868 217.418 273.05 221.954 279.555 226.322C279.927 226.569 280.351 226.803 280.816 227.01C281.28 227.222 281.78 227.407 282.284 227.557C282.788 227.712 283.297 227.831 283.783 227.915C284.269 227.994 284.734 228.043 285.149 228.038L285.158 228.034Z" fill="#18469E"/>
<path opacity="0.72" d="M324.671 236.303H324.706H324.742C324.742 236.303 324.764 236.303 324.777 236.303H324.812C330.712 235.967 336.545 235.76 342.311 235.672C342.652 235.667 342.908 235.632 343.076 235.579C343.249 235.526 343.333 235.451 343.333 235.358C343.333 235.266 343.253 235.16 343.085 235.036C342.917 234.917 342.665 234.785 342.329 234.644C336.576 232.265 331.03 229.728 325.701 227.058C325.396 226.904 325.038 226.754 324.653 226.613C324.269 226.472 323.853 226.335 323.433 226.22C323.013 226.101 322.588 225.999 322.181 225.92C321.774 225.841 321.385 225.783 321.036 225.757H321.001L320.965 225.752H320.93L320.894 225.748C314.977 225.421 308.981 225.214 302.909 225.139C302.555 225.135 302.281 225.17 302.095 225.232C301.905 225.298 301.799 225.391 301.781 225.514C301.759 225.633 301.826 225.779 301.98 225.938C302.131 226.101 302.37 226.277 302.697 226.458C308.167 229.552 313.881 232.49 319.806 235.283C320.143 235.438 320.527 235.588 320.939 235.716C321.35 235.844 321.788 235.954 322.225 236.051C322.663 236.139 323.105 236.214 323.521 236.259C323.937 236.303 324.33 236.325 324.68 236.311L324.671 236.303Z" fill="#3C98CF"/>
<path opacity="0.73" d="M184.65 197.993H184.695C184.695 197.993 184.726 197.993 184.739 197.993H184.783C184.783 197.993 184.81 197.993 184.827 197.993C191.814 197.592 198.7 197.309 205.492 197.168C205.89 197.155 206.218 197.08 206.461 196.943C206.704 196.802 206.877 196.617 206.956 196.383C207.045 196.153 207.04 195.871 206.947 195.566C206.868 195.257 206.682 194.927 206.412 194.574C201.8 188.564 197.634 182.439 193.911 176.266C193.694 175.913 193.411 175.573 193.092 175.251C192.765 174.938 192.403 174.642 192.009 174.391C191.615 174.144 191.2 173.932 190.784 173.769C190.364 173.614 189.944 173.508 189.546 173.469C189.533 173.469 189.506 173.469 189.506 173.469C189.493 173.469 189.48 173.469 189.466 173.469H189.426L189.387 173.464C182.484 173.168 175.47 173.001 168.355 172.961C167.939 172.957 167.585 173.036 167.306 173.182C167.023 173.323 166.82 173.535 166.692 173.795C166.564 174.051 166.519 174.364 166.564 174.704C166.603 175.048 166.74 175.423 166.966 175.82C170.796 182.439 175.09 189.005 179.839 195.456C180.1 195.827 180.44 196.162 180.816 196.471C181.192 196.784 181.612 197.049 182.046 197.283C182.479 197.512 182.93 197.693 183.377 197.817C183.819 197.936 184.257 198.006 184.659 198.002L184.65 197.993Z" fill="#C9D6DE"/>
<path opacity="0.65" d="M224.252 213.318C224.252 213.318 224.275 213.318 224.283 213.318C224.292 213.318 224.306 213.318 224.314 213.318H224.345H224.376C229.855 212.907 235.259 212.598 240.593 212.4C240.907 212.386 241.154 212.329 241.331 212.232C241.508 212.135 241.614 211.998 241.65 211.839C241.685 211.676 241.65 211.486 241.539 211.275C241.428 211.067 241.252 210.833 240.991 210.599C236.595 206.509 232.491 202.308 228.701 198.015C228.48 197.772 228.219 197.53 227.919 197.313C227.622 197.093 227.291 196.894 226.946 196.718C226.601 196.546 226.247 196.4 225.898 196.29C225.548 196.179 225.203 196.109 224.885 196.091H224.854C224.854 196.091 224.832 196.091 224.823 196.091C224.823 196.091 224.801 196.091 224.792 196.091H224.761C219.317 195.937 213.794 195.893 208.195 195.95C207.868 195.954 207.603 196.012 207.399 196.118C207.196 196.223 207.063 196.374 206.997 196.559C206.931 196.744 206.935 196.965 207.019 197.207C207.094 197.45 207.258 197.715 207.483 197.993C211.379 202.639 215.598 207.193 220.127 211.632C220.383 211.883 220.688 212.117 221.02 212.325C221.356 212.532 221.719 212.722 222.09 212.872C222.461 213.022 222.842 213.141 223.209 213.22C223.576 213.295 223.93 213.335 224.248 213.326L224.252 213.318Z" fill="#C9D6DE"/>
<path opacity="0.5" d="M24.2737 134.537C24.2737 134.537 24.3179 134.528 24.34 134.537C24.3621 134.546 24.3975 134.515 24.4063 134.537C24.4152 134.515 24.4506 134.528 24.4727 134.533H24.539C35.5725 133.522 46.429 132.688 57.1176 132.009C57.7499 131.973 58.3381 131.788 58.8467 131.484C59.3552 131.17 59.8019 130.764 60.1601 130.257C60.5183 129.754 60.7659 129.154 60.9384 128.514C61.1064 127.87 61.1374 127.164 61.071 126.431C59.7532 113.865 59.3508 101.443 59.7974 89.2869C59.8328 88.5853 59.7223 87.919 59.5409 87.3057C59.3331 86.7012 59.0633 86.1364 58.6919 85.6686C58.3293 85.1965 57.8693 84.8214 57.3696 84.5302C56.8566 84.2611 56.2995 84.0713 55.6936 84.0448C55.6759 84.036 55.6538 84.0448 55.6317 84.0448C55.6096 84.0448 55.5698 84.0448 55.5698 84.0448C55.5698 84.0448 55.5079 84.0228 55.5079 84.0448C55.4902 84.036 55.446 84.0448 55.446 84.0448C44.6557 84.0669 33.6798 84.2831 22.5269 84.6449C21.8768 84.667 21.2444 84.8347 20.6696 85.1391C20.0858 85.426 19.5552 85.854 19.1129 86.3746C18.6574 86.8865 18.2948 87.4998 18.0295 88.1705C17.7774 88.8456 17.6094 89.5737 17.5873 90.3371C17.2202 103.138 17.7686 116.199 19.1925 129.41C19.281 130.151 19.4623 130.861 19.7763 131.479C20.077 132.106 20.4661 132.662 20.926 133.129C21.3904 133.588 21.9122 133.959 22.4782 134.206C23.0443 134.453 23.6501 134.581 24.2693 134.564L24.2737 134.537Z" fill="#EEF7FC"/>
<path opacity="0.65" d="M264.948 229.975H264.993C264.993 229.975 265.024 229.975 265.037 229.971H265.081L265.125 229.962C272.48 229.282 279.741 228.753 286.914 228.36C287.338 228.338 287.661 228.263 287.878 228.144C288.099 228.029 288.214 227.87 288.231 227.685C288.245 227.5 288.165 227.283 287.975 227.05C287.785 226.816 287.497 226.56 287.104 226.295C280.364 221.763 273.952 217.055 267.894 212.193C267.544 211.915 267.129 211.646 266.678 211.398C266.222 211.151 265.736 210.926 265.236 210.728C264.732 210.538 264.223 210.37 263.732 210.251C263.237 210.132 262.759 210.061 262.326 210.035C262.313 210.035 262.282 210.035 262.282 210.035H262.238H262.193H262.149C254.799 209.947 247.352 210 239.804 210.203C239.361 210.211 239.016 210.291 238.769 210.419C238.521 210.547 238.375 210.728 238.322 210.948C238.278 211.169 238.327 211.425 238.486 211.707C238.645 211.99 238.91 212.299 239.282 212.616C245.508 217.964 252.106 223.149 259.054 228.153C259.447 228.435 259.903 228.7 260.394 228.929C260.884 229.163 261.415 229.353 261.941 229.525C262.472 229.684 263.007 229.816 263.516 229.891C264.024 229.966 264.511 230.002 264.94 229.975H264.948Z" fill="#C9D6DE"/>
<path opacity="0.75" d="M305.413 238.491H305.453C305.466 238.491 305.493 238.491 305.493 238.491H305.532L305.572 238.482C311.825 237.785 318.012 237.221 324.123 236.779C324.486 236.748 324.751 236.695 324.928 236.612C325.105 236.532 325.194 236.417 325.185 236.289C325.185 236.162 325.087 236.016 324.897 235.857C324.712 235.698 324.437 235.531 324.07 235.358C317.795 232.398 311.75 229.265 305.952 225.982C305.616 225.792 305.232 225.611 304.812 225.448C304.391 225.28 303.945 225.13 303.494 225.002C303.043 224.874 302.583 224.768 302.145 224.689C301.707 224.614 301.291 224.565 300.92 224.557H300.88H300.84H300.77C294.486 224.583 288.118 224.742 281.67 225.024C281.294 225.042 281.007 225.104 280.812 225.196C280.617 225.294 280.507 225.426 280.494 225.585C280.48 225.744 280.556 225.925 280.724 226.127C280.896 226.326 281.157 226.542 281.511 226.763C287.472 230.465 293.703 234.004 300.177 237.371C300.54 237.565 300.96 237.732 301.406 237.887C301.853 238.041 302.322 238.169 302.795 238.266C303.264 238.372 303.737 238.438 304.184 238.478C304.63 238.518 305.046 238.527 305.413 238.496V238.491Z" fill="#5DA6DB"/>
<path opacity="0.69" d="M162.37 198.333H162.406L162.441 198.329C162.454 198.329 162.463 198.329 162.477 198.329H162.512C168.694 197.663 174.792 197.12 180.807 196.683C181.16 196.657 181.448 196.568 181.665 196.423C181.881 196.282 182.023 196.087 182.094 195.858C182.164 195.628 182.155 195.359 182.076 195.064C181.987 194.772 181.828 194.455 181.585 194.124C177.415 188.489 173.634 182.762 170.26 176.981C170.065 176.65 169.813 176.333 169.526 176.046C169.238 175.755 168.906 175.494 168.557 175.269C168.208 175.044 167.836 174.868 167.465 174.731C167.093 174.603 166.722 174.519 166.368 174.506H166.333C166.333 174.506 166.306 174.506 166.293 174.506C166.28 174.506 166.253 174.506 166.253 174.506H166.213C160.084 174.576 153.866 174.74 147.556 175.022C147.184 175.04 146.875 175.128 146.627 175.278C146.38 175.428 146.198 175.635 146.092 175.891C145.986 176.147 145.946 176.443 145.99 176.769C146.03 177.096 146.145 177.453 146.362 177.815C149.838 183.975 153.743 190.078 158.054 196.083C158.298 196.423 158.598 196.74 158.939 197.023C159.275 197.31 159.651 197.557 160.044 197.755C160.433 197.958 160.836 198.122 161.234 198.214C161.627 198.316 162.017 198.355 162.375 198.342L162.37 198.333Z" fill="#C9D6DE"/>
<path opacity="0.6" d="M62.0967 155.973C62.0967 155.973 62.1276 155.973 62.1453 155.973H62.194C62.194 155.973 62.2249 155.964 62.2382 155.964H62.2868C69.9417 155.1 77.486 154.372 84.9154 153.749C85.3532 153.714 85.7423 153.582 86.0607 153.37C86.3791 153.154 86.6489 152.871 86.8302 152.523C87.0248 152.183 87.1221 151.773 87.1619 151.336C87.1884 150.894 87.1221 150.427 86.9938 149.928C84.4908 141.487 82.576 133.059 81.267 124.715C81.1786 124.234 81.0371 123.775 80.8204 123.356C80.6081 122.937 80.3384 122.557 80.0067 122.244C79.6927 121.922 79.3257 121.666 78.9321 121.481C78.5429 121.291 78.1228 121.181 77.6983 121.172C77.685 121.172 77.6541 121.172 77.6541 121.172C77.6408 121.167 77.6098 121.172 77.6098 121.172C77.5966 121.172 77.5656 121.172 77.5656 121.172C77.5524 121.167 77.5214 121.172 77.5214 121.172C69.9948 121.348 62.3443 121.64 54.5745 122.046C54.119 122.068 53.6989 122.196 53.3362 122.416C52.9736 122.632 52.6641 122.932 52.4076 123.29C52.1599 123.652 51.9874 124.075 51.8813 124.539C51.8017 125.006 51.7796 125.505 51.8548 126.03C53.2699 134.815 55.2687 143.689 57.9 152.567C58.0592 153.065 58.2759 153.538 58.5633 153.957C58.8552 154.372 59.2001 154.742 59.5716 155.051C59.9475 155.36 60.3631 155.603 60.7965 155.753C61.2255 155.916 61.6677 155.987 62.1011 155.964L62.0967 155.973Z" fill="#C9D6DE"/>
<path opacity="0.55" d="M202.777 220.647C202.777 220.647 202.808 220.647 202.826 220.643C202.826 220.643 202.857 220.634 202.874 220.638H202.923L202.972 220.625C211.445 219.557 219.807 218.666 228.063 217.925C228.55 217.876 228.93 217.761 229.2 217.58C229.47 217.399 229.624 217.157 229.682 216.87C229.735 216.583 229.669 216.252 229.492 215.895C229.324 215.533 229.023 215.158 228.621 214.756C221.669 207.961 215.177 200.989 209.181 193.881C208.831 193.475 208.411 193.082 207.942 192.729C207.469 192.376 206.956 192.059 206.421 191.785C205.882 191.52 205.333 191.295 204.789 191.141C204.245 190.991 203.715 190.898 203.219 190.885C203.202 190.885 203.166 190.885 203.166 190.885H203.113C203.113 190.885 203.078 190.88 203.06 190.885C203.06 190.885 203.025 190.885 203.007 190.885C194.561 191.105 185.995 191.485 177.314 192.023C176.805 192.054 176.39 192.169 176.089 192.376C175.775 192.562 175.572 192.84 175.483 193.162C175.39 193.484 175.399 193.859 175.536 194.265C175.66 194.675 175.917 195.112 176.279 195.571C182.453 203.204 189.143 210.692 196.316 218.004C196.723 218.419 197.205 218.798 197.731 219.134C198.262 219.469 198.833 219.76 199.412 219.998C199.996 220.232 200.584 220.426 201.159 220.528C201.729 220.634 202.277 220.678 202.773 220.647H202.777Z" fill="#5DA6DB"/>
<path opacity="0.67" d="M244.429 232.601L244.474 232.596C244.491 232.596 244.518 232.592 244.518 232.592C244.531 232.592 244.549 232.592 244.562 232.587C244.575 232.583 244.593 232.587 244.606 232.583C251.85 231.542 259.005 230.65 266.072 229.887C266.492 229.847 266.806 229.741 267.022 229.6C267.239 229.459 267.35 229.274 267.359 229.062C267.372 228.846 267.279 228.603 267.084 228.343C266.894 228.082 266.593 227.804 266.2 227.517C259.39 222.62 252.916 217.541 246.804 212.308C246.45 212.012 246.039 211.725 245.588 211.465C245.137 211.204 244.65 210.975 244.151 210.781C243.655 210.582 243.147 210.432 242.656 210.322C242.165 210.216 241.696 210.154 241.267 210.154C241.267 210.154 241.236 210.154 241.223 210.154C241.223 210.154 241.192 210.154 241.179 210.154H241.135C241.135 210.154 241.104 210.154 241.09 210.154C233.829 210.463 226.475 210.918 219.024 211.505C218.59 211.544 218.25 211.641 218.011 211.796C217.768 211.95 217.631 212.162 217.586 212.409C217.547 212.656 217.604 212.943 217.768 213.252C217.931 213.561 218.197 213.892 218.573 214.231C224.865 219.915 231.534 225.439 238.557 230.778C238.95 231.083 239.414 231.352 239.905 231.595C240.396 231.837 240.922 232.045 241.453 232.204C241.984 232.362 242.514 232.482 243.023 232.552C243.527 232.627 244.009 232.632 244.429 232.596V232.601Z" fill="#5DA6DB"/>
<path opacity="0.68" d="M286.502 243.195C286.502 243.195 286.533 243.195 286.547 243.191H286.591L286.635 243.177C286.653 243.177 286.666 243.177 286.679 243.173C294.263 241.937 301.763 240.852 309.175 239.912C309.617 239.864 309.94 239.758 310.148 239.625C310.356 239.488 310.458 239.325 310.44 239.135C310.427 238.946 310.294 238.738 310.06 238.509C309.825 238.284 309.476 238.046 309.02 237.812C301.189 233.73 293.653 229.441 286.427 224.958C286.011 224.698 285.529 224.46 285.012 224.243C284.495 224.023 283.942 223.833 283.385 223.674C282.827 223.515 282.266 223.387 281.731 223.303C281.196 223.22 280.687 223.18 280.232 223.189C280.232 223.189 280.201 223.189 280.187 223.189H280.143H280.099H280.055C272.413 223.652 264.679 224.265 256.851 225.033C256.391 225.077 256.046 225.179 255.812 225.329C255.578 225.479 255.454 225.673 255.441 225.898C255.427 226.123 255.529 226.383 255.746 226.657C255.958 226.935 256.29 227.226 256.732 227.522C264.174 232.481 271.949 237.251 280.033 241.796C280.488 242.052 281.01 242.282 281.563 242.48C282.115 242.674 282.699 242.838 283.279 242.966C283.858 243.093 284.442 243.173 284.986 243.217C285.534 243.252 286.047 243.252 286.489 243.195H286.502Z" fill="#C9D6DE"/>
<path opacity="0.79" d="M36.7084 158.744C36.7084 158.744 36.7393 158.748 36.7526 158.744C36.7526 158.744 36.7791 158.735 36.7968 158.739C36.8101 158.735 36.8278 158.739 36.841 158.735C36.8543 158.735 36.8676 158.731 36.8808 158.731C44.3411 157.601 51.6909 156.573 58.9345 155.677C59.3634 155.629 59.7305 155.47 60.0489 155.249C60.354 155.015 60.6061 154.715 60.7874 154.362C60.9554 154 61.0616 153.59 61.0925 153.144C61.1014 152.699 61.0483 152.218 60.9112 151.724C58.3507 143.252 56.3829 134.784 54.9854 126.396C54.9102 125.91 54.7422 125.46 54.5299 125.046C54.3044 124.64 54.0347 124.269 53.7207 123.956C53.3979 123.656 53.0441 123.395 52.6593 123.228C52.279 123.051 51.8633 122.967 51.4476 122.963C51.4344 122.963 51.4034 122.963 51.4034 122.963C51.3902 122.963 51.3769 122.963 51.3636 122.963C51.3504 122.972 51.3194 122.963 51.3194 122.963C51.3194 122.963 51.2929 122.963 51.2796 122.963C43.9299 123.444 36.4651 124.04 28.881 124.754C28.4388 124.798 28.0275 124.935 27.6782 125.169C27.3155 125.385 27.0237 125.712 26.7849 126.083C26.5417 126.453 26.378 126.89 26.2896 127.362C26.2277 127.839 26.1879 128.346 26.2852 128.867C27.7755 137.674 29.8628 146.561 32.5515 155.452C32.7151 155.951 32.9274 156.423 33.2192 156.833C33.489 157.257 33.8516 157.605 34.2231 157.905C34.5945 158.206 35.0102 158.426 35.4303 158.572C35.8549 158.704 36.2882 158.775 36.7128 158.739L36.7084 158.744Z" fill="#C9D6DE"/>
<path opacity="0.75" d="M180.821 218.467H180.856L180.892 218.458C180.905 218.458 180.923 218.454 180.923 218.454H180.958C186.415 217.509 191.81 216.68 197.13 215.939C197.44 215.894 197.683 215.793 197.855 215.661C198.023 215.519 198.129 215.347 198.156 215.144C198.187 214.941 198.138 214.708 198.019 214.456C197.904 214.204 197.705 213.944 197.44 213.666C192.854 209.015 188.573 204.25 184.624 199.392C184.39 199.118 184.124 198.845 183.815 198.611C183.505 198.377 183.173 198.161 182.824 197.989C182.475 197.812 182.117 197.675 181.763 197.583C181.409 197.49 181.064 197.441 180.75 197.45C180.741 197.455 180.728 197.45 180.715 197.45C180.715 197.45 180.693 197.45 180.679 197.45C180.679 197.45 180.657 197.45 180.644 197.45C180.635 197.45 180.613 197.45 180.613 197.45C175.16 197.869 169.633 198.386 164.03 198.999C163.702 199.034 163.441 199.136 163.242 199.277C163.043 199.418 162.915 199.617 162.862 199.842C162.8 200.067 162.814 200.332 162.906 200.614C162.986 200.901 163.163 201.196 163.402 201.51C167.479 206.69 171.901 211.773 176.633 216.742C176.903 217.02 177.217 217.28 177.562 217.505C177.907 217.73 178.278 217.924 178.654 218.074C179.034 218.229 179.419 218.335 179.786 218.405C180.157 218.467 180.507 218.489 180.83 218.449L180.821 218.467Z" fill="#18469E"/>
<path opacity="0.68" d="M223.601 235.805C223.601 235.805 223.627 235.8 223.641 235.8C223.641 235.8 223.667 235.796 223.681 235.796C223.694 235.796 223.72 235.787 223.72 235.787C223.72 235.787 223.747 235.787 223.76 235.778C230.668 234.455 237.496 233.259 244.244 232.195C244.642 232.134 244.943 232.019 245.142 231.856C245.345 231.697 245.442 231.494 245.447 231.26C245.447 231.03 245.354 230.77 245.164 230.492C244.974 230.214 244.677 229.927 244.288 229.632C237.628 224.584 231.304 219.359 225.33 213.981C224.981 213.676 224.578 213.385 224.14 213.125C223.698 212.869 223.229 212.635 222.747 212.449C222.265 212.264 221.775 212.118 221.306 212.021C220.833 211.929 220.382 211.885 219.97 211.902H219.93C219.93 211.902 219.9 211.902 219.891 211.902C219.877 211.902 219.864 211.902 219.851 211.902C219.851 211.902 219.824 211.902 219.811 211.902C212.873 212.56 205.841 213.341 198.721 214.259C198.306 214.311 197.987 214.439 197.757 214.607C197.532 214.784 197.399 215.009 197.364 215.273C197.333 215.538 197.386 215.838 197.554 216.16C197.718 216.482 197.983 216.822 198.35 217.171C204.506 222.964 211.037 228.59 217.91 234.044C218.299 234.349 218.745 234.635 219.227 234.869C219.705 235.112 220.218 235.306 220.731 235.469C221.244 235.624 221.757 235.739 222.248 235.792C222.734 235.853 223.199 235.853 223.605 235.792L223.601 235.805Z" fill="#18469E"/>
<path opacity="0.7" d="M73.9272 189.002C73.9272 189.002 73.967 189.006 73.9847 188.993C74.0024 188.993 74.0422 188.989 74.0422 188.989C74.0598 188.984 74.0952 188.98 74.0952 188.98C74.1129 188.98 74.1306 188.971 74.1527 188.971C83.2492 187.387 92.2175 185.971 101.058 184.687C101.579 184.616 102.013 184.422 102.362 184.153C102.698 183.87 102.95 183.513 103.105 183.094C103.251 182.67 103.313 182.185 103.242 181.664C103.171 181.143 103.025 180.579 102.729 180.009C97.8912 170.192 93.6459 160.321 90.117 150.432C89.8958 149.872 89.6217 149.329 89.2635 148.848C88.9141 148.363 88.4852 147.944 88.0252 147.582C87.5609 147.233 87.0656 146.946 86.5526 146.748C86.0397 146.558 85.5134 146.457 84.996 146.47C84.9783 146.47 84.9606 146.474 84.9429 146.47C84.9429 146.47 84.9076 146.47 84.8899 146.47C84.8766 146.479 84.8368 146.47 84.8368 146.47C84.8191 146.47 84.7837 146.47 84.7837 146.47C75.7757 147.242 66.6349 148.169 57.3571 149.232C56.8176 149.294 56.34 149.475 55.9508 149.762C55.5617 150.048 55.2654 150.432 55.031 150.869C54.8232 151.324 54.6816 151.84 54.6816 152.4C54.6816 152.961 54.7435 153.574 54.9868 154.187C58.6793 164.588 63.0662 174.975 68.1208 185.291C68.4082 185.869 68.7841 186.407 69.2175 186.884C69.6509 187.361 70.1417 187.78 70.6724 188.102C71.1898 188.437 71.7514 188.671 72.2998 188.839C72.8482 189.002 73.4054 189.055 73.9228 188.993L73.9272 189.002Z" fill="#EEF7FC"/>
<path opacity="0.62" d="M115.959 206.875C115.959 206.875 115.99 206.875 116.003 206.871C116.016 206.871 116.034 206.871 116.047 206.862C116.061 206.862 116.091 206.853 116.091 206.853C116.105 206.853 116.131 206.844 116.131 206.844C123.114 205.481 130.004 204.254 136.805 203.129C137.203 203.058 137.522 202.913 137.765 202.71C138.008 202.511 138.15 202.237 138.229 201.929C138.295 201.62 138.282 201.271 138.176 200.896C138.066 200.521 137.871 200.124 137.584 199.713C132.635 192.751 128.155 185.668 124.127 178.533C123.897 178.119 123.596 177.735 123.26 177.391C122.915 177.051 122.535 176.738 122.132 176.491C121.725 176.243 121.301 176.04 120.876 175.912C120.447 175.793 120.023 175.723 119.62 175.736C119.607 175.736 119.581 175.736 119.581 175.736C119.567 175.736 119.541 175.736 119.541 175.736C119.528 175.736 119.501 175.736 119.501 175.736C119.488 175.736 119.475 175.736 119.461 175.736C112.509 176.468 105.456 177.32 98.3009 178.278C97.8852 178.339 97.5358 178.481 97.2616 178.697C96.9919 178.913 96.7885 179.195 96.6735 179.531C96.5408 179.857 96.5231 180.25 96.585 180.66C96.6425 181.075 96.7885 181.516 97.045 181.962C101.211 189.503 105.872 196.964 110.993 204.32C111.285 204.735 111.629 205.123 112.032 205.45C112.421 205.789 112.863 206.063 113.31 206.297C113.757 206.526 114.221 206.698 114.672 206.791C115.123 206.897 115.565 206.928 115.968 206.862L115.959 206.875Z" fill="#C9D6DE"/>
<path opacity="0.71" d="M158.599 222.266C158.599 222.266 158.621 222.266 158.63 222.262H158.661L158.692 222.249C158.701 222.249 158.714 222.249 158.723 222.244C164.016 221.101 169.248 220.056 174.408 219.098C174.714 219.041 174.952 218.935 175.112 218.785C175.28 218.639 175.372 218.445 175.395 218.229C175.412 218.013 175.368 217.77 175.249 217.51C175.129 217.249 174.939 216.971 174.669 216.698C170.119 211.946 165.865 207.079 161.929 202.123C161.708 201.832 161.429 201.572 161.124 201.333C160.819 201.1 160.487 200.888 160.147 200.72C159.806 200.548 159.452 200.42 159.108 200.336C158.763 200.252 158.426 200.222 158.117 200.239C158.117 200.239 158.095 200.239 158.086 200.239H158.051C158.051 200.239 158.028 200.239 158.02 200.244H157.989C152.686 200.901 147.318 201.651 141.87 202.498C141.551 202.547 141.299 202.662 141.109 202.816C140.923 202.979 140.795 203.178 140.746 203.421C140.693 203.659 140.711 203.932 140.804 204.224C140.897 204.515 141.065 204.824 141.299 205.137C145.368 210.392 149.759 215.559 154.469 220.607C154.734 220.89 155.048 221.154 155.388 221.375C155.729 221.6 156.096 221.785 156.467 221.94C156.839 222.094 157.219 222.191 157.582 222.253C157.944 222.31 158.289 222.319 158.599 222.271V222.266Z" fill="#DBE2E6"/>
<path opacity="0.74" d="M203.52 245.418L203.577 245.41C203.577 245.41 203.617 245.401 203.635 245.396L203.692 245.383L203.746 245.37C213.262 243.111 222.673 241.037 231.973 239.131C232.517 239.016 232.928 238.826 233.198 238.57C233.463 238.314 233.6 238.001 233.596 237.648C233.587 237.295 233.454 236.898 233.175 236.487C232.897 236.073 232.494 235.627 231.937 235.203C222.544 227.768 213.607 220.104 205.169 212.219C204.692 211.76 204.121 211.345 203.507 210.974C202.892 210.604 202.233 210.286 201.565 210.026C200.893 209.779 200.212 209.576 199.562 209.452C198.908 209.337 198.284 209.293 197.718 209.342C197.7 209.346 197.678 209.346 197.656 209.346C197.638 209.346 197.616 209.355 197.594 209.355C197.594 209.355 197.554 209.359 197.537 209.364C197.519 209.364 197.479 209.373 197.479 209.373C187.905 210.745 178.207 212.285 168.385 214.001C167.81 214.107 167.364 214.297 167.059 214.571C166.749 214.844 166.577 215.193 166.532 215.59C166.497 215.987 166.594 216.433 166.824 216.914C167.059 217.39 167.43 217.898 167.952 218.392C176.659 226.815 185.88 235.022 195.582 242.983C196.13 243.433 196.763 243.834 197.431 244.178C198.103 244.523 198.815 244.814 199.531 245.026C200.248 245.237 200.964 245.374 201.641 245.454C202.317 245.511 202.958 245.511 203.516 245.405L203.52 245.418Z" fill="#DBE1E5"/>
<path opacity="0.51" d="M245.736 248.914C245.736 248.914 245.758 248.909 245.771 248.905C245.771 248.905 245.793 248.901 245.806 248.896L245.842 248.887L245.873 248.878C251.338 247.466 256.742 246.152 262.093 244.947C262.407 244.876 262.637 244.766 262.783 244.629C262.929 244.492 262.991 244.329 262.965 244.148C262.938 243.967 262.836 243.773 262.651 243.566C262.46 243.363 262.195 243.151 261.846 242.944C255.889 239.392 250.158 235.676 244.67 231.82C244.356 231.599 243.993 231.392 243.604 231.22C243.215 231.043 242.808 230.893 242.392 230.774C241.981 230.65 241.565 230.571 241.172 230.522C240.778 230.47 240.407 230.461 240.079 230.505H240.049L240.018 230.514H239.987L239.956 230.522C234.428 231.427 228.838 232.424 223.178 233.532C222.846 233.598 222.603 233.713 222.435 233.858C222.271 234.008 222.187 234.194 222.192 234.401C222.192 234.608 222.276 234.842 222.448 235.081C222.616 235.323 222.868 235.575 223.209 235.822C228.874 239.992 234.79 244.016 240.946 247.872C241.291 248.089 241.689 248.278 242.1 248.442C242.516 248.596 242.95 248.728 243.383 248.821C243.816 248.918 244.245 248.971 244.643 248.989C245.046 249.002 245.417 248.98 245.74 248.914H245.736Z" fill="#3C98CF"/>
<path opacity="0.79" d="M48.8081 195.08C48.8081 195.08 48.8479 195.08 48.8656 195.071C48.8833 195.071 48.9187 195.062 48.9187 195.062C48.9319 195.049 48.954 195.049 48.9762 195.054C48.9938 195.045 49.0115 195.045 49.0336 195.04C58.6122 192.997 68.0625 191.14 77.3801 189.401C77.9285 189.309 78.384 189.079 78.7422 188.766C79.1092 188.461 79.3613 188.047 79.5116 187.574C79.6576 187.102 79.7195 186.564 79.6399 185.99C79.5691 185.417 79.3657 184.812 79.0783 184.181C73.7804 173.543 69.2078 162.807 65.3295 152.067C65.0952 151.454 64.7856 150.871 64.4053 150.355C64.025 149.834 63.5695 149.384 63.0831 149.009C62.5966 148.634 62.0704 148.33 61.522 148.153C60.9825 147.95 60.4209 147.866 59.8725 147.906C59.8548 147.906 59.8327 147.91 59.815 147.906C59.815 147.906 59.7752 147.906 59.7575 147.91C59.7575 147.91 59.7177 147.915 59.7001 147.915L59.6426 147.924C50.1348 149.128 40.4855 150.487 30.6947 151.992C30.1242 152.085 29.6377 152.319 29.2132 152.623C28.8064 152.95 28.4703 153.369 28.258 153.872C28.0236 154.366 27.8998 154.944 27.9131 155.562C27.9042 156.18 28.0104 156.841 28.2624 157.508C32.322 168.773 37.0759 180.038 42.6081 191.188C42.8867 191.837 43.3201 192.402 43.7933 192.905C44.2576 193.417 44.7883 193.858 45.3499 194.198C45.916 194.542 46.5041 194.798 47.0923 194.957C47.6804 195.098 48.2686 195.16 48.8214 195.071L48.8081 195.08Z" fill="#EEF7FC"/>
<path opacity="0.75" d="M92.3726 209.849C92.3726 209.849 92.3991 209.84 92.4124 209.844C92.4124 209.844 92.4389 209.84 92.4522 209.835C92.4655 209.835 92.4876 209.827 92.4876 209.827C92.5009 209.827 92.5141 209.827 92.5274 209.818C98.6522 208.384 104.693 207.051 110.654 205.816C111.008 205.754 111.286 205.604 111.49 205.405C111.698 205.207 111.826 204.955 111.888 204.668C111.941 204.382 111.928 204.055 111.826 203.711C111.724 203.367 111.556 202.996 111.291 202.63C106.855 196.294 102.8 189.869 99.174 183.374C98.9617 183.003 98.7008 182.65 98.3957 182.346C98.095 182.032 97.7545 181.759 97.3918 181.547C97.0336 181.322 96.6533 181.159 96.2774 181.048C95.8971 180.951 95.5257 180.898 95.1719 180.925C95.1586 180.925 95.1365 180.925 95.1365 180.925C95.1277 180.934 95.1056 180.92 95.1011 180.925C95.0879 180.925 95.0746 180.925 95.0658 180.925C95.0658 180.925 95.0348 180.92 95.0304 180.929C88.9233 181.825 82.7366 182.831 76.457 183.943C76.09 184.005 75.7804 184.15 75.546 184.358C75.3028 184.561 75.1348 184.83 75.0375 185.143C74.9446 185.456 74.9181 185.809 74.9756 186.184C75.0375 186.564 75.179 186.961 75.3957 187.371C79.159 194.198 83.3513 200.958 87.9592 207.616C88.2201 207.991 88.5385 208.331 88.8879 208.631C89.2417 208.922 89.6264 209.182 90.0244 209.381C90.4268 209.571 90.8293 209.73 91.2317 209.805C91.6297 209.888 92.0233 209.906 92.377 209.84L92.3726 209.849Z" fill="#18469E"/>
<path opacity="0.6" d="M136.42 233.769L136.469 233.761C136.469 233.761 136.5 233.752 136.518 233.752C136.527 233.739 136.566 233.739 136.566 233.739C136.584 233.739 136.597 233.725 136.611 233.73C144.787 231.629 152.867 229.666 160.844 227.843C161.318 227.742 161.671 227.539 161.928 227.287C162.175 227.027 162.317 226.714 162.348 226.352C162.379 225.99 162.295 225.589 162.1 225.165C161.901 224.741 161.596 224.296 161.176 223.846C153.972 216.177 147.25 208.318 141.02 200.327C140.67 199.859 140.232 199.436 139.755 199.065C139.277 198.69 138.76 198.368 138.225 198.103C137.69 197.847 137.137 197.653 136.606 197.521C136.071 197.393 135.549 197.353 135.072 197.41C135.072 197.41 135.032 197.41 135.019 197.415C135.001 197.415 134.983 197.415 134.965 197.419L134.917 197.428C134.917 197.428 134.881 197.428 134.868 197.437C126.665 198.8 118.356 200.336 109.931 201.995C109.44 202.088 109.051 202.291 108.759 202.56C108.476 202.833 108.299 203.178 108.211 203.57C108.145 203.967 108.176 204.413 108.322 204.89C108.467 205.366 108.724 205.874 109.118 206.368C115.556 214.809 122.521 223.096 129.973 231.206C130.397 231.66 130.888 232.075 131.419 232.432C131.954 232.79 132.529 233.085 133.108 233.315C133.687 233.544 134.28 233.708 134.842 233.783C135.403 233.871 135.938 233.844 136.42 233.769Z" fill="#C9D6DE"/>
<path opacity="0.75" d="M181.816 248.989L181.869 248.976L181.922 248.962L181.97 248.949L182.023 248.936C190.337 246.619 198.554 244.44 206.677 242.405C207.155 242.286 207.513 242.097 207.743 241.845C207.977 241.598 208.088 241.294 208.075 240.958C208.061 240.618 207.933 240.248 207.681 239.859C207.438 239.467 207.062 239.065 206.567 238.668C198.16 231.807 190.165 224.729 182.616 217.457C182.187 217.034 181.67 216.659 181.126 216.319C180.577 215.983 179.994 215.697 179.401 215.467C178.808 215.238 178.207 215.088 177.632 214.977C177.057 214.885 176.504 214.858 176.014 214.929C176.014 214.929 175.978 214.929 175.961 214.938C175.961 214.938 175.925 214.942 175.907 214.946L175.854 214.955L175.801 214.964C167.421 216.535 158.939 218.269 150.351 220.149C149.852 220.264 149.471 220.467 149.202 220.727C148.932 220.992 148.782 221.327 148.759 221.702C148.737 222.081 148.817 222.505 149.042 222.942C149.246 223.392 149.604 223.846 150.068 224.31C157.869 232.027 166.121 239.559 174.811 246.862C175.297 247.277 175.859 247.647 176.46 247.948C177.053 248.265 177.685 248.512 178.322 248.702C178.95 248.905 179.582 249.011 180.179 249.064C180.776 249.112 181.338 249.095 181.824 248.98L181.816 248.989Z" fill="#3C98CF"/>
<path opacity="0.69" d="M23.0403 202.749C23.0403 202.749 23.0889 202.754 23.1022 202.736C23.1243 202.736 23.1464 202.718 23.1641 202.723C23.1641 202.723 23.2083 202.714 23.226 202.709C23.2393 202.692 23.2791 202.709 23.2879 202.696C33.5652 200.181 43.6877 197.767 53.6775 195.539C54.2656 195.411 54.7476 195.138 55.1324 194.78C55.5127 194.414 55.7824 193.955 55.9416 193.421C56.061 192.878 56.1406 192.287 56.0566 191.652C55.9814 191.012 55.7471 190.346 55.4242 189.648C49.5913 177.947 44.5279 166.139 40.1764 154.331C39.942 153.647 39.5794 153.016 39.1549 152.46C38.7436 151.895 38.2527 151.401 37.7088 151.008C37.1826 150.602 36.6032 150.293 36.0107 150.112C35.4225 149.91 34.8167 149.843 34.2329 149.901C34.2152 149.901 34.1754 149.905 34.1754 149.905C34.1666 149.923 34.1356 149.909 34.118 149.909C34.118 149.909 34.0782 149.909 34.056 149.918C34.0384 149.918 34.0162 149.932 33.9985 149.927C23.8009 151.63 13.4485 153.453 2.95008 155.469C2.33097 155.571 1.8003 155.849 1.3625 156.219C0.933548 156.599 0.584192 157.08 0.349814 157.636C0.111014 158.196 -0.00838662 158.84 0.000457835 159.52C-0.00838662 160.204 0.141969 160.928 0.407303 161.669C4.94893 174.024 10.2512 186.366 16.3229 198.606C16.6546 199.303 17.0968 199.943 17.6186 200.481C18.1227 201.037 18.7109 201.487 19.3079 201.871C19.9226 202.229 20.5506 202.506 21.1829 202.661C21.8109 202.829 22.4477 202.868 23.0358 202.74L23.0403 202.749Z" fill="#EDEDED"/>
<path opacity="0.65" d="M113.134 234.895L113.17 234.886L113.205 234.877C113.218 234.877 113.227 234.868 113.24 234.868C113.249 234.86 113.271 234.868 113.276 234.855C119.188 233.108 125.021 231.444 130.788 229.904C131.124 229.803 131.385 229.657 131.562 229.459C131.738 229.256 131.84 229.009 131.853 228.731C131.871 228.453 131.809 228.144 131.659 227.822C131.513 227.5 131.292 227.155 130.973 226.824C125.649 221.066 120.674 215.175 116.062 209.179C115.796 208.83 115.474 208.521 115.129 208.239C114.779 207.961 114.394 207.732 114.005 207.533C113.612 207.348 113.209 207.211 112.82 207.127C112.427 207.052 112.046 207.034 111.701 207.079C111.701 207.079 111.679 207.083 111.666 207.083C111.653 207.083 111.631 207.087 111.631 207.087C111.617 207.087 111.608 207.092 111.595 207.092C111.586 207.092 111.56 207.096 111.56 207.096C105.63 208.349 99.6154 209.686 93.526 211.134C93.1722 211.222 92.8892 211.381 92.6814 211.588C92.4779 211.804 92.3497 212.069 92.2966 212.374C92.2436 212.678 92.2745 213.018 92.3895 213.375C92.5089 213.733 92.7035 214.108 92.9821 214.487C97.7713 220.784 102.919 226.983 108.424 233.05C108.747 233.381 109.097 233.704 109.49 233.964C109.875 234.233 110.3 234.445 110.724 234.608C111.149 234.776 111.578 234.886 111.984 234.935C112.396 234.988 112.785 234.979 113.13 234.895H113.134Z" fill="#3C98CF"/>
<path opacity="0.64" d="M160.846 258.596C160.846 258.596 160.89 258.596 160.904 258.578L160.961 258.565L161.014 258.547C161.032 258.539 161.072 258.53 161.072 258.53C170.681 255.45 180.184 252.533 189.573 249.789C190.126 249.625 190.532 249.378 190.793 249.06C191.054 248.743 191.169 248.363 191.152 247.944C191.138 247.525 190.97 247.062 190.661 246.585C190.36 246.109 189.918 245.61 189.334 245.133C179.38 236.811 169.92 228.229 160.979 219.422C160.461 218.914 159.86 218.455 159.219 218.054C158.577 217.652 157.883 217.33 157.189 217.052C156.495 216.792 155.791 216.611 155.119 216.505C154.447 216.417 153.806 216.395 153.231 216.501C153.213 216.501 153.173 216.509 153.173 216.509C153.156 216.518 153.134 216.518 153.116 216.518C153.116 216.518 153.081 216.527 153.058 216.532C153.058 216.532 153.019 216.532 153.001 216.545C143.299 218.786 133.477 221.209 123.536 223.799C122.952 223.94 122.501 224.2 122.2 224.545C121.904 224.893 121.74 225.299 121.705 225.762C121.687 226.23 121.802 226.746 122.063 227.289C122.346 227.819 122.731 228.392 123.284 228.944C132.522 238.259 142.295 247.348 152.607 256.138C153.178 256.646 153.863 257.056 154.558 257.444C155.27 257.797 156.004 258.106 156.747 258.331C157.485 258.552 158.228 258.684 158.922 258.737C159.621 258.772 160.267 258.728 160.842 258.591L160.846 258.596Z" fill="#C9D6DE"/>
<path opacity="0.79" d="M48.1387 219.755L48.1962 219.742C48.1962 219.742 48.2315 219.737 48.2492 219.728C48.2713 219.728 48.2846 219.715 48.3067 219.715C48.3156 219.697 48.3421 219.702 48.3598 219.697C57.244 216.953 66.0177 214.372 74.672 211.918C75.1806 211.773 75.5698 211.512 75.8749 211.19C76.1623 210.855 76.3436 210.444 76.4188 209.981C76.4851 209.518 76.4365 209.002 76.2861 208.459C76.1137 207.92 75.8351 207.356 75.4503 206.773C68.6755 197.048 62.5021 187.164 56.9256 177.187C56.6117 176.609 56.2048 176.08 55.7449 175.625C55.3027 175.149 54.7809 174.761 54.2413 174.447C53.7107 174.125 53.1491 173.891 52.5963 173.763C52.0435 173.622 51.4907 173.596 50.9733 173.675C50.96 173.684 50.9379 173.684 50.9202 173.684C50.907 173.693 50.8849 173.684 50.8672 173.693C50.8495 173.693 50.8318 173.702 50.8141 173.702C50.8141 173.702 50.7787 173.715 50.7655 173.71C41.8812 175.714 32.8643 177.832 23.7368 180.139C23.1973 180.254 22.7728 180.541 22.419 180.876C22.0873 181.234 21.8353 181.657 21.7114 182.156C21.6053 182.659 21.5478 183.215 21.6628 183.802C21.7557 184.393 21.99 185.011 22.3305 185.637C28.1413 196.064 34.5315 206.42 41.5849 216.578C41.9829 217.147 42.4605 217.663 42.9868 218.113C43.5174 218.555 44.0923 218.921 44.6805 219.212C45.2731 219.49 45.8745 219.702 46.4626 219.786C47.0508 219.87 47.6124 219.861 48.1342 219.755H48.1387Z" fill="#18469E"/>
<path opacity="0.64" d="M138.875 266.087C138.875 266.087 138.924 266.087 138.933 266.069C138.95 266.056 138.972 266.056 138.99 266.051C138.99 266.051 139.034 266.042 139.047 266.029C139.047 266.029 139.092 266.025 139.105 266.007C148.573 262.614 157.926 259.38 167.168 256.3C167.708 256.114 168.11 255.845 168.362 255.505C168.623 255.174 168.738 254.768 168.699 254.323C168.672 253.882 168.482 253.409 168.186 252.906C167.863 252.421 167.434 251.892 166.837 251.402C156.816 242.864 147.264 234.087 138.26 225.055C137.738 224.538 137.141 224.071 136.505 223.665C135.859 223.263 135.174 222.937 134.484 222.668C133.794 222.407 133.095 222.231 132.427 222.147C131.76 222.059 131.123 222.067 130.561 222.187L130.499 222.2C130.499 222.2 130.46 222.209 130.437 222.213C130.437 222.213 130.398 222.222 130.38 222.226C130.38 222.226 130.34 222.24 130.322 222.244C120.762 224.856 111.081 227.61 101.282 230.539C100.707 230.712 100.273 230.99 99.9727 231.347C99.6764 231.704 99.526 232.146 99.5039 232.631C99.5039 233.121 99.61 233.659 99.8842 234.211C100.158 234.767 100.57 235.336 101.122 235.909C110.453 245.401 120.306 254.676 130.681 263.664C131.269 264.167 131.923 264.626 132.631 264.992C133.334 265.367 134.077 265.659 134.811 265.879C135.549 266.1 136.284 266.219 136.969 266.263C137.659 266.285 138.3 266.241 138.862 266.078L138.875 266.087Z" fill="#D1DBE1"/>
<path opacity="0.77" d="M71.2766 243.502L71.3208 243.489C71.3341 243.489 71.3473 243.471 71.365 243.476C71.3783 243.476 71.396 243.467 71.4048 243.463C71.4181 243.463 71.4314 243.449 71.4491 243.449C78.6794 240.784 85.8213 238.234 92.8748 235.807C93.2904 235.661 93.6088 235.445 93.8123 235.158C94.0201 234.871 94.1307 234.536 94.1395 234.157C94.1572 233.782 94.0511 233.367 93.8609 232.934C93.6619 232.506 93.37 232.061 92.972 231.624C86.1707 224.131 79.7938 216.48 73.8547 208.696C73.5275 208.238 73.1074 207.84 72.6652 207.492C72.2274 207.134 71.7453 206.843 71.2545 206.618C70.7725 206.376 70.2639 206.221 69.7819 206.146C69.2954 206.071 68.8311 206.058 68.4021 206.155C68.3933 206.168 68.3579 206.164 68.3579 206.164C68.3402 206.164 68.3137 206.177 68.3137 206.177C68.296 206.177 68.2827 206.186 68.2695 206.19C68.2651 206.203 68.2253 206.203 68.2253 206.203C60.9463 208.282 53.5744 210.475 46.1097 212.796C45.6719 212.932 45.3225 213.158 45.0793 213.458C44.8228 213.744 44.6769 214.119 44.6327 214.53C44.584 214.94 44.6238 215.395 44.7874 215.867C44.929 216.343 45.1943 216.838 45.5702 217.319C51.7171 225.46 58.3327 233.459 65.3773 241.292C65.793 241.72 66.2397 242.121 66.735 242.457C67.2258 242.792 67.7609 243.057 68.2916 243.255C68.8178 243.463 69.3573 243.582 69.8659 243.621C70.3745 243.67 70.8521 243.626 71.281 243.507L71.2766 243.502Z" fill="#C9D6DE"/>
<path opacity="0.58" d="M116.093 272.446C116.093 272.446 116.133 272.446 116.142 272.428C116.142 272.428 116.177 272.42 116.19 272.411L116.239 272.393L116.288 272.376C124.783 269.009 133.181 265.796 141.472 262.708C141.963 262.536 142.317 262.262 142.542 261.94C142.781 261.627 142.865 261.23 142.825 260.81C142.799 260.391 142.631 259.937 142.339 259.473C142.047 259.01 141.64 258.525 141.096 258.07C131.902 250.123 123.146 241.947 114.85 233.576C114.377 233.087 113.82 232.659 113.236 232.288C112.648 231.922 112.025 231.608 111.392 231.383C110.764 231.15 110.127 230.995 109.526 230.929C108.925 230.863 108.35 230.894 107.841 231.008C107.828 231.022 107.806 231.017 107.788 231.022C107.77 231.022 107.757 231.039 107.735 231.035C107.726 231.048 107.686 231.048 107.686 231.048C107.669 231.048 107.651 231.061 107.638 231.061C99.0409 233.74 90.338 236.542 81.5289 239.516C81.0203 239.697 80.6223 239.957 80.3614 240.301C80.0872 240.636 79.9678 241.06 79.959 241.523C79.959 241.982 80.074 242.49 80.326 243.01C80.5914 243.527 80.9584 244.074 81.4714 244.594C90.0372 253.402 99.1161 261.958 108.633 270.302C109.172 270.774 109.782 271.18 110.424 271.524C111.061 271.873 111.737 272.15 112.414 272.327C113.086 272.517 113.754 272.609 114.377 272.654C115.001 272.662 115.589 272.623 116.089 272.446H116.093Z" fill="#EFF5F9"/>
<path opacity="0.63" d="M47.7152 258.897C47.7152 258.897 47.7594 258.892 47.7771 258.874C47.7771 258.852 47.8169 258.866 47.8346 258.852C47.8567 258.848 47.8744 258.844 47.8921 258.83C47.9097 258.822 47.9319 258.813 47.9495 258.808C57.506 254.969 66.9386 251.281 76.2562 247.746C76.8002 247.53 77.2291 247.23 77.49 246.824C77.7731 246.436 77.8969 245.955 77.9057 245.434C77.8969 244.913 77.7598 244.353 77.5077 243.762C77.2247 243.184 76.8444 242.561 76.296 241.979C67.0978 231.861 58.4789 221.505 50.4658 210.955C49.997 210.35 49.4487 209.812 48.8605 209.331C48.2591 208.872 47.6223 208.47 46.9678 208.17C46.3133 207.87 45.6456 207.645 44.9955 207.57C44.3543 207.456 43.7219 207.473 43.1603 207.628C43.1426 207.628 43.1205 207.645 43.1028 207.641C43.0851 207.641 43.063 207.654 43.0453 207.654C43.0276 207.654 43.0055 207.654 42.9878 207.672L42.9303 207.689C33.3075 210.787 23.5433 213.995 13.6729 217.41C13.098 217.622 12.6469 217.935 12.3241 218.35C12.0189 218.778 11.8111 219.272 11.7492 219.833C11.6563 220.393 11.758 221.02 11.9791 221.664C12.1914 222.308 12.5187 222.996 13.0449 223.632C21.3543 234.637 30.3004 245.434 39.8303 255.993C40.3522 256.606 40.989 257.118 41.6567 257.56C42.3245 257.992 43.0232 258.371 43.7396 258.614C44.4427 258.888 45.1635 259.024 45.8357 259.086C46.5079 259.157 47.1491 259.077 47.7107 258.897H47.7152Z" fill="#C9D6DE"/>
<defs>
<linearGradient id="paint0_linear_2025_764" x1="97.3926" y1="128.684" x2="139.029" y2="126.161" gradientUnits="userSpaceOnUse">
<stop stop-color="#20377A"/>
<stop offset="1" stop-color="#2C85C5"/>
</linearGradient>
<linearGradient id="paint1_linear_2025_764" x1="134.893" y1="157.663" x2="166.256" y2="155.359" gradientUnits="userSpaceOnUse">
<stop stop-color="#20377A"/>
<stop offset="1" stop-color="#2C85C5"/>
</linearGradient>
</defs>
</svg>
