<svg width="517" height="424" viewBox="0 0 517 424" fill="none" xmlns="http://www.w3.org/2000/svg">
<g clip-path="url(#clip0_2012_761)">
<path opacity="0.6" d="M182.591 97.5304C182.591 97.5304 182.671 97.5004 182.701 97.4804C182.741 97.4804 182.811 97.4304 182.811 97.4304C182.851 97.4104 182.901 97.4104 182.931 97.3804C182.961 97.3604 183.041 97.3304 183.041 97.3304C201.361 88.8104 219.441 80.5604 237.341 72.6704C238.391 72.1904 239.161 71.5604 239.621 70.7704C240.081 69.9804 240.301 69.0604 240.151 68.0704C240.091 67.0704 239.691 65.9904 238.981 64.9304C238.301 63.8604 237.371 62.7504 236.161 61.6904C215.481 43.5904 195.801 24.9204 177.131 5.81042C176.041 4.72042 174.841 3.71042 173.521 2.91042C172.221 2.07042 170.831 1.41042 169.441 0.930423C168.041 0.460423 166.651 0.170423 165.341 0.0304232C164.021 -0.0695768 162.781 0.0504232 161.671 0.370423L161.561 0.410423C161.561 0.410423 161.491 0.450423 161.451 0.450423C161.411 0.450423 161.381 0.470423 161.341 0.490423C161.331 0.530423 161.231 0.490423 161.231 0.530423C142.661 7.62042 123.861 15.0004 104.851 22.7604C103.741 23.2104 102.871 23.8604 102.361 24.7104C101.851 25.5704 101.561 26.5304 101.561 27.6204C101.601 28.7004 101.891 29.8704 102.461 31.0804C103.061 32.2804 103.881 33.5504 105.061 34.7004C124.361 54.6804 144.801 74.1004 166.181 93.0204C167.411 94.0604 168.741 95.0204 170.171 95.7704C171.601 96.5204 173.091 97.1204 174.571 97.5204C176.041 97.9504 177.511 98.1004 178.881 98.1504C180.241 98.1404 181.511 97.9604 182.591 97.5504V97.5304Z" fill="#C9D6DE"/>
<path opacity="0.76" d="M247.09 139.151L247.17 139.111C247.2 139.101 247.23 139.081 247.26 139.071C247.28 139.061 247.33 139.061 247.34 139.031C247.34 139.031 247.39 138.991 247.42 138.991C261.56 131.481 275.56 124.231 289.39 117.211C290.21 116.811 290.79 116.271 291.08 115.631C291.4 115.011 291.47 114.291 291.3 113.541C291.14 112.781 290.73 111.991 290.11 111.201C289.48 110.421 288.63 109.641 287.58 108.871C269.43 96.0914 252.01 82.7614 235.22 69.0714C234.26 68.2814 233.19 67.5714 232.05 67.0314C230.92 66.4614 229.74 66.0314 228.57 65.7214C227.4 65.4214 226.25 65.2414 225.17 65.2414C224.09 65.2114 223.11 65.4014 222.24 65.6914C222.22 65.7214 222.18 65.7114 222.15 65.7214C222.13 65.7414 222.09 65.7514 222.06 65.7614C222.06 65.7614 222 65.8014 221.97 65.8014C221.97 65.8314 221.91 65.8314 221.88 65.8414C207.46 72.2814 192.85 78.9114 178.09 85.8414C177.23 86.2614 176.58 86.8014 176.23 87.4814C175.83 88.1314 175.78 88.9214 175.83 89.7514C175.97 90.5814 176.29 91.4614 176.86 92.3614C177.45 93.2414 178.24 94.1614 179.29 95.0114C196.63 109.341 214.73 123.161 233.46 136.581C234.53 137.321 235.67 138.001 236.9 138.471C238.11 138.961 239.36 139.351 240.59 139.571C241.82 139.781 243.02 139.861 244.12 139.821C245.22 139.741 246.23 139.541 247.08 139.161L247.09 139.151Z" fill="#C9D6DE"/>
<path opacity="0.61" d="M125.46 108.489C125.46 108.489 125.51 108.459 125.54 108.459C125.54 108.429 125.59 108.439 125.62 108.429C125.62 108.429 125.7 108.429 125.7 108.399C125.73 108.399 125.75 108.379 125.77 108.359C138.75 101.879 151.58 95.6392 164.27 89.6092C165.02 89.2592 165.55 88.7692 165.87 88.1792C166.17 87.5792 166.29 86.9192 166.22 86.1892C166.1 85.4692 165.84 84.6792 165.36 83.8892C164.88 83.0992 164.18 82.3192 163.32 81.5392C148.36 68.4192 134.1 54.9092 120.59 41.0492C119.81 40.2692 118.92 39.5592 117.99 38.9692C117.05 38.3892 116.04 37.9392 115.06 37.5692C114.06 37.2292 113.07 37.0492 112.13 36.9592C111.19 36.8992 110.29 36.9692 109.52 37.2592L109.44 37.2892C109.44 37.2892 109.37 37.2892 109.36 37.3192C109.36 37.3192 109.3 37.3192 109.28 37.3492C109.28 37.3492 109.22 37.3592 109.2 37.3792C96.0202 42.8292 82.6802 48.5192 69.1802 54.4392C68.3802 54.7592 67.8102 55.2992 67.4202 55.9092C67.0302 56.5192 66.8402 57.2592 66.8802 58.0492C66.8902 58.8492 67.1102 59.7092 67.5602 60.5792C68.0002 61.4492 68.6102 62.3692 69.4602 63.2092C83.4602 77.6292 98.1802 91.7292 113.68 105.359C114.56 106.119 115.54 106.789 116.56 107.329C117.59 107.869 118.67 108.269 119.73 108.559C120.79 108.839 121.84 108.949 122.82 108.969C123.8 108.979 124.69 108.769 125.48 108.479L125.46 108.489Z" fill="#3C98CF"/>
<path opacity="0.61" d="M440.601 198.48C440.601 198.48 440.671 198.45 440.701 198.42L440.801 198.37C440.801 198.37 440.871 198.34 440.891 198.32C440.931 198.32 440.981 198.26 440.981 198.26C457.171 188.02 473.171 178.04 489.051 168.4C489.971 167.82 490.561 167.16 490.851 166.44C491.141 165.72 491.111 164.93 490.771 164.15C490.441 163.36 489.811 162.56 488.921 161.79C488.001 161.05 486.851 160.29 485.411 159.64C460.921 148.45 436.941 136.68 413.571 124.3C412.231 123.58 410.761 122.97 409.251 122.56C407.741 122.12 406.191 121.83 404.691 121.65C403.181 121.51 401.721 121.44 400.381 121.62C399.041 121.74 397.831 122.07 396.821 122.53C396.821 122.57 396.711 122.58 396.711 122.58C396.681 122.61 396.631 122.6 396.601 122.63C396.601 122.63 396.511 122.65 396.501 122.68C396.471 122.7 396.411 122.7 396.401 122.73C379.741 131.77 362.901 141.08 345.891 150.73C344.891 151.29 344.211 151.98 343.891 152.77C343.531 153.54 343.551 154.41 343.821 155.3C344.121 156.18 344.681 157.12 345.591 157.99C346.471 158.88 347.641 159.75 349.091 160.51C373.271 173.51 398.031 185.95 423.391 197.69C424.791 198.4 426.361 198.89 427.941 199.24C429.511 199.61 431.121 199.84 432.671 199.89C434.221 199.97 435.721 199.91 437.061 199.64C438.411 199.41 439.611 199 440.601 198.48Z" fill="#5DA6DB"/>
<path opacity="0.56" d="M317.61 182.69C317.61 182.69 317.68 182.67 317.7 182.65C317.73 182.63 317.78 182.63 317.79 182.6C317.82 182.6 317.85 182.57 317.87 182.55C317.88 182.52 317.92 182.51 317.95 182.5C331.37 174.5 344.64 166.73 357.77 159.19C358.55 158.76 359.05 158.2 359.31 157.58C359.56 156.96 359.57 156.29 359.35 155.59C359.12 154.89 358.64 154.19 357.98 153.46C357.3 152.75 356.36 152.11 355.28 151.42C336.23 140.53 317.72 129.14 299.8 117.28C298.75 116.62 297.63 116.02 296.45 115.56C295.28 115.09 294.05 114.78 292.87 114.55C291.68 114.34 290.52 114.28 289.44 114.32C288.36 114.39 287.38 114.59 286.55 114.94C286.53 114.96 286.49 114.97 286.47 114.98C286.45 115 286.42 115 286.39 115.02L286.31 115.06C286.31 115.06 286.23 115.06 286.23 115.1C272.47 122.08 258.58 129.34 244.54 136.85C243.7 137.26 243.17 137.86 242.84 138.51C242.54 139.17 242.48 139.9 242.65 140.69C242.85 141.46 243.22 142.32 243.91 143.09C244.52 143.93 245.43 144.72 246.55 145.43C265.08 157.84 284.25 169.71 303.92 181.14C305.05 181.75 306.24 182.31 307.49 182.7C308.73 183.1 310 183.41 311.24 183.5C312.47 183.65 313.67 183.62 314.76 183.5C315.84 183.33 316.82 183.09 317.64 182.68L317.61 182.69Z" fill="#3C98CF"/>
<path opacity="0.75" d="M196.03 166.69L196.12 166.65C196.14 166.62 196.18 166.62 196.21 166.6C196.24 166.58 196.26 166.55 196.3 166.55C196.31 166.52 196.39 166.5 196.39 166.5C210.61 158.5 224.66 150.73 238.58 143.25C239.4 142.82 239.95 142.23 240.26 141.57C240.57 140.91 240.65 140.16 240.45 139.38C240.25 138.6 239.86 137.77 239.21 136.94C238.6 136.09 237.68 135.32 236.61 134.53C218.04 121.36 200.12 107.71 182.93 93.6C181.93 92.81 180.84 92.08 179.68 91.51C178.52 90.94 177.32 90.48 176.13 90.19C174.94 89.9 173.77 89.74 172.67 89.74C171.58 89.77 170.57 89.93 169.7 90.26C169.7 90.26 169.64 90.28 169.61 90.29C169.58 90.29 169.55 90.31 169.52 90.33C169.49 90.33 169.47 90.36 169.44 90.37C169.42 90.4 169.36 90.41 169.36 90.41C154.84 97.32 140.17 104.56 125.31 111.96C124.45 112.42 123.83 113 123.45 113.69C123.09 114.4 122.98 115.2 123.08 116.07C123.22 116.94 123.57 117.86 124.16 118.78C124.74 119.71 125.58 120.64 126.65 121.5C144.43 136.22 162.97 150.43 182.19 164.14C183.25 164.95 184.47 165.57 185.71 166.07C186.95 166.57 188.22 166.94 189.47 167.18C190.71 167.41 191.93 167.51 193.05 167.4C194.17 167.32 195.18 167.08 196.04 166.67L196.03 166.69Z" fill="url(#paint0_linear_2012_761)"/>
<path opacity="0.67" d="M469.87 255.881C469.87 255.881 469.93 255.841 469.96 255.821C470 255.821 470.05 255.761 470.05 255.761C470.08 255.731 470.11 255.711 470.14 255.701C470.17 255.691 470.19 255.661 470.22 255.641C485.2 244.611 499.96 233.771 514.64 223.291C515.52 222.681 516.06 221.991 516.24 221.251C516.48 220.531 516.37 219.761 515.97 219.021C515.57 218.281 514.92 217.521 513.97 216.861C513.04 216.161 511.83 215.541 510.37 215.031C485.53 205.911 461.1 196.221 437.13 185.911C435.75 185.301 434.26 184.861 432.74 184.541C431.22 184.271 429.69 184.031 428.2 183.991C426.72 183.941 425.28 184.021 423.99 184.281C422.7 184.501 421.56 184.941 420.6 185.431C420.57 185.461 420.53 185.461 420.5 185.491C420.5 185.491 420.44 185.561 420.4 185.551C420.39 185.591 420.31 185.571 420.3 185.611C420.3 185.651 420.21 185.671 420.21 185.671C404.76 195.711 389.12 205.971 373.34 216.531C372.4 217.141 371.85 217.881 371.56 218.651C371.31 219.431 371.36 220.261 371.72 221.101C372.06 221.941 372.73 222.791 373.69 223.571C374.63 224.361 375.87 225.091 377.34 225.751C402.1 236.571 427.34 246.791 453.02 256.341C454.47 256.881 456.02 257.241 457.58 257.521C459.15 257.761 460.73 257.831 462.24 257.811C463.75 257.771 465.2 257.601 466.5 257.261C467.79 256.911 468.96 256.501 469.85 255.881H469.87Z" fill="#C9D6DE"/>
<path opacity="0.74" d="M147.751 206.381C147.751 206.381 147.831 206.351 147.861 206.321C147.891 206.301 147.931 206.271 147.971 206.261C147.991 206.221 148.061 206.231 148.081 206.201C148.101 206.161 148.151 206.161 148.191 206.141C166.121 195.471 183.891 185.181 201.431 175.141C202.461 174.551 203.121 173.781 203.531 172.931C203.891 172.051 203.971 171.091 203.721 170.061C203.411 169.051 202.981 167.921 202.101 166.891C201.331 165.781 200.181 164.721 198.761 163.781C174.881 146.851 151.851 129.291 129.731 111.141C128.471 110.081 127.011 109.251 125.561 108.471C124.081 107.761 122.541 107.221 121.031 106.811C119.501 106.481 118.021 106.281 116.631 106.281C115.241 106.351 113.951 106.551 112.851 107.011C112.821 107.031 112.741 107.061 112.741 107.061C112.701 107.081 112.631 107.111 112.631 107.111C112.601 107.131 112.561 107.151 112.521 107.161C112.501 107.201 112.441 107.181 112.411 107.211C94.0909 116.551 75.5409 126.191 56.7809 136.151C55.6709 136.711 54.9209 137.521 54.4509 138.441C54.0109 139.371 53.8709 140.421 54.0209 141.551C54.1409 142.681 54.7109 143.851 55.4409 145.071C56.2509 146.241 57.3309 147.421 58.6509 148.581C81.5609 167.421 105.361 185.721 130.081 203.291C131.441 204.331 133.001 205.101 134.581 205.761C136.161 206.391 137.781 206.951 139.381 207.151C140.951 207.481 142.511 207.501 143.931 207.391C145.341 207.211 146.661 206.981 147.711 206.401L147.751 206.381Z" fill="#3C98CF"/>
<path opacity="0.6" d="M437.249 302.099L437.379 302.009C437.379 302.009 437.459 301.919 437.509 301.919C437.559 301.899 437.589 301.849 437.639 301.819C437.679 301.859 437.719 301.759 437.769 301.729C458.409 285.789 478.839 270.199 499.079 255.019C500.269 254.139 500.999 253.139 501.249 252.089C501.599 251.069 501.309 249.989 500.819 248.889C500.229 247.839 499.269 246.809 497.969 245.799C496.639 244.829 494.949 243.929 492.909 243.179C457.919 230.229 423.499 216.439 389.739 201.759C387.789 200.919 385.679 200.329 383.559 199.819C381.419 199.389 379.259 199.179 377.189 199.069C375.099 199.039 373.099 199.149 371.299 199.529C369.489 199.849 367.839 200.389 366.569 201.219C366.549 201.169 366.479 201.279 366.439 201.299C366.399 201.339 366.309 201.379 366.309 201.379C366.259 201.379 366.179 201.459 366.179 201.459C366.149 201.489 366.059 201.539 366.059 201.539C344.649 216.029 323.109 231.009 301.289 246.319C300.059 247.269 299.189 248.249 298.879 249.379C298.479 250.479 298.649 251.689 299.169 252.889C299.719 254.079 300.649 255.279 301.979 256.419C303.269 257.599 305.039 258.619 307.139 259.519C342.029 274.839 377.579 289.299 413.729 302.849C415.759 303.639 417.939 304.189 420.139 304.509C422.349 304.749 424.549 304.989 426.669 304.909C428.779 304.909 430.819 304.609 432.609 304.089C434.399 303.569 436.009 302.969 437.259 302.109L437.249 302.099Z" fill="#18469E"/>
</g>
<path opacity="0.67" d="M179.242 417.081C179.242 417.081 179.305 417.047 179.337 417.029C179.377 417.033 179.432 416.978 179.432 416.978C179.465 416.95 179.496 416.933 179.527 416.926C179.558 416.919 179.58 416.89 179.612 416.873C195.516 407.223 211.184 397.742 226.74 388.613C227.671 388.084 228.27 387.445 228.515 386.724C228.818 386.028 228.777 385.251 228.445 384.478C228.113 383.706 227.533 382.891 226.646 382.149C225.782 381.369 224.632 380.643 223.223 380.005C199.295 368.706 175.827 356.877 152.871 344.47C151.551 343.74 150.106 343.169 148.621 342.714C147.131 342.31 145.629 341.935 144.148 341.762C142.678 341.58 141.237 341.531 139.929 341.675C138.625 341.779 137.45 342.116 136.45 342.518C136.417 342.546 136.378 342.542 136.345 342.569C136.345 342.569 136.279 342.634 136.24 342.62C136.227 342.659 136.149 342.632 136.135 342.671C136.132 342.711 136.04 342.723 136.04 342.723C119.756 351.345 103.264 360.17 86.6052 369.281C85.6145 369.804 85.0008 370.492 84.6432 371.233C84.3247 371.988 84.3005 372.819 84.5842 373.688C84.8479 374.555 85.4394 375.461 86.3261 376.324C87.1919 377.194 88.3619 378.032 89.7671 378.821C113.464 391.805 137.692 404.235 162.418 416.037C163.814 416.704 165.326 417.201 166.855 417.619C168.397 417.998 169.965 418.208 171.47 418.323C172.978 418.418 174.437 418.378 175.762 418.155C177.078 417.921 178.28 417.617 179.222 417.079L179.242 417.081Z" fill="#C9D6DE"/>
<g clip-path="url(#clip1_2012_761)">
<path opacity="0.54" d="M335.65 319.31C335.65 319.31 335.74 319.26 335.78 319.23C335.78 319.23 335.87 319.18 335.91 319.15C335.91 319.15 335.99 319.08 336.03 319.06C336.03 319.06 336.12 319.01 336.16 318.97C356.77 304.59 377.12 290.51 397.32 276.87C398.49 276.04 399.3 275.14 399.58 274.11C399.91 273.09 399.79 272.03 399.36 270.92C398.91 269.83 398.06 268.71 396.83 267.68C395.66 266.59 394.07 265.6 392.15 264.76C359.67 249.66 327.9 233.71 296.88 217.02C295.12 216 293.14 215.31 291.17 214.69C289.18 214.1 287.15 213.71 285.18 213.52C283.21 213.33 281.31 213.38 279.57 213.58C277.84 213.83 276.27 214.26 274.98 214.93C274.94 214.95 274.89 214.97 274.85 215C274.83 215.04 274.77 215.05 274.72 215.07C274.72 215.12 274.64 215.13 274.59 215.14C274.55 215.17 274.47 215.21 274.47 215.21C253.24 228.17 231.75 241.46 210.08 255.2C208.8 255.99 207.93 256.96 207.59 258.07C207.15 259.14 207.26 260.33 207.62 261.56C208.11 262.75 208.86 264.02 210.04 265.23C211.25 266.42 212.79 267.61 214.72 268.64C246.75 286.13 279.64 302.7 313.2 318.48C315.07 319.43 317.13 320.1 319.2 320.54C321.26 321.08 323.37 321.33 325.39 321.36C327.41 321.5 329.35 321.28 331.09 320.95C332.83 320.57 334.41 320.08 335.64 319.29L335.65 319.31Z" fill="#3C98CF"/>
<path opacity="0.52" d="M199.81 295.621C199.81 295.621 199.87 295.591 199.9 295.571C199.9 295.571 199.96 295.541 199.98 295.521L200.07 295.461C200.07 295.461 200.12 295.411 200.15 295.411C214.73 285.771 229.17 276.411 243.44 267.291C244.29 266.761 244.83 266.101 245.09 265.371C245.36 264.651 245.33 263.851 245.06 263.031C244.77 262.221 244.24 261.381 243.47 260.551C242.68 259.751 241.65 258.971 240.41 258.221C218.89 245.851 197.98 232.881 177.72 219.371C176.55 218.601 175.29 217.901 173.95 217.431C172.66 216.861 171.28 216.491 169.95 216.331C168.63 216.081 167.34 216.071 166.15 216.141C164.97 216.271 163.89 216.501 162.99 216.941C162.95 216.941 162.89 216.991 162.89 216.991C162.86 217.001 162.82 217.021 162.79 217.041C162.77 217.071 162.73 217.081 162.7 217.091C162.7 217.091 162.62 217.111 162.61 217.141C147.63 225.711 132.48 234.551 117.19 243.701C116.3 244.241 115.68 244.921 115.37 245.691C115.03 246.461 114.97 247.341 115.23 248.241C115.46 249.151 115.92 250.121 116.71 251.021C117.44 251.971 118.46 252.881 119.73 253.691C140.7 267.701 162.3 281.211 184.54 294.081C185.78 294.841 187.16 295.421 188.55 295.841C189.95 296.241 191.36 296.551 192.73 296.701C194.1 296.861 195.43 296.831 196.64 296.631C197.84 296.451 198.92 296.121 199.8 295.611L199.81 295.621Z" fill="#C9D6DE"/>
<path opacity="0.67" d="M67.3992 272.641C67.3992 272.641 67.4692 272.631 67.4792 272.601C67.4992 272.621 67.5592 272.591 67.5592 272.561C67.5892 272.551 67.6092 272.531 67.6292 272.521C67.6292 272.491 67.6792 272.481 67.6992 272.481C80.3592 264.571 92.9192 256.941 105.299 249.471C106.029 249.031 106.499 248.461 106.769 247.831C107.019 247.191 107.089 246.481 106.879 245.731C106.699 244.981 106.299 244.201 105.689 243.431C105.089 242.661 104.279 241.891 103.269 241.191C86.1392 229.021 69.5792 216.441 53.6592 203.441C52.7492 202.681 51.7292 202.041 50.6692 201.531C49.6192 201.001 48.5192 200.591 47.4292 200.361C46.3592 200.051 45.2792 199.961 44.2992 200.021C43.3092 200.071 42.3892 200.221 41.6292 200.581C41.6292 200.581 41.5692 200.591 41.5492 200.621C41.5192 200.631 41.4992 200.661 41.4692 200.661C41.4392 200.671 41.4192 200.691 41.3892 200.701C41.3892 200.731 41.3092 200.741 41.3092 200.741C28.3692 207.741 15.2592 214.941 1.97922 222.351C1.21922 222.821 0.679221 223.381 0.339221 224.041C0.00922054 224.711 -0.0707795 225.491 0.0592205 226.311C0.149221 227.141 0.539221 227.991 1.09922 228.861C1.66922 229.721 2.41922 230.601 3.42922 231.391C19.8892 244.901 37.0292 257.951 54.7692 270.551C55.7792 271.241 56.8692 271.861 58.0092 272.311C59.1392 272.771 60.3192 273.051 61.4392 273.281C62.5792 273.461 63.6792 273.501 64.6992 273.411C65.7092 273.281 66.6392 273.071 67.3992 272.661V272.641Z" fill="#C9D6DE"/>
</g>
<defs>
<linearGradient id="paint0_linear_2012_761" x1="123.755" y1="112.889" x2="233.042" y2="103.716" gradientUnits="userSpaceOnUse">
<stop stop-color="#20377A"/>
<stop offset="1" stop-color="#2C85C5"/>
</linearGradient>
<clipPath id="clip0_2012_761">
<rect width="462.38" height="304.91" fill="white" transform="translate(54)"/>
</clipPath>
<clipPath id="clip1_2012_761">
<rect width="399.77" height="121.42" fill="white" transform="translate(0 200)"/>
</clipPath>
</defs>
</svg>
