<svg width="838" height="597" viewBox="0 0 838 597" fill="none" xmlns="http://www.w3.org/2000/svg">
<g clip-path="url(#clip0_464_13649)">
<path opacity="0.59" d="M588.626 230.679L588.699 230.733L588.772 230.788L588.845 230.842L588.917 230.897C602.107 239.879 614.897 249.224 627.249 258.916C627.987 259.489 628.66 259.971 629.252 260.345C629.844 260.718 630.354 260.982 630.763 261.127C631.164 261.273 631.464 261.309 631.637 261.218C631.81 261.127 631.855 260.909 631.746 260.554C630.017 254.63 629.225 248.888 629.425 243.582C629.443 243.282 629.316 242.873 629.097 242.381C628.879 241.89 628.542 241.326 628.123 240.707C627.714 240.088 627.213 239.433 626.649 238.769C626.084 238.104 625.465 237.422 624.792 236.767L624.728 236.703L624.664 236.639L624.601 236.575L624.528 236.512C612.794 225.355 600.587 214.535 587.907 204.07C587.179 203.47 586.46 202.969 585.804 202.587C585.149 202.205 584.539 201.941 584.011 201.813C583.492 201.677 583.046 201.668 582.727 201.795C582.409 201.923 582.209 202.177 582.154 202.578C581.317 209.312 581.526 216.537 582.764 223.972C582.837 224.4 583.055 224.9 583.383 225.455C583.72 226.001 584.166 226.602 584.694 227.202C585.222 227.803 585.841 228.422 586.496 229.022C587.161 229.614 587.88 230.187 588.608 230.706L588.626 230.679Z" fill="#EDEDED"/>
<path opacity="0.64" d="M504.507 184.888C504.507 184.888 504.553 184.915 504.58 184.924C504.58 184.924 504.626 184.952 504.653 184.961L504.726 184.997L504.798 185.033C517.879 190.948 530.632 197.182 543.058 203.698C543.795 204.089 544.487 204.353 545.097 204.507C545.707 204.662 546.244 204.699 546.681 204.626C547.118 204.553 547.454 204.371 547.673 204.08C547.891 203.798 547.973 203.397 547.919 202.897C546.972 194.406 547.036 186.125 548.119 178.29C548.173 177.835 548.101 177.326 547.919 176.771C547.737 176.216 547.436 175.633 547.045 175.051C546.653 174.459 546.171 173.877 545.616 173.322C545.06 172.767 544.423 172.248 543.75 171.775C543.722 171.775 543.677 171.729 543.677 171.729C543.649 171.72 543.631 171.684 543.604 171.684L543.531 171.638L543.458 171.593C531.351 163.867 518.881 156.423 506.046 149.289C505.299 148.879 504.571 148.579 503.888 148.424C503.205 148.26 502.568 148.224 502.013 148.306C501.458 148.388 500.984 148.588 500.638 148.906C500.283 149.225 500.065 149.662 499.965 150.199C498.581 159.226 498.208 168.717 498.918 178.445C498.954 179 499.136 179.592 499.446 180.183C499.737 180.784 500.165 181.384 500.675 181.967C501.185 182.549 501.767 183.104 502.423 183.605C503.069 184.105 503.77 184.551 504.498 184.906L504.507 184.888Z" fill="#EDEDED"/>
<path opacity="0.6" d="M614.26 282.85L614.369 282.895L614.479 282.95L614.588 282.995L614.697 283.041C634.323 291.531 653.521 300.522 672.282 309.968C673.392 310.523 674.339 310.951 675.085 311.242C675.841 311.533 676.405 311.697 676.76 311.724C677.115 311.751 677.261 311.642 677.179 311.397C677.097 311.151 676.797 310.76 676.241 310.232C666.829 301.259 658.473 292.177 651.245 283.059C650.835 282.54 650.244 281.922 649.515 281.239C648.787 280.557 647.932 279.81 646.994 279.037C646.056 278.273 645.037 277.481 643.99 276.716C642.943 275.952 641.86 275.215 640.804 274.542L640.686 274.469L640.576 274.396L640.458 274.323L640.349 274.25C621.943 262.884 603.027 251.992 583.638 241.6C582.509 240.999 581.517 240.553 580.68 240.271C579.842 239.989 579.169 239.871 578.686 239.907C578.204 239.943 577.912 240.134 577.84 240.489C577.767 240.835 577.922 241.345 578.322 241.991C585.149 252.993 593.214 263.995 602.445 274.869C602.973 275.488 603.692 276.18 604.547 276.88C605.403 277.59 606.395 278.318 607.46 279.037C608.525 279.756 609.672 280.447 610.819 281.094C611.975 281.74 613.131 282.331 614.251 282.832L614.26 282.85Z" fill="#C9D6DE"/>
<path opacity="0.64" d="M515.039 218.239L515.112 218.266L515.185 218.294L515.258 218.321C515.258 218.321 515.303 218.339 515.331 218.348C527.565 222.671 539.544 227.266 551.25 232.135C551.942 232.426 552.561 232.599 553.08 232.681C553.599 232.753 554.027 232.735 554.345 232.617C554.664 232.499 554.864 232.28 554.937 231.98C555.01 231.68 554.955 231.288 554.755 230.815C551.341 222.753 548.783 214.735 547.099 206.882C546.999 206.436 546.79 205.936 546.471 205.426C546.162 204.908 545.752 204.38 545.27 203.861C544.787 203.342 544.241 202.833 543.649 202.359C543.058 201.886 542.421 201.459 541.765 201.095L541.702 201.058L541.638 201.022L541.574 200.985L541.51 200.949C529.977 195.016 518.143 189.346 506.018 183.959C505.308 183.65 504.653 183.459 504.07 183.377C503.488 183.295 502.969 183.331 502.559 183.477C502.15 183.623 501.84 183.868 501.649 184.214C501.458 184.56 501.394 185.006 501.494 185.534C502.978 194.433 505.408 203.524 508.731 212.67C508.922 213.188 509.232 213.725 509.65 214.262C510.06 214.799 510.57 215.327 511.143 215.827C511.717 216.328 512.354 216.792 513.009 217.202C513.674 217.611 514.366 217.957 515.048 218.23L515.039 218.239Z" fill="#EEF7FC"/>
<path opacity="0.64" d="M577.448 263.521L577.511 263.548L577.575 263.576C577.575 263.576 577.621 263.594 577.639 263.603L577.703 263.63C588.863 267.443 599.786 271.529 610.491 275.87C611.128 276.125 611.665 276.297 612.102 276.388C612.539 276.479 612.867 276.489 613.076 276.425C613.286 276.361 613.377 276.216 613.34 275.997C613.304 275.779 613.131 275.488 612.83 275.124C607.624 268.945 603.072 262.693 599.203 256.441C598.985 256.086 598.657 255.686 598.257 255.258C597.856 254.84 597.374 254.394 596.837 253.957C596.309 253.52 595.726 253.083 595.134 252.683C594.534 252.273 593.915 251.9 593.305 251.582L593.241 251.555L593.177 251.518L593.114 251.482L593.05 251.454C582.463 246.122 571.613 241.035 560.516 236.221C559.87 235.948 559.306 235.766 558.823 235.684C558.341 235.602 557.949 235.611 557.667 235.711C557.385 235.812 557.203 236.003 557.157 236.276C557.112 236.549 557.185 236.904 557.403 237.331C561.126 244.575 565.596 251.828 570.766 259.007C571.058 259.417 571.467 259.845 571.95 260.281C572.432 260.709 572.987 261.146 573.597 261.546C574.198 261.956 574.844 262.338 575.5 262.684C576.155 263.03 576.81 263.321 577.448 263.557V263.521Z" fill="#EDEDED"/>
<path opacity="0.8" d="M361.017 147.441C361.017 147.441 361.081 147.45 361.118 147.468L361.218 147.496L361.318 147.523C361.318 147.523 361.391 147.532 361.418 147.55C379.187 151.318 396.6 155.458 413.668 159.926C414.679 160.199 415.625 160.254 416.472 160.163C417.318 160.072 418.065 159.79 418.675 159.38C419.285 158.962 419.758 158.406 420.077 157.724C420.395 157.041 420.523 156.241 420.477 155.34C419.53 139.906 419.977 124.773 421.87 110.195C421.97 109.357 421.888 108.493 421.651 107.638C421.415 106.782 421.023 105.936 420.468 105.171C419.931 104.389 419.276 103.661 418.493 103.051C417.737 102.414 416.845 101.914 415.898 101.541C415.862 101.541 415.798 101.504 415.798 101.504C415.798 101.504 415.735 101.468 415.698 101.468L415.598 101.431C415.598 101.431 415.525 101.422 415.498 101.395C398.53 95.5983 381.18 90.1201 363.457 85.0059C362.428 84.7056 361.418 84.6146 360.471 84.7056C359.525 84.7875 358.642 85.0696 357.877 85.4973C357.112 85.9341 356.457 86.5165 355.965 87.2263C355.474 87.9452 355.146 88.7915 355.028 89.7379C353.062 105.645 352.461 122.107 353.417 138.887C353.471 139.833 353.726 140.771 354.136 141.681C354.545 142.582 355.119 143.437 355.802 144.21C356.484 144.984 357.303 145.648 358.177 146.222C359.069 146.768 360.016 147.195 361.008 147.468L361.017 147.441Z" fill="#EDEDED"/>
<path opacity="0.51" d="M531.141 254.421L531.232 254.448L531.323 254.476L531.414 254.503L531.505 254.53C546.834 258.543 561.872 262.902 576.619 267.589C577.492 267.862 578.23 268.016 578.831 268.044C579.431 268.071 579.877 267.989 580.178 267.798C580.469 267.607 580.606 267.307 580.56 266.915C580.515 266.524 580.296 266.033 579.886 265.459C572.832 255.649 566.715 245.73 561.599 235.821C561.308 235.256 560.871 234.647 560.324 234.028C559.778 233.409 559.123 232.781 558.395 232.181C557.666 231.58 556.874 230.998 556.046 230.479C555.227 229.96 554.362 229.496 553.525 229.123L553.443 229.087L553.361 229.05L553.279 229.014L553.197 228.977C538.514 223.008 523.504 217.384 508.183 212.097C507.291 211.787 506.499 211.633 505.835 211.605C505.161 211.578 504.615 211.696 504.224 211.933C503.832 212.17 503.577 212.525 503.495 212.989C503.423 213.453 503.523 214.026 503.814 214.69C508.839 225.856 514.91 237.049 521.992 248.142C522.402 248.77 522.957 249.416 523.613 250.044C524.277 250.672 525.051 251.281 525.879 251.846C526.708 252.41 527.6 252.929 528.492 253.365C529.393 253.802 530.303 254.175 531.177 254.421H531.141Z" fill="#C9D6DE"/>
<path opacity="0.62" d="M715.764 334.965L715.855 334.992C715.855 334.992 715.91 335.01 715.947 335.019L716.038 335.047L716.129 335.074C731.085 339.788 745.795 344.866 760.232 350.298C761.087 350.617 761.77 350.89 762.28 351.072C762.781 351.263 763.108 351.39 763.245 351.454C763.381 351.518 763.327 351.509 763.081 351.418C762.835 351.336 762.398 351.172 761.752 350.935C750.81 346.849 740.433 342.518 730.638 337.995C730.074 337.749 729.382 337.422 728.609 337.049C727.835 336.685 726.97 336.266 726.069 335.838C725.168 335.411 724.239 334.965 723.32 334.519C722.4 334.082 721.49 333.645 720.653 333.245C720.625 333.245 720.562 333.199 720.562 333.199C720.562 333.199 720.507 333.163 720.471 333.154L720.38 333.108L720.289 333.063C705.861 326.211 691.123 319.704 676.094 313.589C675.22 313.234 674.501 312.961 673.955 312.788C673.409 312.615 673.027 312.533 672.826 312.533C672.626 312.533 672.608 312.633 672.79 312.815C672.972 312.997 673.345 313.261 673.919 313.616C683.677 319.577 694.081 325.319 705.114 330.806C705.733 331.115 706.507 331.461 707.344 331.825C708.191 332.189 709.128 332.562 710.084 332.935C711.049 333.309 712.032 333.682 712.997 334.018C713.962 334.364 714.9 334.673 715.764 334.956V334.965Z" fill="#C9D6DE"/>
<path opacity="0.73" d="M424.447 194.498L424.529 194.517C424.556 194.526 424.584 194.535 424.602 194.535C424.602 194.535 424.656 194.553 424.684 194.553C424.684 194.553 424.738 194.553 424.766 194.571C437.655 197.165 450.317 200.022 462.725 203.143C463.462 203.325 464.117 203.38 464.673 203.316C465.228 203.253 465.683 203.08 466.02 202.798C466.357 202.525 466.575 202.142 466.666 201.687C466.739 201.232 466.702 200.686 466.502 200.077C463.025 189.648 460.494 179.274 458.929 169.082C458.838 168.5 458.61 167.89 458.291 167.289C457.964 166.698 457.545 166.106 457.035 165.57C456.525 165.024 455.943 164.532 455.324 164.086C454.696 163.649 454.013 163.285 453.312 163.022C453.285 163.022 453.258 163.012 453.239 162.994C453.212 163.003 453.167 162.967 453.167 162.967C453.139 162.958 453.094 162.94 453.094 162.94C453.066 162.94 453.039 162.931 453.021 162.912C440.65 158.817 428.015 154.968 415.117 151.392C414.361 151.192 413.66 151.11 413.041 151.182C412.413 151.246 411.867 151.437 411.43 151.738C410.993 152.047 410.647 152.447 410.447 152.957C410.238 153.457 410.183 154.049 410.265 154.722C411.776 165.879 414.288 177.245 417.793 188.656C417.975 189.302 418.33 189.948 418.758 190.558C419.195 191.168 419.732 191.759 420.333 192.278C420.933 192.806 421.607 193.261 422.308 193.643C423.009 194.025 423.737 194.316 424.465 194.489L424.447 194.498Z" fill="#C9D6DE"/>
<path opacity="0.54" d="M790.235 357.106L790.335 357.134L790.435 357.161L790.535 357.188L790.635 357.215C807.858 362.339 824.807 367.89 841.474 373.832C842.458 374.196 843.231 374.505 843.787 374.769C844.342 375.033 844.67 375.261 844.788 375.425C844.906 375.588 844.788 375.698 844.442 375.734C844.096 375.779 843.523 375.734 842.703 375.625C828.794 373.686 815.386 371.457 802.487 368.964C801.75 368.818 800.849 368.591 799.865 368.308C798.882 368.026 797.799 367.681 796.698 367.298C795.587 366.916 794.458 366.479 793.339 366.061C792.237 365.606 791.154 365.178 790.162 364.732C790.162 364.732 790.098 364.696 790.062 364.687L789.962 364.641L789.861 364.596L789.761 364.55C773.003 356.906 755.917 349.699 738.521 342.919C737.511 342.519 736.701 342.21 736.109 341.955C735.508 341.718 735.126 341.536 734.971 341.454C734.807 341.372 734.871 341.363 735.162 341.436C735.454 341.527 735.982 341.673 736.746 341.928C749.718 346.114 763.263 350.027 777.363 353.603C778.164 353.812 779.12 354.049 780.167 354.331C781.214 354.586 782.342 354.913 783.498 355.223C784.655 355.541 785.838 355.85 786.985 356.178C788.132 356.478 789.233 356.797 790.226 357.106H790.235Z" fill="#C9D6DE"/>
<path opacity="0.51" d="M312.21 140.535L312.31 140.553C312.346 140.553 312.419 140.571 312.419 140.571C312.455 140.571 312.528 140.589 312.528 140.589L312.628 140.608C331.062 143.365 349.149 146.486 366.89 149.926C367.937 150.135 368.929 150.135 369.794 149.926C370.677 149.753 371.451 149.371 372.079 148.852C372.725 148.352 373.199 147.669 373.526 146.878C373.845 146.095 373.982 145.185 373.927 144.193C372.844 127.121 373.253 110.35 375.138 94.134C375.229 93.1967 375.165 92.2412 374.901 91.3312C374.646 90.4212 374.218 89.5476 373.663 88.7377C373.117 87.9278 372.416 87.1998 371.606 86.5992C370.832 85.9622 369.894 85.489 368.902 85.1887C368.902 85.1887 368.829 85.1705 368.793 85.1523L368.684 85.125C368.684 85.125 368.611 85.0977 368.574 85.0977C368.574 85.0977 368.502 85.0886 368.465 85.0704C350.751 80.3384 332.664 75.8976 314.221 71.8117C313.147 71.5842 312.1 71.566 311.117 71.7389C310.134 71.9209 309.233 72.294 308.432 72.8218C307.64 73.3496 306.976 74.0503 306.457 74.8693C305.965 75.6974 305.61 76.6438 305.501 77.6994C303.58 95.2169 303.143 113.299 304.281 131.69C304.336 132.727 304.618 133.746 305.046 134.711C305.474 135.675 306.084 136.567 306.794 137.368C307.522 138.151 308.35 138.851 309.269 139.397C310.189 139.934 311.172 140.353 312.21 140.544V140.535Z" fill="#EDEDED"/>
<path opacity="0.63" d="M673.354 329.505C673.354 329.505 673.445 329.532 673.491 329.541L673.627 329.578L673.764 329.605L673.9 329.632C697.449 335.193 720.616 341.29 743.391 347.933C744.748 348.324 745.822 348.615 746.614 348.761C747.406 348.924 747.906 348.952 748.125 348.888C748.334 348.815 748.252 348.633 747.861 348.342C747.47 348.042 746.769 347.641 745.749 347.132C728.436 338.35 712.087 329.177 696.767 319.632C695.884 319.095 694.801 318.467 693.581 317.802C692.352 317.156 690.996 316.456 689.585 315.764C688.174 315.063 686.699 314.381 685.243 313.735C683.786 313.089 682.357 312.479 681.019 311.96C681.019 311.96 680.919 311.924 680.873 311.906L680.728 311.851C680.682 311.833 680.591 311.796 680.591 311.796C680.545 311.778 680.445 311.742 680.445 311.742C657.57 303.033 634.248 294.861 610.49 287.254C609.116 286.808 607.978 286.535 607.113 286.407C606.248 286.28 605.647 286.307 605.329 286.48C605.01 286.653 604.983 286.963 605.265 287.408C605.547 287.845 606.13 288.419 607.031 289.11C622.415 300.722 638.918 311.969 656.478 322.798C657.47 323.408 658.681 324.063 660.028 324.7C661.375 325.346 662.85 325.983 664.37 326.584C665.89 327.194 667.465 327.749 668.994 328.258C670.523 328.759 672.007 329.187 673.363 329.532L673.354 329.505Z" fill="#C9D6DE"/>
<path opacity="0.58" d="M380.271 183.387H380.335L380.399 183.405C380.399 183.405 380.435 183.414 380.462 183.414H380.526C391.34 184.906 401.972 186.59 412.413 188.492C413.032 188.61 413.579 188.601 414.043 188.492C414.507 188.383 414.889 188.182 415.172 187.9C415.454 187.618 415.636 187.245 415.709 186.808C415.781 186.372 415.745 185.871 415.563 185.325C412.623 175.888 410.474 166.497 409.155 157.261C409.082 156.733 408.891 156.196 408.617 155.677C408.344 155.159 407.989 154.649 407.552 154.203C407.134 153.748 406.633 153.339 406.105 152.993C405.568 152.656 405.004 152.374 404.403 152.192C404.385 152.183 404.357 152.183 404.339 152.174C404.321 152.174 404.275 152.156 404.275 152.156C404.257 152.146 404.239 152.137 404.212 152.137L404.148 152.119C393.698 149.444 383.048 146.969 372.179 144.712C371.551 144.584 370.959 144.575 370.431 144.675C369.903 144.785 369.448 144.994 369.075 145.303C368.692 145.594 368.419 146.004 368.255 146.477C368.092 146.95 368.028 147.496 368.11 148.088C369.439 158.098 371.587 168.272 374.6 178.482C374.773 179.055 375.046 179.628 375.419 180.156C375.793 180.684 376.248 181.185 376.758 181.63C377.267 182.076 377.832 182.449 378.423 182.75C379.015 183.05 379.634 183.268 380.244 183.378L380.271 183.387Z" fill="#EEF7FC"/>
<path opacity="0.74" d="M265.53 132.426C265.53 132.426 265.593 132.426 265.63 132.444C265.63 132.444 265.703 132.444 265.73 132.453C265.766 132.453 265.83 132.462 265.83 132.462C265.83 132.462 265.903 132.48 265.93 132.471C282.798 134.054 299.374 135.893 315.65 138.077C316.615 138.195 317.507 138.131 318.308 137.886C319.118 137.658 319.819 137.239 320.392 136.684C320.948 136.12 321.412 135.456 321.703 134.673C321.994 133.891 322.122 132.999 322.049 132.034C320.939 115.518 321.184 99.2834 322.768 83.5222C322.832 82.6122 322.768 81.7113 322.532 80.8468C322.277 79.9914 321.903 79.1632 321.375 78.4352C320.866 77.689 320.201 77.0521 319.464 76.5243C318.717 75.9965 317.88 75.5961 316.97 75.3595C316.942 75.3413 316.879 75.3322 316.879 75.3322L316.788 75.314C316.788 75.314 316.715 75.3139 316.697 75.2957C316.697 75.2957 316.633 75.2866 316.606 75.2775C300.312 72.0015 283.699 68.953 266.758 66.2503C265.766 66.0956 264.801 66.1411 263.909 66.3777C263.008 66.6052 262.18 67.033 261.461 67.579C260.742 68.1432 260.132 68.8438 259.676 69.6628C259.212 70.4727 258.903 71.41 258.83 72.4201C257.255 89.3188 257.046 106.7 258.238 124.354C258.302 125.346 258.557 126.319 258.966 127.22C259.367 128.121 259.94 128.94 260.587 129.677C261.269 130.378 262.025 131.015 262.862 131.488C263.709 131.952 264.61 132.28 265.557 132.416L265.53 132.426Z" fill="#EDEDED"/>
<path opacity="0.61" d="M633.429 314.865H633.493L633.557 314.892H633.621C633.621 314.892 633.666 314.91 633.684 314.91C644.444 316.676 655.04 318.678 665.471 320.907C666.09 321.044 666.573 321.107 666.937 321.116C667.292 321.126 667.529 321.08 667.62 320.971C667.711 320.871 667.665 320.716 667.483 320.516C667.292 320.316 666.973 320.07 666.5 319.77C658.499 314.792 650.989 309.614 643.971 304.272C643.57 303.963 643.069 303.635 642.505 303.308C641.941 302.98 641.322 302.634 640.675 302.316C640.029 301.988 639.346 301.688 638.682 301.406C638.017 301.124 637.353 300.887 636.743 300.696C636.716 300.696 636.679 300.678 636.679 300.678C636.679 300.678 636.634 300.66 636.615 300.66L636.552 300.641C636.552 300.641 636.506 300.632 636.488 300.623C625.974 297.511 615.269 294.626 604.373 291.996C603.736 291.842 603.217 291.769 602.817 291.778C602.416 291.778 602.143 291.86 601.997 292.006C601.852 292.151 601.843 292.361 601.97 292.634C602.097 292.897 602.371 293.225 602.789 293.598C609.88 299.823 617.509 305.874 625.656 311.725C626.12 312.053 626.675 312.39 627.294 312.708C627.913 313.027 628.596 313.336 629.297 313.618C629.998 313.9 630.717 314.155 631.418 314.364C632.119 314.574 632.792 314.746 633.42 314.865H633.429Z" fill="#5DA6DB"/>
<path opacity="0.52" d="M709.576 340.87L709.64 340.88C709.64 340.88 709.685 340.88 709.703 340.889C709.703 340.889 709.749 340.889 709.767 340.898H709.831C721.191 342.59 732.388 344.529 743.42 346.713C744.076 346.849 744.585 346.922 744.949 346.967C745.314 347.004 745.523 346.995 745.587 346.958C745.641 346.904 745.559 346.822 745.314 346.694C745.068 346.567 744.676 346.394 744.112 346.194C734.627 342.645 725.542 338.868 716.885 334.864C716.385 334.637 715.793 334.382 715.129 334.109C714.464 333.845 713.745 333.572 713.008 333.29C712.27 333.026 711.515 332.744 710.768 332.498C710.031 332.253 709.312 332.025 708.656 331.834L708.584 331.816C708.584 331.816 708.538 331.798 708.511 331.798L708.438 331.78C708.438 331.78 708.392 331.761 708.365 331.761C697.178 328.622 685.799 325.728 674.248 323.107C673.583 322.953 673.046 322.871 672.655 322.852C672.263 322.825 671.999 322.862 671.908 322.971C671.808 323.071 671.854 323.226 672.063 323.426C672.272 323.626 672.627 323.881 673.146 324.181C681.94 329.131 691.206 333.863 700.901 338.35C701.447 338.595 702.093 338.859 702.803 339.114C703.513 339.369 704.278 339.615 705.061 339.842C705.844 340.07 706.636 340.27 707.4 340.452C708.165 340.625 708.893 340.779 709.558 340.88L709.576 340.87Z" fill="#5DA6DB"/>
<path opacity="0.58" d="M324.634 191.149C324.634 191.149 324.707 191.168 324.744 191.158H324.853L324.962 191.186C324.998 191.186 325.062 191.186 325.062 191.186C343.577 192.614 361.783 194.416 379.679 196.555C380.735 196.682 381.682 196.6 382.474 196.345C383.275 196.1 383.948 195.672 384.404 195.081C384.904 194.516 385.214 193.797 385.314 192.969C385.432 192.15 385.359 191.213 385.05 190.212C379.889 173.013 376.147 155.878 373.781 139.006C373.671 138.033 373.316 137.068 372.843 136.149C372.379 135.221 371.742 134.365 371.004 133.583C370.285 132.791 369.42 132.109 368.501 131.553C367.582 131.007 366.598 130.562 365.57 130.325C365.543 130.307 365.461 130.298 365.461 130.298C365.424 130.298 365.397 130.279 365.351 130.279C365.315 130.27 365.251 130.261 365.251 130.261C365.251 130.261 365.178 130.261 365.151 130.243C347.182 126.858 328.876 123.8 310.234 121.07C309.141 120.906 308.131 120.97 307.23 121.234C306.329 121.498 305.546 121.944 304.918 122.554C304.299 123.172 303.789 123.919 303.525 124.81C303.206 125.684 303.152 126.694 303.297 127.777C305.691 145.913 309.569 164.313 314.885 182.786C315.186 183.833 315.695 184.834 316.323 185.78C316.961 186.718 317.753 187.582 318.636 188.328C319.519 189.075 320.493 189.712 321.503 190.194C322.523 190.676 323.578 191.004 324.616 191.14L324.634 191.149Z" fill="#C9D6DE"/>
<path opacity="0.62" d="M786.985 359.09H787.067L787.148 359.108H787.23L787.312 359.126C801.695 361.001 815.895 363.185 829.895 365.705C830.724 365.86 831.361 365.96 831.798 366.06C832.235 366.151 832.481 366.206 832.535 366.215C832.581 366.233 832.435 366.215 832.089 366.169C831.743 366.133 831.188 366.051 830.442 365.905C817.57 363.712 805.108 361.173 793.038 358.362C792.346 358.189 791.527 357.998 790.635 357.779C789.743 357.57 788.778 357.306 787.795 357.069C786.812 356.805 785.81 356.56 784.845 356.305C783.881 356.041 782.943 355.804 782.106 355.586L782.015 355.559L781.923 355.531C781.923 355.531 781.869 355.513 781.832 355.504L781.741 355.486C767.468 351.728 752.967 348.315 738.266 345.23C737.411 345.057 736.746 344.921 736.273 344.866C735.799 344.803 735.517 344.793 735.435 344.839C735.353 344.884 735.472 344.975 735.79 345.13C736.109 345.276 736.628 345.476 737.365 345.722C749.672 349.78 762.443 353.52 775.643 356.933C776.389 357.115 777.263 357.333 778.2 357.533C779.138 357.743 780.148 357.925 781.168 358.125C782.187 358.307 783.216 358.498 784.208 358.662C785.191 358.826 786.138 358.962 786.976 359.08L786.985 359.09Z" fill="#18469E"/>
<path opacity="0.69" d="M194.354 158.298C194.418 158.298 194.472 158.298 194.536 158.317C194.536 158.317 194.664 158.353 194.718 158.326C194.718 158.326 194.837 158.353 194.9 158.335C194.9 158.335 195.019 158.344 195.082 158.335C226.742 159.627 257.865 161.474 288.45 163.813C290.262 163.94 291.946 163.722 293.438 163.131C294.931 162.557 296.242 161.665 297.307 160.519C298.372 159.372 299.137 157.953 299.719 156.387C300.22 154.795 300.457 153.03 300.329 151.137C297.908 118.65 298.072 86.6542 300.684 55.5322C300.857 53.7395 300.612 51.9741 300.165 50.3088C299.719 48.6435 298.909 47.1147 297.935 45.7315C296.943 44.3574 295.723 43.1471 294.303 42.2371C292.892 41.2907 291.299 40.6082 289.579 40.2806L289.406 40.2442C289.351 40.2169 289.233 40.2078 289.233 40.2078C289.169 40.226 289.06 40.1805 289.06 40.1805C289.005 40.1532 288.942 40.1532 288.878 40.1532C258.174 35.7488 226.897 31.8449 195.037 28.5052C193.189 28.2504 191.368 28.5052 189.693 29.0694C188.009 29.6063 186.407 30.4617 185.124 31.6993C183.749 32.8368 182.639 34.311 181.829 35.9672C180.973 37.6052 180.454 39.4707 180.318 41.4454C177.778 74.624 177.732 108.676 180.418 143.22C180.554 145.167 181.064 147.042 181.847 148.762C182.611 150.5 183.695 152.065 184.951 153.412C186.216 154.759 187.7 155.869 189.275 156.733C190.877 157.561 192.579 158.144 194.363 158.28L194.354 158.298Z" fill="#EDEDED"/>
<path opacity="0.73" d="M590.518 317.122H590.628L590.737 317.149H590.846L590.946 317.167C609.115 318.924 627.021 321.08 644.662 323.619C645.7 323.774 646.528 323.792 647.138 323.71C647.739 323.628 648.121 323.446 648.267 323.173C648.421 322.9 648.349 322.527 648.021 322.09C647.711 321.644 647.147 321.135 646.346 320.552C632.619 310.652 619.766 300.396 607.814 289.867C607.122 289.267 606.275 288.639 605.319 288.029C604.364 287.419 603.308 286.819 602.197 286.264C601.096 285.709 599.949 285.199 598.811 284.762C597.673 284.325 596.554 283.97 595.516 283.707C595.516 283.707 595.443 283.688 595.407 283.679C595.407 283.679 595.334 283.661 595.297 283.652L595.188 283.625L595.079 283.597C577.219 279.675 559.068 276.117 540.607 272.978C539.533 272.787 538.65 272.768 537.977 272.868C537.303 272.969 536.839 273.214 536.602 273.56C536.366 273.915 536.347 274.379 536.575 274.925C536.803 275.48 537.267 276.126 537.995 276.827C550.138 288.748 563.246 300.387 577.283 311.671C578.075 312.308 579.031 312.936 580.096 313.527C581.152 314.119 582.317 314.665 583.518 315.156C584.711 315.638 585.94 316.057 587.132 316.394C588.325 316.731 589.481 316.967 590.527 317.104L590.518 317.122Z" fill="#18469E"/>
<path opacity="0.58" d="M669.004 337.604C669.004 337.604 669.059 337.604 669.077 337.604C669.077 337.604 669.123 337.604 669.15 337.604H669.223L669.296 337.613C681.949 338.651 694.429 339.952 706.745 341.535C707.473 341.617 708.028 341.654 708.429 341.636C708.82 341.608 709.057 341.535 709.111 341.399C709.166 341.272 709.066 341.099 708.775 340.88C708.502 340.662 708.037 340.398 707.409 340.107C696.613 335.056 686.3 329.733 676.505 324.145C675.941 323.827 675.267 323.49 674.521 323.153C673.783 322.817 672.964 322.489 672.136 322.171C671.298 321.861 670.452 321.561 669.623 321.306C668.795 321.051 667.985 320.824 667.247 320.669C667.22 320.669 667.175 320.651 667.175 320.651L667.102 320.633C667.102 320.633 667.056 320.633 667.029 320.615L666.956 320.596C654.44 318.03 641.723 315.737 628.815 313.726C628.069 313.608 627.468 313.571 627.031 313.617C626.594 313.662 626.321 313.78 626.212 313.962C626.103 314.144 626.166 314.399 626.403 314.7C626.64 315 627.049 315.355 627.641 315.746C637.627 322.316 648.168 328.632 659.237 334.656C659.865 334.993 660.602 335.329 661.403 335.648C662.205 335.966 663.069 336.257 663.952 336.521C664.835 336.785 665.727 337.013 666.583 337.195C667.439 337.377 668.267 337.513 669.004 337.586V337.604Z" fill="#18469E"/>
<path opacity="0.68" d="M283.162 176.699H283.235H283.308C283.335 176.699 283.353 176.699 283.381 176.699C283.408 176.699 283.426 176.699 283.453 176.699C295.387 176.999 307.13 177.509 318.681 178.228C319.364 178.273 319.974 178.173 320.484 177.955C320.994 177.746 321.412 177.418 321.722 176.999C322.031 176.581 322.222 176.071 322.295 175.498C322.377 174.925 322.313 174.288 322.113 173.605C318.672 161.912 316.16 150.245 314.54 138.752C314.449 138.088 314.212 137.451 313.921 136.832C313.611 136.222 313.201 135.658 312.719 135.149C312.237 134.648 311.69 134.202 311.099 133.875C310.507 133.529 309.861 133.283 309.205 133.174H309.142C309.142 133.174 309.096 133.156 309.078 133.156C309.078 133.156 309.032 133.147 309.014 133.147H308.95C297.317 131.645 285.474 130.344 273.431 129.27C272.73 129.206 272.075 129.297 271.501 129.507C270.928 129.725 270.418 130.062 270.018 130.498C269.617 130.944 269.317 131.481 269.135 132.091C268.953 132.701 268.898 133.392 269.007 134.12C270.682 146.396 273.322 158.827 276.872 171.312C277.072 172.022 277.409 172.695 277.819 173.314C278.247 173.933 278.747 174.497 279.321 174.979C279.885 175.471 280.522 175.871 281.178 176.153C281.833 176.444 282.516 176.645 283.189 176.69L283.162 176.699Z" fill="#EEF7FC"/>
<path opacity="0.6" d="M471.191 273.678C471.191 273.678 471.236 273.678 471.264 273.678H471.336C471.336 273.678 471.382 273.678 471.409 273.687H471.482C484.053 274.324 496.433 275.207 508.622 276.335C509.341 276.408 509.932 276.354 510.388 276.217C510.834 276.072 511.143 275.844 511.307 275.526C511.471 275.216 511.48 274.825 511.334 274.379C511.189 273.933 510.879 273.433 510.415 272.877C502.441 263.523 495.222 253.977 488.768 244.34C488.404 243.785 487.913 243.23 487.339 242.711C486.766 242.183 486.119 241.683 485.428 241.237C484.736 240.791 483.998 240.39 483.252 240.063C482.515 239.735 481.759 239.49 481.049 239.353C481.022 239.353 480.976 239.335 480.976 239.335C480.949 239.335 480.931 239.326 480.904 239.326H480.831L480.758 239.298C468.424 237.278 455.871 235.504 443.118 233.984C442.38 233.893 441.743 233.939 441.242 234.093C440.742 234.248 440.36 234.512 440.123 234.876C439.877 235.231 439.786 235.677 439.85 236.195C439.904 236.714 440.132 237.287 440.523 237.924C447.114 248.453 454.496 258.882 462.671 269.128C463.126 269.711 463.708 270.266 464.373 270.784C465.028 271.303 465.766 271.776 466.539 272.186C467.304 272.595 468.114 272.941 468.906 273.196C469.698 273.46 470.472 273.615 471.2 273.687L471.191 273.678Z" fill="#18469E"/>
<path opacity="0.57" d="M163.078 130.08C163.078 130.08 163.142 130.08 163.178 130.08C163.178 130.08 163.251 130.08 163.278 130.08H163.379C163.379 130.08 163.451 130.098 163.479 130.08C181.129 129.961 198.497 130.134 215.574 130.589C216.585 130.608 217.513 130.407 218.351 130.034C219.179 129.643 219.907 129.088 220.499 128.387C221.1 127.696 221.546 126.84 221.819 125.903C222.11 124.966 222.21 123.919 222.11 122.818C220.553 103.954 220.435 85.3533 221.655 67.217C221.728 66.1705 221.6 65.1512 221.327 64.2048C221.027 63.2675 220.581 62.4121 220.053 61.6204C219.47 60.8742 218.797 60.2008 218.005 59.7185C217.222 59.2089 216.321 58.8904 215.356 58.7357C215.356 58.7357 215.283 58.7175 215.256 58.7175C215.256 58.7175 215.183 58.7175 215.155 58.7084C215.119 58.7084 215.083 58.6994 215.046 58.6994C215.046 58.6994 214.973 58.6902 214.946 58.6902C197.76 57.1614 180.273 55.8692 162.477 54.8682C161.44 54.8318 160.429 54.9956 159.492 55.3596C158.554 55.7327 157.689 56.2879 156.952 57.0068C156.233 57.7439 155.568 58.581 155.15 59.5638C154.676 60.5284 154.44 61.6204 154.349 62.767C153.229 82.0135 153.402 101.724 155.177 121.69C155.268 122.818 155.577 123.883 156.023 124.865C156.488 125.839 157.061 126.74 157.789 127.477C158.49 128.242 159.328 128.842 160.229 129.288C161.13 129.725 162.086 130.025 163.078 130.052V130.08Z" fill="#EDEDED"/>
<path opacity="0.76" d="M547.572 323.754H547.708L547.854 323.773H547.991L548.127 323.782C572.432 324.628 596.4 326.002 620.021 327.858C621.414 327.977 622.516 327.895 623.317 327.676C624.118 327.458 624.618 327.076 624.809 326.584C625.001 326.084 624.873 325.474 624.436 324.755C623.99 324.045 623.235 323.236 622.142 322.353C603.445 307.302 585.968 291.768 569.765 275.852C568.836 274.933 567.689 274.023 566.406 273.158C565.113 272.285 563.693 271.448 562.2 270.692C560.707 269.946 559.169 269.273 557.64 268.727C556.119 268.181 554.608 267.753 553.216 267.498L553.07 267.471C553.025 267.453 552.924 267.444 552.924 267.444L552.779 267.416C552.779 267.416 552.679 267.398 552.633 267.398C528.638 263.785 504.261 260.682 479.501 258.07C478.063 257.925 476.879 257.989 475.987 258.253C475.086 258.507 474.476 258.953 474.167 259.554C473.848 260.145 473.848 260.901 474.167 261.765C474.494 262.63 475.122 263.603 476.106 264.659C492.636 282.322 510.533 299.585 529.694 316.374C530.777 317.33 532.088 318.231 533.526 319.077C534.964 319.914 536.539 320.688 538.15 321.343C539.762 322.007 541.418 322.544 543.02 322.963C544.623 323.381 546.17 323.645 547.581 323.745L547.572 323.754Z" fill="#18469E"/>
<path opacity="0.59" d="M346.227 242.928H346.354C346.4 242.928 346.482 242.928 346.482 242.928C346.527 242.919 346.564 242.928 346.609 242.928C346.646 242.919 346.737 242.928 346.737 242.928C367 243.11 386.962 243.683 406.606 244.63C407.762 244.675 408.745 244.521 409.537 244.175C410.32 243.838 410.921 243.31 411.285 242.646C411.667 241.991 411.822 241.181 411.74 240.28C411.658 239.379 411.358 238.36 410.775 237.286C401.063 218.941 392.779 200.44 385.906 181.976C385.506 180.912 384.905 179.874 384.177 178.891C383.43 177.918 382.547 177.017 381.582 176.207C380.608 175.406 379.534 174.724 378.433 174.178C377.313 173.659 376.175 173.259 375.038 173.067C375.038 173.067 374.956 173.049 374.919 173.049C374.919 173.049 374.837 173.049 374.801 173.031C374.755 173.031 374.719 173.031 374.682 173.013C374.637 173.013 374.555 172.995 374.555 172.995C354.702 170.701 334.512 168.818 313.985 167.289C312.783 167.189 311.718 167.353 310.826 167.717C309.934 168.09 309.206 168.627 308.687 169.355C308.159 170.074 307.831 170.947 307.758 171.939C307.649 172.931 307.822 174.041 308.25 175.215C315.287 195.035 323.816 214.882 333.865 234.556C334.402 235.675 335.185 236.74 336.096 237.696C336.988 238.669 338.044 239.543 339.163 240.289C340.283 241.035 341.475 241.663 342.677 242.1C343.879 242.555 345.089 242.81 346.245 242.892L346.227 242.928Z" fill="#EDEDED"/>
<path opacity="0.53" d="M628.25 338.087C628.25 338.087 628.314 338.087 628.341 338.087C628.341 338.087 628.396 338.087 628.432 338.087C628.46 338.087 628.523 338.087 628.523 338.087C628.551 338.087 628.578 338.087 628.605 338.087C643.152 338.378 657.507 338.961 671.671 339.862C672.508 339.925 673.155 339.88 673.61 339.78C674.065 339.68 674.32 339.516 674.374 339.279C674.438 339.061 674.292 338.77 673.956 338.442C673.619 338.114 673.073 337.741 672.335 337.332C659.637 330.379 647.539 323.09 636.07 315.492C635.405 315.055 634.613 314.618 633.757 314.19C632.893 313.772 631.955 313.362 630.99 312.989C630.025 312.616 629.042 312.289 628.077 312.016C627.122 311.743 626.184 311.524 625.337 311.388C625.337 311.388 625.274 311.379 625.246 311.369H625.155L625.064 311.342H624.973C610.527 309.367 595.872 307.711 581.007 306.364C580.133 306.283 579.45 306.319 578.949 306.437C578.449 306.565 578.139 306.783 578.021 307.074C577.912 307.365 577.984 307.729 578.276 308.157C578.558 308.585 579.05 309.058 579.75 309.577C591.484 318.24 603.891 326.594 616.935 334.611C617.673 335.066 618.538 335.503 619.475 335.894C620.413 336.285 621.423 336.649 622.443 336.959C623.462 337.268 624.5 337.523 625.492 337.714C626.475 337.914 627.431 338.014 628.278 338.06L628.25 338.087Z" fill="#3C98CF"/>
<path opacity="0.52" d="M709.039 357.606H709.221H709.312H709.403C725.133 357.633 740.671 357.988 756.028 358.698C756.938 358.734 757.621 358.716 758.085 358.643C758.549 358.57 758.804 358.452 758.813 358.288C758.84 358.125 758.64 357.915 758.212 357.679C757.785 357.442 757.138 357.169 756.273 356.869C741.381 351.709 726.99 346.176 713.162 340.261C712.361 339.925 711.424 339.579 710.413 339.233C709.403 338.896 708.311 338.569 707.209 338.259C706.108 337.959 704.979 337.686 703.905 337.449C702.822 337.213 701.793 337.031 700.855 336.903H700.764L700.673 336.876C700.646 336.867 700.61 336.867 700.582 336.867C700.555 336.867 700.491 336.858 700.491 336.858C684.771 334.974 668.832 333.436 652.683 332.253C651.736 332.18 651.017 332.199 650.508 332.299C649.998 332.399 649.716 332.572 649.643 332.808C649.579 333.045 649.734 333.345 650.116 333.691C650.499 334.037 651.118 334.428 651.955 334.856C666.155 341.936 680.929 348.67 696.268 354.976C697.132 355.34 698.143 355.658 699.208 355.977C700.282 356.286 701.429 356.568 702.576 356.796C703.723 357.033 704.888 357.233 705.98 357.36C707.082 357.506 708.119 357.579 709.039 357.606Z" fill="#C9D6DE"/>
<path opacity="0.7" d="M225.167 193.551C225.167 193.551 225.249 193.56 225.285 193.551C225.285 193.551 225.367 193.551 225.404 193.551C225.44 193.551 225.486 193.532 225.522 193.551C225.522 193.551 225.604 193.532 225.64 193.551C245.958 193.023 265.966 192.896 285.646 193.087C286.811 193.087 287.849 192.877 288.705 192.431C289.588 192.022 290.28 191.358 290.789 190.575C291.308 189.792 291.627 188.846 291.736 187.799C291.827 186.753 291.745 185.597 291.372 184.378C285.291 163.521 280.785 142.718 277.809 122.179C277.627 120.996 277.263 119.85 276.716 118.785C276.198 117.711 275.451 116.765 274.641 115.891C273.813 115.045 272.866 114.326 271.846 113.771C270.836 113.198 269.725 112.861 268.606 112.706L268.487 112.688L268.369 112.679C268.369 112.679 268.296 112.661 268.26 112.67H268.142C248.261 111.196 228.044 110.085 207.48 109.285C206.279 109.239 205.177 109.485 204.185 109.904C203.202 110.349 202.337 110.995 201.673 111.824C201.008 112.661 200.498 113.644 200.198 114.763C199.934 115.882 199.825 117.111 200.025 118.421C203.156 140.225 207.917 162.292 214.216 184.433C214.608 185.67 215.136 186.871 215.873 187.945C216.61 189.019 217.502 189.984 218.477 190.812C219.469 191.622 220.552 192.304 221.681 192.768C222.8 193.26 223.984 193.505 225.14 193.551H225.167Z" fill="url(#paint0_linear_464_13649)"/>
<path opacity="0.51" d="M425.83 275.051H425.912H425.994C426.022 275.051 426.076 275.051 426.076 275.051C426.103 275.051 426.158 275.051 426.158 275.051C440.094 274.97 453.84 275.152 467.376 275.607C468.168 275.634 468.823 275.525 469.315 275.306C469.806 275.097 470.152 274.769 470.316 274.36C470.48 273.95 470.489 273.459 470.325 272.904C470.161 272.349 469.815 271.73 469.287 271.066C460.275 259.818 452.128 248.37 444.855 236.804C444.446 236.14 443.881 235.494 443.244 234.884C442.607 234.274 441.879 233.71 441.105 233.201C440.331 232.7 439.512 232.263 438.684 231.936C437.855 231.59 437.027 231.362 436.235 231.244C436.208 231.244 436.144 231.235 436.144 231.235C436.117 231.226 436.062 231.226 436.062 231.226C436.062 231.226 436.007 231.226 435.98 231.217H435.898C422.162 229.824 408.207 228.696 394.034 227.85C393.206 227.795 392.514 227.904 391.95 228.141C391.385 228.368 390.976 228.732 390.712 229.187C390.457 229.652 390.357 230.207 390.429 230.835C390.502 231.462 390.748 232.172 391.203 232.909C398.649 245.404 407.015 257.789 416.281 269.955C416.809 270.647 417.474 271.293 418.202 271.894C418.949 272.485 419.768 273.031 420.633 273.486C421.497 273.941 422.389 274.314 423.272 274.578C424.155 274.851 425.02 275.006 425.83 275.033V275.051Z" fill="#18469E"/>
<path opacity="0.51" d="M115.952 122.79C115.952 122.79 116.007 122.79 116.034 122.79C116.061 122.79 116.089 122.79 116.116 122.79C116.143 122.799 116.171 122.79 116.198 122.79C116.225 122.79 116.252 122.79 116.28 122.79C130.052 122.098 143.616 121.607 156.951 121.343C157.734 121.324 158.462 121.124 159.109 120.788C159.755 120.451 160.31 119.959 160.765 119.368C161.202 118.767 161.576 118.076 161.767 117.302C161.994 116.529 162.04 115.682 161.967 114.791C160.538 99.5482 160.265 84.4967 161.011 69.7911C161.038 68.9448 160.975 68.1168 160.729 67.3706C160.501 66.6153 160.137 65.9419 159.709 65.3413C159.245 64.768 158.717 64.2493 158.089 63.8853C157.461 63.5213 156.769 63.2574 156.014 63.2028C155.995 63.1846 155.959 63.1755 155.932 63.2028C155.932 63.2028 155.877 63.2028 155.85 63.2028H155.768C155.768 63.2028 155.713 63.2028 155.686 63.2028C142.241 62.6477 128.569 62.2928 114.66 62.1562C113.849 62.1562 113.057 62.3201 112.338 62.6659C111.61 62.9935 110.946 63.4849 110.381 64.0946C109.799 64.6861 109.325 65.4141 108.998 66.224C108.652 67.0248 108.433 67.9075 108.406 68.8357C107.705 84.3694 108.142 100.249 109.717 116.319C109.789 117.229 110.044 118.085 110.399 118.867C110.754 119.65 111.237 120.342 111.81 120.924C112.375 121.506 113.021 121.98 113.731 122.298C114.432 122.635 115.187 122.799 115.961 122.817L115.952 122.79Z" fill="#C9D6DE"/>
<path opacity="0.54" d="M505.344 307.712C505.344 307.712 505.389 307.712 505.407 307.712H505.544C505.544 307.712 505.59 307.712 505.608 307.712C517.405 307.457 529.038 307.429 540.508 307.648C541.182 307.657 541.719 307.575 542.101 307.411C542.483 307.257 542.72 307.011 542.811 306.711C542.902 306.41 542.829 306.055 542.602 305.655C542.383 305.255 541.992 304.809 541.455 304.335C532.197 296.236 523.549 287.91 515.557 279.383C515.093 278.892 514.529 278.41 513.9 277.964C513.263 277.518 512.562 277.09 511.834 276.726C511.106 276.362 510.35 276.034 509.604 275.789C508.857 275.543 508.129 275.361 507.447 275.279C507.419 275.279 507.401 275.279 507.374 275.279C507.346 275.279 507.301 275.279 507.301 275.279C507.274 275.279 507.228 275.279 507.228 275.279H507.155C495.476 274.26 483.615 273.486 471.581 272.931C470.88 272.904 470.307 272.977 469.87 273.159C469.433 273.341 469.142 273.614 468.996 273.96C468.86 274.315 468.851 274.733 469.014 275.197C469.178 275.67 469.497 276.198 469.988 276.753C478.181 286.081 487.047 295.208 496.56 304.099C497.097 304.608 497.752 305.073 498.453 305.509C499.163 305.937 499.937 306.328 500.729 306.647C501.521 306.974 502.331 307.229 503.114 307.42C503.896 307.602 504.652 307.702 505.335 307.721L505.344 307.712Z" fill="#3C98CF"/>
<path opacity="0.56" d="M303.289 230.961H303.371H303.453C303.453 230.961 303.508 230.961 303.535 230.961C303.535 230.961 303.59 230.961 303.617 230.961C316.998 230.406 330.179 230.087 343.169 230.014C343.933 230.014 344.589 229.86 345.108 229.578C345.626 229.305 346 228.895 346.255 228.413C346.482 227.921 346.6 227.339 346.537 226.693C346.491 226.047 346.264 225.337 345.881 224.591C339.309 211.787 333.693 198.883 329.014 186.007C328.75 185.27 328.349 184.542 327.849 183.886C327.357 183.222 326.756 182.612 326.11 182.085C325.445 181.566 324.745 181.111 323.998 180.774C323.261 180.438 322.496 180.201 321.741 180.128H321.668L321.595 180.11C321.595 180.11 321.54 180.11 321.522 180.11H321.449C308.296 179.346 294.924 178.8 281.342 178.527C280.55 178.499 279.849 178.654 279.258 178.945C278.666 179.227 278.193 179.655 277.856 180.183C277.501 180.701 277.31 181.348 277.264 182.048C277.2 182.749 277.328 183.532 277.61 184.351C282.435 198.073 288.26 211.814 295.042 225.464C295.433 226.229 295.934 226.966 296.553 227.621C297.154 228.285 297.864 228.868 298.601 229.359C299.348 229.851 300.149 230.242 300.941 230.533C301.742 230.797 302.543 230.961 303.307 230.979L303.289 230.961Z" fill="url(#paint1_linear_464_13649)"/>
<path opacity="0.52" d="M586.978 339.279H587.069H587.151H587.233C587.233 339.279 587.287 339.279 587.315 339.279C601.861 338.724 616.225 338.451 630.407 338.487C631.245 338.487 631.882 338.396 632.328 338.232C632.774 338.069 633.011 337.823 633.056 337.523C633.102 337.222 632.947 336.867 632.592 336.467C632.228 336.076 631.682 335.63 630.926 335.157C617.909 327.14 605.52 318.786 593.796 310.113C593.122 309.613 592.321 309.122 591.438 308.667C590.555 308.202 589.6 307.784 588.626 307.402C587.652 307.019 586.65 306.692 585.676 306.446C584.711 306.191 583.774 306.009 582.918 305.927H582.827C582.827 305.927 582.772 305.909 582.745 305.909C582.745 305.909 582.69 305.909 582.663 305.909H582.581C568.08 304.863 553.37 304.117 538.46 303.671C537.595 303.643 536.903 303.734 536.412 303.935C535.92 304.126 535.611 304.417 535.51 304.781C535.401 305.145 535.51 305.591 535.793 306.082C536.093 306.574 536.585 307.129 537.313 307.702C549.329 317.384 562.054 326.739 575.445 335.748C576.209 336.258 577.083 336.74 578.039 337.168C578.995 337.605 580.023 337.987 581.061 338.296C582.099 338.615 583.146 338.86 584.147 339.033C585.148 339.197 586.104 339.297 586.96 339.288L586.978 339.279Z" fill="#18469E"/>
<path opacity="0.72" d="M668.312 356.332H668.385H668.458C668.458 356.332 668.503 356.332 668.531 356.332H668.604C680.747 355.641 692.753 355.213 704.624 355.031C705.324 355.022 705.852 354.949 706.198 354.84C706.553 354.731 706.726 354.576 706.726 354.385C706.726 354.194 706.562 353.975 706.217 353.721C705.871 353.475 705.352 353.202 704.66 352.911C692.817 348.006 681.402 342.773 670.433 337.268C669.805 336.949 669.068 336.64 668.276 336.349C667.484 336.058 666.628 335.775 665.764 335.539C664.899 335.293 664.025 335.084 663.187 334.92C662.35 334.756 661.549 334.638 660.83 334.583H660.757L660.684 334.574H660.611L660.539 334.565C648.359 333.892 636.015 333.464 623.517 333.309C622.789 333.3 622.225 333.373 621.842 333.5C621.451 333.637 621.232 333.828 621.196 334.083C621.151 334.329 621.287 334.629 621.606 334.956C621.915 335.293 622.407 335.657 623.08 336.03C634.341 342.409 646.101 348.47 658.299 354.23C658.991 354.549 659.783 354.858 660.63 355.122C661.476 355.386 662.377 355.613 663.278 355.814C664.18 355.996 665.09 356.15 665.946 356.241C666.801 356.332 667.611 356.378 668.331 356.351L668.312 356.332Z" fill="#3C98CF"/>
<path opacity="0.73" d="M380.089 277.326H380.18C380.18 277.326 380.244 277.326 380.271 277.326H380.362C380.362 277.326 380.417 277.326 380.453 277.326C394.836 276.498 409.009 275.915 422.991 275.624C423.81 275.597 424.484 275.442 424.984 275.16C425.485 274.869 425.84 274.487 426.004 274.004C426.186 273.531 426.177 272.949 425.986 272.321C425.822 271.684 425.439 271.001 424.884 270.273C415.39 257.879 406.815 245.248 399.15 232.517C398.704 231.789 398.122 231.089 397.466 230.424C396.793 229.778 396.046 229.169 395.236 228.65C394.426 228.14 393.57 227.704 392.715 227.367C391.85 227.048 390.985 226.83 390.166 226.748C390.139 226.748 390.084 226.748 390.084 226.748C390.057 226.748 390.029 226.748 390.002 226.748H389.92L389.838 226.739C375.629 226.129 361.192 225.783 346.545 225.702C345.689 225.692 344.961 225.856 344.388 226.157C343.805 226.448 343.386 226.885 343.122 227.421C342.859 227.949 342.767 228.595 342.858 229.296C342.94 230.006 343.223 230.779 343.687 231.598C351.57 245.248 360.409 258.789 370.185 272.093C370.722 272.858 371.423 273.549 372.197 274.186C372.971 274.832 373.835 275.378 374.728 275.861C375.62 276.334 376.548 276.707 377.467 276.962C378.378 277.208 379.279 277.353 380.107 277.344L380.089 277.326Z" fill="#C9D6DE"/>
<path opacity="0.65" d="M461.606 308.93C461.606 308.93 461.651 308.93 461.669 308.93C461.688 308.93 461.715 308.93 461.733 308.93H461.797H461.861C473.139 308.084 484.263 307.447 495.241 307.037C495.887 307.01 496.397 306.891 496.761 306.691C497.125 306.491 497.343 306.209 497.416 305.881C497.489 305.545 497.416 305.153 497.189 304.717C496.961 304.289 496.597 303.807 496.06 303.324C487.012 294.889 478.564 286.225 470.763 277.371C470.308 276.871 469.771 276.37 469.152 275.924C468.542 275.469 467.859 275.06 467.149 274.696C466.439 274.341 465.711 274.04 464.992 273.813C464.273 273.585 463.563 273.44 462.907 273.403H462.844C462.844 273.403 462.798 273.403 462.78 273.403C462.78 273.403 462.734 273.403 462.716 273.403H462.652C451.447 273.085 440.077 272.994 428.553 273.112C427.88 273.121 427.333 273.24 426.915 273.458C426.496 273.676 426.223 273.986 426.086 274.368C425.95 274.75 425.959 275.205 426.132 275.706C426.287 276.206 426.623 276.752 427.088 277.326C435.107 286.908 443.791 296.299 453.113 305.454C453.641 305.972 454.269 306.455 454.951 306.882C455.643 307.31 456.39 307.701 457.154 308.011C457.919 308.32 458.702 308.566 459.457 308.73C460.213 308.884 460.941 308.966 461.597 308.948L461.606 308.93Z" fill="#C9D6DE"/>
<path opacity="0.5" d="M49.966 146.458C49.966 146.458 50.057 146.44 50.1025 146.458C50.148 146.476 50.2208 146.413 50.239 146.458C50.2573 146.413 50.3301 146.44 50.3756 146.449H50.5121C73.2237 144.365 95.5712 142.645 117.573 141.244C118.874 141.171 120.085 140.789 121.132 140.161C122.179 139.515 123.098 138.678 123.835 137.631C124.573 136.594 125.083 135.356 125.438 134.037C125.783 132.708 125.847 131.252 125.711 129.741C122.998 103.825 122.17 78.2082 123.089 53.1377C123.162 51.6908 122.934 50.3167 122.561 49.0518C122.133 47.8051 121.578 46.6403 120.813 45.6757C120.067 44.702 119.12 43.9285 118.092 43.3279C117.036 42.7728 115.889 42.3815 114.642 42.3269C114.605 42.3087 114.56 42.3269 114.514 42.3269C114.469 42.3269 114.387 42.3269 114.387 42.3269C114.387 42.3269 114.259 42.2814 114.259 42.3269C114.223 42.3087 114.132 42.3269 114.132 42.3269C91.9209 42.3724 69.3277 42.8183 46.3703 43.5645C45.0322 43.61 43.7305 43.9558 42.5472 44.5837C41.3456 45.1752 40.2532 46.0579 39.343 47.1317C38.4054 48.1873 37.6589 49.4522 37.1128 50.8354C36.5939 52.2277 36.248 53.7292 36.2025 55.3035C35.4469 81.7026 36.5757 108.639 39.5068 135.884C39.6889 137.413 40.0621 138.878 40.7084 140.152C41.3274 141.444 42.1284 142.591 43.0751 143.555C44.0309 144.502 45.1051 145.266 46.2702 145.776C47.4354 146.285 48.6825 146.549 49.9569 146.513L49.966 146.458Z" fill="#EEF7FC"/>
<path opacity="0.65" d="M545.377 343.284H545.468C545.468 343.284 545.532 343.284 545.559 343.275H545.65L545.741 343.257C560.879 341.855 575.826 340.763 590.591 339.953C591.465 339.908 592.129 339.753 592.576 339.507C593.031 339.271 593.267 338.943 593.304 338.561C593.331 338.179 593.167 337.733 592.776 337.251C592.384 336.768 591.793 336.24 590.983 335.694C577.11 326.349 563.911 316.639 551.44 306.611C550.721 306.038 549.865 305.482 548.937 304.973C547.999 304.463 546.998 303.999 545.969 303.59C544.931 303.198 543.884 302.853 542.874 302.607C541.855 302.361 540.871 302.216 539.979 302.161C539.952 302.161 539.888 302.161 539.888 302.161H539.797H539.706H539.615C524.486 301.979 509.157 302.088 493.619 302.507C492.708 302.525 491.998 302.689 491.489 302.953C490.979 303.217 490.678 303.59 490.569 304.045C490.478 304.5 490.578 305.027 490.906 305.61C491.234 306.192 491.78 306.829 492.544 307.484C505.361 318.514 518.943 329.206 533.243 339.526C534.053 340.108 534.991 340.654 536.001 341.127C537.012 341.609 538.104 342.001 539.187 342.356C540.28 342.683 541.381 342.956 542.428 343.111C543.475 343.266 544.476 343.338 545.359 343.284H545.377Z" fill="#C9D6DE"/>
<path opacity="0.75" d="M628.669 360.847H628.751C628.778 360.847 628.832 360.847 628.832 360.847H628.914L628.996 360.829C641.868 359.391 654.603 358.226 667.183 357.316C667.929 357.253 668.475 357.143 668.839 356.971C669.204 356.807 669.386 356.57 669.367 356.306C669.367 356.042 669.167 355.742 668.776 355.414C668.393 355.087 667.829 354.741 667.073 354.386C654.157 348.28 641.713 341.819 629.779 335.049C629.087 334.657 628.295 334.284 627.431 333.948C626.566 333.602 625.646 333.292 624.718 333.028C623.789 332.765 622.843 332.546 621.942 332.382C621.04 332.228 620.185 332.128 619.42 332.109H619.338H619.256H619.111C606.176 332.164 593.067 332.492 579.795 333.074C579.022 333.11 578.43 333.238 578.03 333.429C577.629 333.629 577.401 333.902 577.374 334.23C577.347 334.557 577.502 334.93 577.847 335.349C578.202 335.758 578.74 336.204 579.468 336.659C591.738 344.294 604.564 351.592 617.891 358.536C618.637 358.936 619.502 359.282 620.421 359.6C621.341 359.919 622.306 360.183 623.28 360.383C624.245 360.601 625.219 360.738 626.138 360.82C627.057 360.902 627.913 360.92 628.669 360.856V360.847Z" fill="#5DA6DB"/>
<path opacity="0.69" d="M334.228 278.027H334.301L334.374 278.018C334.401 278.018 334.419 278.018 334.447 278.018H334.519C347.245 276.644 359.798 275.524 372.178 274.623C372.906 274.569 373.498 274.387 373.944 274.087C374.39 273.795 374.681 273.395 374.827 272.922C374.972 272.449 374.954 271.893 374.79 271.284C374.608 270.683 374.281 270.028 373.78 269.345C365.196 257.725 357.413 245.913 350.468 233.992C350.067 233.309 349.548 232.654 348.957 232.063C348.365 231.462 347.682 230.925 346.963 230.461C346.244 229.997 345.479 229.633 344.715 229.351C343.95 229.087 343.185 228.914 342.457 228.887H342.384C342.384 228.887 342.33 228.887 342.302 228.887C342.275 228.887 342.22 228.887 342.22 228.887H342.138C329.522 229.032 316.723 229.369 303.734 229.952C302.969 229.988 302.332 230.17 301.822 230.479C301.312 230.789 300.939 231.216 300.721 231.744C300.502 232.272 300.42 232.882 300.511 233.555C300.593 234.229 300.83 234.966 301.276 235.712C308.431 248.415 316.469 261.001 325.344 273.386C325.844 274.087 326.463 274.742 327.164 275.324C327.856 275.916 328.63 276.425 329.44 276.835C330.241 277.253 331.069 277.59 331.889 277.781C332.699 277.99 333.5 278.072 334.237 278.045L334.228 278.027Z" fill="#C9D6DE"/>
<path opacity="0.6" d="M127.822 190.666C127.822 190.666 127.885 190.666 127.922 190.666H128.022C128.022 190.666 128.086 190.648 128.113 190.648H128.213C143.97 188.865 159.5 187.363 174.792 186.08C175.694 186.007 176.495 185.734 177.15 185.297C177.805 184.851 178.361 184.269 178.734 183.55C179.134 182.849 179.335 182.003 179.417 181.102C179.471 180.192 179.335 179.228 179.071 178.199C173.919 160.791 169.977 143.41 167.283 126.202C167.101 125.21 166.809 124.264 166.363 123.399C165.926 122.535 165.371 121.752 164.688 121.106C164.042 120.442 163.286 119.914 162.476 119.532C161.675 119.14 160.81 118.913 159.937 118.895C159.909 118.895 159.846 118.895 159.846 118.895C159.818 118.886 159.755 118.895 159.755 118.895C159.727 118.895 159.663 118.895 159.663 118.895C159.636 118.886 159.572 118.895 159.572 118.895C144.079 119.259 128.332 119.859 112.338 120.696C111.4 120.742 110.535 121.006 109.789 121.461C109.043 121.907 108.405 122.526 107.877 123.263C107.368 124.009 107.013 124.882 106.794 125.838C106.63 126.803 106.585 127.831 106.74 128.914C109.653 147.032 113.767 165.332 119.183 183.641C119.511 184.669 119.957 185.643 120.549 186.508C121.149 187.363 121.859 188.128 122.624 188.765C123.398 189.402 124.253 189.902 125.146 190.211C126.029 190.548 126.939 190.694 127.831 190.648L127.822 190.666Z" fill="#C9D6DE"/>
<path opacity="0.55" d="M417.401 324.046C417.401 324.046 417.464 324.046 417.501 324.036C417.501 324.036 417.564 324.018 417.601 324.027H417.701L417.801 324C435.242 321.798 452.456 319.96 469.451 318.431C470.452 318.331 471.235 318.094 471.79 317.721C472.345 317.348 472.664 316.847 472.782 316.256C472.891 315.664 472.755 314.982 472.391 314.245C472.045 313.499 471.426 312.725 470.598 311.897C456.288 297.883 442.925 283.505 430.582 268.845C429.862 268.008 428.998 267.198 428.033 266.47C427.059 265.742 426.003 265.087 424.901 264.522C423.791 263.976 422.662 263.512 421.542 263.194C420.423 262.884 419.33 262.693 418.311 262.666C418.274 262.666 418.202 262.666 418.202 262.666H418.092C418.092 262.666 418.02 262.657 417.983 262.666C417.983 262.666 417.91 262.666 417.874 262.666C400.488 263.121 382.855 263.904 364.986 265.014C363.94 265.078 363.084 265.314 362.465 265.742C361.819 266.124 361.4 266.697 361.218 267.362C361.027 268.026 361.045 268.799 361.327 269.637C361.582 270.483 362.11 271.384 362.856 272.33C375.564 288.073 389.337 303.516 404.101 318.595C404.939 319.45 405.931 320.233 407.014 320.924C408.107 321.616 409.281 322.216 410.473 322.708C411.675 323.19 412.886 323.591 414.069 323.8C415.243 324.018 416.372 324.109 417.392 324.046H417.401Z" fill="#5DA6DB"/>
<path opacity="0.67" d="M503.14 348.698L503.232 348.689C503.268 348.689 503.323 348.68 503.323 348.68C503.35 348.68 503.386 348.68 503.414 348.671C503.441 348.662 503.477 348.671 503.505 348.662C518.415 346.514 533.143 344.676 547.69 343.101C548.555 343.02 549.201 342.801 549.647 342.51C550.093 342.219 550.321 341.837 550.339 341.4C550.366 340.954 550.175 340.453 549.774 339.916C549.383 339.38 548.764 338.806 547.954 338.215C533.935 328.114 520.609 317.64 508.029 306.847C507.3 306.237 506.454 305.646 505.525 305.109C504.597 304.572 503.596 304.099 502.567 303.698C501.547 303.289 500.501 302.98 499.49 302.752C498.48 302.534 497.515 302.406 496.632 302.406C496.632 302.406 496.568 302.406 496.541 302.406C496.541 302.406 496.477 302.406 496.45 302.406H496.359C496.359 302.406 496.295 302.406 496.268 302.406C481.321 303.043 466.183 303.981 450.845 305.191C449.953 305.273 449.252 305.473 448.76 305.791C448.26 306.11 447.977 306.547 447.886 307.056C447.804 307.566 447.923 308.157 448.26 308.794C448.596 309.431 449.143 310.114 449.916 310.815C462.87 322.535 476.597 333.929 491.052 344.94C491.862 345.568 492.818 346.123 493.828 346.623C494.839 347.124 495.922 347.551 497.014 347.879C498.107 348.207 499.199 348.452 500.246 348.598C501.284 348.753 502.276 348.762 503.14 348.689V348.698Z" fill="#5DA6DB"/>
<path opacity="0.68" d="M589.745 370.547C589.745 370.547 589.809 370.547 589.836 370.538H589.927L590.018 370.511C590.055 370.511 590.082 370.511 590.109 370.502C605.721 367.954 621.159 365.715 636.416 363.777C637.326 363.677 637.99 363.458 638.418 363.185C638.846 362.903 639.055 362.566 639.019 362.175C638.992 361.784 638.719 361.356 638.236 360.883C637.754 360.419 637.035 359.927 636.097 359.445C619.976 351.028 604.465 342.182 589.591 332.937C588.735 332.4 587.743 331.908 586.678 331.463C585.613 331.008 584.475 330.616 583.328 330.289C582.181 329.961 581.025 329.697 579.923 329.524C578.822 329.351 577.775 329.269 576.838 329.288C576.838 329.288 576.774 329.288 576.747 329.288H576.655H576.564H576.473C560.744 330.243 544.823 331.508 528.711 333.091C527.764 333.182 527.054 333.392 526.572 333.701C526.089 334.011 525.834 334.411 525.807 334.875C525.78 335.339 525.989 335.876 526.435 336.44C526.872 337.014 527.555 337.614 528.465 338.224C543.785 348.452 559.788 358.289 576.428 367.662C577.365 368.19 578.44 368.663 579.577 369.073C580.715 369.473 581.917 369.81 583.109 370.074C584.302 370.338 585.503 370.502 586.623 370.593C587.752 370.665 588.808 370.665 589.718 370.547H589.745Z" fill="#C9D6DE"/>
<path opacity="0.79" d="M75.5623 196.382C75.5623 196.382 75.6261 196.391 75.6534 196.382C75.6534 196.382 75.708 196.363 75.7444 196.373C75.7717 196.363 75.8081 196.373 75.8354 196.363C75.8627 196.363 75.89 196.354 75.9174 196.354C91.2738 194.025 106.403 191.904 121.313 190.057C122.196 189.957 122.952 189.629 123.607 189.174C124.235 188.692 124.754 188.073 125.127 187.345C125.473 186.599 125.692 185.753 125.755 184.834C125.774 183.915 125.664 182.923 125.382 181.904C120.112 164.432 116.061 146.969 113.184 129.67C113.03 128.669 112.684 127.74 112.247 126.885C111.783 126.048 111.227 125.283 110.581 124.637C109.916 124.018 109.188 123.481 108.396 123.136C107.613 122.772 106.758 122.599 105.902 122.59C105.875 122.59 105.811 122.59 105.811 122.59C105.784 122.59 105.756 122.59 105.729 122.59C105.702 122.608 105.638 122.59 105.638 122.59C105.638 122.59 105.583 122.59 105.556 122.59C90.4273 123.582 75.0617 124.81 59.4503 126.284C58.54 126.375 57.6935 126.657 56.9744 127.14C56.2279 127.586 55.6271 128.259 55.1356 129.023C54.6349 129.788 54.2981 130.689 54.1161 131.662C53.9886 132.645 53.9067 133.692 54.107 134.765C57.1746 152.929 61.4712 171.257 67.0057 189.593C67.3425 190.621 67.7794 191.595 68.3802 192.441C68.9355 193.315 69.6819 194.034 70.4465 194.653C71.2112 195.271 72.0669 195.726 72.9316 196.027C73.8055 196.3 74.6976 196.445 75.5714 196.373L75.5623 196.382Z" fill="#C9D6DE"/>
<path opacity="0.75" d="M372.205 319.55H372.278L372.35 319.532C372.378 319.532 372.414 319.523 372.414 319.523H372.487C383.72 317.576 394.825 315.865 405.776 314.336C406.413 314.245 406.914 314.036 407.269 313.763C407.615 313.472 407.833 313.117 407.888 312.698C407.952 312.28 407.852 311.797 407.606 311.279C407.369 310.76 406.959 310.223 406.413 309.65C396.974 300.058 388.162 290.23 380.033 280.211C379.551 279.647 379.005 279.083 378.367 278.6C377.73 278.118 377.048 277.672 376.328 277.317C375.609 276.953 374.872 276.671 374.144 276.48C373.416 276.289 372.706 276.189 372.059 276.207C372.041 276.216 372.014 276.207 371.986 276.207C371.986 276.207 371.941 276.207 371.914 276.207C371.914 276.207 371.868 276.207 371.841 276.207C371.823 276.207 371.777 276.207 371.777 276.207C360.553 277.072 349.175 278.136 337.641 279.401C336.968 279.474 336.431 279.683 336.021 279.975C335.611 280.266 335.347 280.675 335.238 281.139C335.111 281.603 335.138 282.149 335.329 282.732C335.493 283.323 335.857 283.933 336.349 284.579C344.742 295.263 353.844 305.746 363.584 315.992C364.14 316.566 364.786 317.103 365.496 317.567C366.206 318.031 366.971 318.431 367.744 318.741C368.527 319.059 369.319 319.277 370.075 319.423C370.839 319.55 371.559 319.596 372.223 319.514L372.205 319.55Z" fill="#18469E"/>
<path opacity="0.68" d="M460.267 355.303C460.267 355.303 460.321 355.293 460.348 355.293C460.348 355.293 460.403 355.284 460.43 355.284C460.458 355.284 460.512 355.266 460.512 355.266C460.512 355.266 460.567 355.266 460.594 355.248C474.813 352.518 488.868 350.052 502.759 347.859C503.578 347.731 504.197 347.495 504.606 347.158C505.025 346.83 505.225 346.412 505.235 345.93C505.235 345.456 505.043 344.919 504.652 344.346C504.261 343.773 503.651 343.181 502.85 342.572C489.141 332.161 476.124 321.387 463.826 310.294C463.107 309.666 462.278 309.065 461.377 308.529C460.467 308.001 459.502 307.518 458.51 307.136C457.517 306.754 456.507 306.454 455.542 306.254C454.568 306.062 453.64 305.971 452.793 306.008H452.711C452.711 306.008 452.647 306.008 452.629 306.008C452.602 306.008 452.575 306.008 452.547 306.008C452.547 306.008 452.493 306.008 452.465 306.008C438.183 307.364 423.71 308.974 409.054 310.867C408.198 310.976 407.543 311.24 407.07 311.586C406.605 311.95 406.332 312.414 406.259 312.96C406.196 313.506 406.305 314.125 406.651 314.789C406.988 315.454 407.534 316.154 408.289 316.873C420.961 328.822 434.405 340.424 448.551 351.672C449.352 352.3 450.272 352.891 451.264 353.373C452.247 353.874 453.303 354.274 454.359 354.611C455.415 354.929 456.471 355.166 457.481 355.275C458.482 355.403 459.438 355.403 460.276 355.275L460.267 355.303Z" fill="#18469E"/>
<path opacity="0.7" d="M152.172 258.78C152.172 258.78 152.254 258.789 152.291 258.762C152.327 258.762 152.409 258.752 152.409 258.752C152.445 258.743 152.518 258.734 152.518 258.734C152.554 258.734 152.591 258.716 152.636 258.716C171.361 255.449 189.821 252.528 208.018 249.88C209.092 249.734 209.984 249.334 210.703 248.779C211.395 248.196 211.914 247.459 212.233 246.595C212.533 245.721 212.661 244.72 212.515 243.646C212.369 242.573 212.069 241.408 211.459 240.234C201.5 219.986 192.762 199.63 185.498 179.237C185.043 178.081 184.478 176.962 183.741 175.97C183.022 174.969 182.139 174.104 181.192 173.358C180.236 172.639 179.217 172.048 178.161 171.638C177.105 171.247 176.022 171.038 174.957 171.065C174.92 171.065 174.884 171.074 174.847 171.065C174.847 171.065 174.775 171.065 174.738 171.065C174.711 171.083 174.629 171.065 174.629 171.065C174.592 171.065 174.52 171.065 174.52 171.065C155.977 172.657 137.162 174.568 118.064 176.761C116.953 176.889 115.97 177.262 115.169 177.853C114.368 178.445 113.758 179.237 113.276 180.138C112.848 181.075 112.557 182.14 112.557 183.295C112.557 184.451 112.684 185.716 113.185 186.981C120.786 208.429 129.816 229.851 140.22 251.127C140.812 252.319 141.586 253.429 142.478 254.412C143.37 255.395 144.38 256.259 145.472 256.923C146.538 257.615 147.694 258.097 148.822 258.443C149.951 258.78 151.098 258.889 152.163 258.762L152.172 258.78Z" fill="#EEF7FC"/>
<path opacity="0.62" d="M238.694 295.644C238.694 295.644 238.758 295.644 238.785 295.635C238.813 295.635 238.849 295.635 238.876 295.617C238.904 295.617 238.967 295.598 238.967 295.598C238.995 295.598 239.049 295.58 239.049 295.58C253.423 292.768 267.605 290.238 281.605 287.918C282.424 287.772 283.08 287.472 283.58 287.053C284.081 286.644 284.372 286.08 284.536 285.443C284.673 284.806 284.645 284.087 284.427 283.313C284.199 282.54 283.799 281.721 283.207 280.875C273.021 266.515 263.8 251.909 255.507 237.195C255.034 236.339 254.415 235.547 253.723 234.838C253.013 234.137 252.23 233.491 251.402 232.981C250.564 232.472 249.69 232.053 248.817 231.789C247.934 231.543 247.06 231.398 246.231 231.425C246.204 231.425 246.149 231.425 246.149 231.425C246.122 231.425 246.067 231.425 246.067 231.425C246.04 231.425 245.986 231.425 245.986 231.425C245.958 231.425 245.931 231.425 245.904 231.425C231.594 232.936 217.075 234.692 202.347 236.667C201.491 236.794 200.772 237.085 200.207 237.531C199.652 237.977 199.233 238.56 198.997 239.251C198.724 239.925 198.687 240.734 198.815 241.581C198.933 242.436 199.233 243.346 199.761 244.265C208.336 259.817 217.931 275.205 228.472 290.375C229.072 291.23 229.783 292.031 230.611 292.705C231.412 293.405 232.322 293.969 233.242 294.452C234.161 294.925 235.117 295.28 236.045 295.471C236.974 295.689 237.884 295.753 238.712 295.617L238.694 295.644Z" fill="#C9D6DE"/>
<path opacity="0.71" d="M326.463 327.384C326.463 327.384 326.509 327.384 326.527 327.375H326.591L326.655 327.348C326.673 327.348 326.7 327.348 326.718 327.339C337.614 324.982 348.383 322.825 359.006 320.851C359.634 320.732 360.126 320.514 360.453 320.204C360.799 319.904 360.99 319.504 361.036 319.058C361.072 318.612 360.981 318.111 360.736 317.575C360.49 317.038 360.098 316.464 359.543 315.9C350.176 306.099 341.419 296.062 333.318 285.843C332.863 285.242 332.289 284.705 331.661 284.214C331.033 283.732 330.35 283.295 329.649 282.949C328.949 282.594 328.22 282.33 327.51 282.157C326.8 281.984 326.108 281.921 325.471 281.957C325.471 281.957 325.426 281.957 325.408 281.957H325.335C325.335 281.957 325.289 281.957 325.271 281.966H325.207C314.293 283.322 303.242 284.869 292.027 286.616C291.372 286.716 290.853 286.953 290.462 287.272C290.079 287.608 289.815 288.018 289.715 288.518C289.606 289.01 289.642 289.574 289.834 290.174C290.025 290.775 290.371 291.412 290.853 292.058C299.228 302.896 308.267 313.552 317.961 323.963C318.508 324.545 319.154 325.091 319.855 325.546C320.556 326.01 321.311 326.392 322.076 326.711C322.84 327.029 323.623 327.23 324.37 327.357C325.116 327.475 325.826 327.494 326.463 327.393V327.384Z" fill="#DBE2E6"/>
<path opacity="0.74" d="M418.93 375.133L419.048 375.115C419.048 375.115 419.13 375.097 419.167 375.088L419.285 375.06L419.394 375.033C438.984 370.374 458.354 366.097 477.498 362.166C478.617 361.929 479.464 361.538 480.019 361.01C480.565 360.482 480.847 359.836 480.838 359.108C480.82 358.38 480.547 357.561 479.974 356.715C479.4 355.859 478.572 354.94 477.425 354.067C458.09 338.733 439.694 322.927 422.325 306.665C421.342 305.718 420.168 304.863 418.903 304.099C417.637 303.334 416.281 302.679 414.907 302.142C413.523 301.633 412.121 301.214 410.783 300.959C409.436 300.722 408.152 300.631 406.987 300.732C406.951 300.741 406.905 300.741 406.86 300.741C406.823 300.741 406.778 300.759 406.732 300.759C406.732 300.759 406.65 300.768 406.614 300.777C406.577 300.777 406.496 300.795 406.496 300.795C386.788 303.625 366.825 306.801 346.608 310.341C345.425 310.56 344.505 310.951 343.877 311.515C343.24 312.079 342.885 312.798 342.794 313.617C342.721 314.436 342.921 315.355 343.395 316.347C343.877 317.33 344.642 318.376 345.716 319.396C363.639 336.768 382.619 353.694 402.59 370.11C403.719 371.038 405.021 371.866 406.395 372.576C407.779 373.286 409.245 373.886 410.719 374.323C412.194 374.76 413.669 375.042 415.061 375.206C416.454 375.324 417.774 375.324 418.921 375.106L418.93 375.133Z" fill="#DBE1E5"/>
<path opacity="0.51" d="M505.827 382.34C505.827 382.34 505.873 382.331 505.9 382.322C505.9 382.322 505.945 382.313 505.973 382.303L506.046 382.285L506.109 382.267C517.36 379.355 528.484 376.643 539.498 374.159C540.145 374.013 540.618 373.786 540.919 373.504C541.219 373.222 541.346 372.885 541.292 372.512C541.237 372.139 541.028 371.738 540.645 371.311C540.254 370.892 539.708 370.455 538.989 370.028C526.727 362.702 514.93 355.04 503.633 347.086C502.987 346.631 502.241 346.204 501.44 345.849C500.638 345.485 499.801 345.175 498.945 344.93C498.099 344.675 497.243 344.511 496.433 344.411C495.623 344.302 494.858 344.284 494.185 344.375H494.121L494.057 344.393H493.993L493.93 344.411C482.551 346.277 471.045 348.333 459.394 350.617C458.711 350.754 458.21 350.99 457.864 351.291C457.527 351.6 457.355 351.982 457.364 352.41C457.364 352.838 457.537 353.32 457.892 353.811C458.237 354.312 458.756 354.831 459.457 355.34C471.118 363.94 483.298 372.239 495.969 380.192C496.679 380.638 497.498 381.029 498.345 381.366C499.2 381.685 500.092 381.958 500.984 382.149C501.876 382.349 502.759 382.458 503.579 382.495C504.407 382.522 505.172 382.476 505.836 382.34H505.827Z" fill="#3C98CF"/>
<path opacity="0.79" d="M100.468 271.32C100.468 271.32 100.55 271.32 100.586 271.301C100.623 271.301 100.696 271.283 100.696 271.283C100.723 271.256 100.768 271.256 100.814 271.265C100.85 271.247 100.887 271.247 100.932 271.238C120.649 267.024 140.102 263.193 159.281 259.608C160.41 259.417 161.348 258.944 162.085 258.297C162.841 257.67 163.359 256.814 163.669 255.84C163.969 254.867 164.097 253.757 163.933 252.574C163.787 251.391 163.369 250.144 162.777 248.843C151.872 226.902 142.459 204.762 134.476 182.613C133.994 181.348 133.357 180.147 132.574 179.082C131.791 178.008 130.853 177.08 129.852 176.307C128.851 175.533 127.767 174.905 126.639 174.541C125.528 174.122 124.372 173.95 123.243 174.032C123.207 174.032 123.161 174.041 123.125 174.032C123.125 174.032 123.043 174.031 123.007 174.041C123.007 174.041 122.925 174.05 122.888 174.05L122.77 174.068C103.199 176.552 83.3364 179.355 63.1828 182.458C62.0085 182.649 61.0072 183.132 60.1333 183.759C59.2958 184.433 58.604 185.297 58.1671 186.335C57.6846 187.354 57.4298 188.546 57.4571 189.82C57.4389 191.094 57.6573 192.459 58.1762 193.833C66.5326 217.065 76.3181 240.298 87.7058 263.293C88.2793 264.631 89.1713 265.796 90.1453 266.833C91.1011 267.889 92.1935 268.799 93.3495 269.5C94.5147 270.209 95.7254 270.737 96.9361 271.065C98.1467 271.356 99.3574 271.483 100.495 271.301L100.468 271.32Z" fill="#EEF7FC"/>
<path opacity="0.75" d="M190.14 301.778C190.14 301.778 190.195 301.76 190.222 301.769C190.222 301.769 190.277 301.76 190.304 301.75C190.332 301.75 190.377 301.732 190.377 301.732C190.404 301.732 190.432 301.732 190.459 301.714C203.066 298.757 215.501 296.008 227.772 293.46C228.5 293.333 229.073 293.024 229.492 292.614C229.92 292.205 230.184 291.686 230.311 291.094C230.42 290.503 230.393 289.83 230.184 289.12C229.974 288.41 229.629 287.645 229.082 286.89C219.952 273.823 211.605 260.573 204.141 247.178C203.704 246.413 203.167 245.685 202.538 245.057C201.919 244.411 201.219 243.847 200.472 243.41C199.735 242.946 198.952 242.61 198.178 242.382C197.395 242.182 196.631 242.073 195.903 242.127C195.875 242.127 195.83 242.127 195.83 242.127C195.811 242.145 195.766 242.118 195.757 242.127C195.73 242.127 195.702 242.127 195.684 242.127C195.684 242.127 195.62 242.118 195.611 242.136C183.04 243.984 170.305 246.058 157.379 248.352C156.624 248.479 155.987 248.779 155.504 249.207C155.003 249.626 154.658 250.181 154.457 250.827C154.266 251.473 154.212 252.201 154.33 252.975C154.457 253.757 154.749 254.576 155.195 255.422C162.941 269.5 171.571 283.441 181.056 297.173C181.593 297.947 182.248 298.647 182.967 299.266C183.696 299.867 184.488 300.404 185.307 300.813C186.135 301.204 186.964 301.532 187.792 301.687C188.611 301.86 189.421 301.896 190.15 301.76L190.14 301.778Z" fill="#18469E"/>
<path opacity="0.6" d="M280.813 351.109L280.913 351.091C280.913 351.091 280.977 351.073 281.013 351.073C281.032 351.045 281.114 351.045 281.114 351.045C281.15 351.045 281.177 351.018 281.205 351.027C298.036 346.696 314.667 342.646 331.088 338.888C332.062 338.679 332.79 338.26 333.318 337.741C333.828 337.204 334.119 336.558 334.183 335.812C334.247 335.066 334.074 334.238 333.673 333.364C333.264 332.491 332.636 331.571 331.771 330.643C316.942 314.827 303.106 298.62 290.28 282.14C289.561 281.176 288.66 280.302 287.677 279.538C286.694 278.764 285.629 278.1 284.527 277.554C283.426 277.026 282.288 276.626 281.195 276.353C280.094 276.089 279.02 276.007 278.037 276.125C278.037 276.125 277.955 276.125 277.928 276.134C277.891 276.134 277.855 276.134 277.818 276.143L277.718 276.162C277.718 276.162 277.645 276.162 277.618 276.18C260.732 278.992 243.628 282.158 226.287 285.58C225.277 285.771 224.476 286.19 223.875 286.745C223.292 287.309 222.928 288.019 222.746 288.829C222.61 289.648 222.673 290.567 222.974 291.55C223.274 292.532 223.802 293.579 224.612 294.598C237.866 312.006 252.203 329.096 267.541 345.822C268.415 346.759 269.426 347.615 270.518 348.352C271.619 349.089 272.803 349.699 273.995 350.172C275.188 350.645 276.407 350.982 277.563 351.136C278.72 351.318 279.821 351.264 280.813 351.109Z" fill="#C9D6DE"/>
<path opacity="0.75" d="M374.254 382.496L374.363 382.468L374.473 382.441L374.573 382.414L374.682 382.386C391.795 377.609 408.708 373.113 425.43 368.918C426.413 368.673 427.151 368.281 427.624 367.763C428.106 367.253 428.334 366.625 428.307 365.934C428.279 365.233 428.015 364.469 427.497 363.668C426.996 362.858 426.222 362.03 425.203 361.211C407.898 347.06 391.44 332.464 375.902 317.467C375.019 316.593 373.954 315.82 372.834 315.119C371.705 314.428 370.504 313.836 369.284 313.363C368.064 312.89 366.826 312.58 365.643 312.353C364.459 312.162 363.322 312.107 362.311 312.253C362.311 312.253 362.238 312.253 362.202 312.271C362.202 312.271 362.129 312.28 362.093 312.289L361.983 312.307L361.874 312.326C344.624 315.565 327.165 319.141 309.487 323.018C308.459 323.255 307.676 323.673 307.121 324.21C306.565 324.756 306.256 325.448 306.21 326.221C306.165 327.004 306.329 327.877 306.793 328.778C307.212 329.707 307.949 330.644 308.905 331.599C324.962 347.515 341.948 363.049 359.835 378.109C360.837 378.965 361.993 379.729 363.231 380.348C364.45 381.003 365.752 381.513 367.063 381.904C368.355 382.323 369.657 382.541 370.886 382.65C372.115 382.75 373.271 382.714 374.272 382.477L374.254 382.496Z" fill="#3C98CF"/>
<path opacity="0.69" d="M47.4267 287.135C47.4267 287.135 47.5268 287.144 47.5541 287.108C47.5997 287.108 47.6452 287.071 47.6816 287.08C47.6816 287.08 47.7726 287.062 47.809 287.053C47.8363 287.017 47.9183 287.053 47.9365 287.026C69.0914 281.839 89.9278 276.861 110.491 272.266C111.702 272.002 112.694 271.438 113.486 270.7C114.269 269.945 114.824 268.999 115.152 267.898C115.398 266.778 115.561 265.559 115.388 264.249C115.234 262.929 114.751 261.555 114.087 260.117C102.08 235.984 91.6574 211.632 82.7002 187.281C82.2177 185.87 81.4713 184.569 80.5974 183.422C79.7509 182.258 78.7405 181.238 77.6208 180.428C76.5376 179.591 75.3451 178.954 74.1253 178.581C72.9146 178.163 71.6676 178.026 70.466 178.144C70.4296 178.144 70.3476 178.153 70.3476 178.153C70.3294 178.19 70.2657 178.163 70.2293 178.163C70.2293 178.163 70.1474 178.163 70.1019 178.181C70.0655 178.181 70.0199 178.208 69.9835 178.199C48.9924 181.712 27.6827 185.47 6.07253 189.629C4.79814 189.838 3.7058 190.411 2.80462 191.176C1.92164 191.958 1.20252 192.95 0.720066 194.097C0.228513 195.252 -0.0172632 196.581 0.00094242 197.982C-0.0172632 199.393 0.292233 200.885 0.838403 202.414C10.187 227.894 21.1013 253.347 33.5995 278.59C34.2822 280.028 35.1925 281.347 36.2666 282.458C37.3044 283.604 38.515 284.532 39.7439 285.324C41.0092 286.061 42.3018 286.635 43.6035 286.953C44.8961 287.299 46.2069 287.381 47.4176 287.117L47.4267 287.135Z" fill="#EDEDED"/>
<path opacity="0.65" d="M232.878 353.429L232.951 353.411L233.024 353.393C233.051 353.393 233.069 353.375 233.096 353.375C233.115 353.357 233.16 353.375 233.169 353.347C245.34 349.744 257.346 346.313 269.216 343.137C269.908 342.928 270.445 342.628 270.809 342.218C271.174 341.8 271.383 341.29 271.41 340.717C271.447 340.143 271.319 339.506 271.01 338.842C270.709 338.178 270.254 337.468 269.599 336.785C258.639 324.91 248.398 312.761 238.904 300.395C238.358 299.676 237.693 299.039 236.983 298.456C236.264 297.883 235.472 297.41 234.671 297C233.861 296.618 233.033 296.336 232.232 296.163C231.421 296.008 230.639 295.972 229.929 296.063C229.929 296.063 229.883 296.072 229.856 296.072C229.828 296.072 229.783 296.081 229.783 296.081C229.756 296.081 229.737 296.09 229.71 296.09C229.692 296.09 229.637 296.099 229.637 296.099C217.43 298.684 205.051 301.441 192.516 304.426C191.788 304.608 191.205 304.935 190.777 305.363C190.359 305.809 190.095 306.355 189.985 306.983C189.876 307.611 189.94 308.312 190.176 309.049C190.422 309.786 190.823 310.559 191.396 311.342C201.255 324.328 211.85 337.113 223.183 349.626C223.848 350.308 224.567 350.972 225.377 351.509C226.169 352.064 227.043 352.501 227.917 352.838C228.791 353.184 229.674 353.411 230.511 353.511C231.358 353.62 232.159 353.602 232.869 353.429H232.878Z" fill="#3C98CF"/>
<path opacity="0.64" d="M331.088 402.304C331.088 402.304 331.179 402.304 331.207 402.268L331.325 402.24L331.434 402.204C331.471 402.186 331.553 402.168 331.553 402.168C351.333 395.816 370.895 389.801 390.22 384.14C391.358 383.804 392.196 383.294 392.733 382.639C393.27 381.984 393.507 381.201 393.47 380.337C393.443 379.472 393.097 378.517 392.46 377.534C391.841 376.551 390.93 375.523 389.729 374.54C369.238 357.377 349.767 339.678 331.362 321.514C330.296 320.468 329.059 319.521 327.739 318.693C326.419 317.865 324.99 317.201 323.56 316.628C322.131 316.091 320.684 315.718 319.3 315.499C317.917 315.317 316.597 315.272 315.413 315.49C315.377 315.49 315.295 315.508 315.295 315.508C315.259 315.526 315.213 315.526 315.177 315.526C315.177 315.526 315.104 315.545 315.058 315.554C315.058 315.554 314.976 315.554 314.94 315.581C294.968 320.204 274.751 325.2 254.288 330.541C253.086 330.833 252.158 331.37 251.539 332.079C250.929 332.798 250.592 333.635 250.519 334.591C250.483 335.556 250.72 336.62 251.257 337.74C251.839 338.832 252.631 340.015 253.769 341.152C272.785 360.362 292.902 379.108 314.13 397.235C315.304 398.282 316.715 399.128 318.144 399.929C319.61 400.657 321.121 401.294 322.65 401.758C324.17 402.213 325.7 402.486 327.129 402.595C328.567 402.668 329.896 402.577 331.079 402.295L331.088 402.304Z" fill="#C9D6DE"/>
<path opacity="0.79" d="M88.7986 342.828L88.917 342.8C88.917 342.8 88.9898 342.791 89.0262 342.773C89.0717 342.773 89.099 342.746 89.1445 342.746C89.1627 342.709 89.2174 342.718 89.2538 342.709C107.541 337.049 125.601 331.726 143.416 326.666C144.462 326.366 145.264 325.829 145.892 325.164C146.483 324.473 146.857 323.627 147.011 322.671C147.148 321.716 147.048 320.651 146.738 319.532C146.383 318.421 145.81 317.257 145.018 316.055C131.072 295.999 118.365 275.615 106.886 255.04C106.24 253.848 105.402 252.756 104.456 251.818C103.545 250.836 102.471 250.035 101.361 249.389C100.268 248.724 99.1121 248.242 97.9743 247.978C96.8364 247.687 95.6986 247.632 94.6335 247.796C94.6062 247.814 94.5607 247.814 94.5243 247.814C94.497 247.833 94.4515 247.814 94.4151 247.833C94.3787 247.833 94.3423 247.851 94.3058 247.851C94.3058 247.851 94.233 247.878 94.2057 247.869C75.9181 252 57.3574 256.368 38.5692 261.128C37.4586 261.364 36.5848 261.956 35.8565 262.647C35.1738 263.385 34.655 264.258 34.4001 265.286C34.1816 266.324 34.0633 267.47 34.3 268.681C34.4911 269.9 34.9736 271.174 35.6745 272.466C47.6356 293.97 60.7892 315.327 75.3082 336.276C76.1275 337.449 77.1106 338.514 78.1938 339.442C79.2862 340.352 80.4695 341.108 81.6802 341.708C82.9 342.282 84.138 342.718 85.3487 342.891C86.5593 343.064 87.7154 343.046 88.7895 342.828H88.7986Z" fill="#18469E"/>
<path opacity="0.64" d="M285.865 417.757C285.865 417.757 285.965 417.757 285.983 417.721C286.02 417.693 286.065 417.693 286.101 417.684C286.101 417.684 286.192 417.666 286.22 417.639C286.22 417.639 286.311 417.63 286.338 417.593C305.827 410.595 325.08 403.925 344.105 397.573C345.215 397.191 346.044 396.636 346.562 395.935C347.1 395.253 347.336 394.416 347.254 393.496C347.2 392.586 346.808 391.613 346.198 390.575C345.534 389.574 344.651 388.482 343.422 387.472C322.795 369.864 303.133 351.764 284.6 333.136C283.525 332.071 282.296 331.107 280.986 330.27C279.657 329.442 278.246 328.768 276.826 328.213C275.406 327.676 273.967 327.312 272.593 327.139C271.218 326.957 269.908 326.975 268.751 327.221L268.624 327.248C268.624 327.248 268.542 327.267 268.497 327.276C268.497 327.276 268.415 327.294 268.378 327.303C268.378 327.303 268.296 327.33 268.26 327.339C248.58 332.727 228.653 338.405 208.482 344.447C207.298 344.802 206.406 345.376 205.787 346.113C205.177 346.85 204.868 347.76 204.822 348.761C204.822 349.771 205.041 350.881 205.605 352.019C206.169 353.165 207.016 354.339 208.154 355.522C227.361 375.096 247.642 394.224 268.997 412.761C270.208 413.798 271.555 414.745 273.012 415.5C274.459 416.274 275.988 416.874 277.499 417.329C279.019 417.784 280.531 418.03 281.941 418.121C283.362 418.167 284.681 418.076 285.838 417.739L285.865 417.757Z" fill="#D1DBE1"/>
<path opacity="0.77" d="M136.424 391.803L136.515 391.776C136.542 391.776 136.569 391.74 136.606 391.749C136.633 391.749 136.669 391.73 136.688 391.721C136.715 391.721 136.742 391.694 136.779 391.694C151.662 386.198 166.363 380.938 180.882 375.933C181.737 375.633 182.393 375.187 182.812 374.595C183.239 374.004 183.467 373.312 183.485 372.529C183.522 371.756 183.303 370.901 182.912 370.009C182.502 369.126 181.901 368.207 181.082 367.306C167.082 351.854 153.956 336.075 141.73 320.022C141.057 319.076 140.192 318.257 139.282 317.538C138.381 316.801 137.388 316.2 136.378 315.736C135.386 315.236 134.339 314.917 133.347 314.763C132.345 314.608 131.39 314.581 130.507 314.781C130.488 314.808 130.416 314.799 130.416 314.799C130.379 314.799 130.325 314.826 130.325 314.826C130.288 314.826 130.261 314.845 130.234 314.854C130.225 314.881 130.143 314.881 130.143 314.881C115.159 319.167 99.9849 323.69 84.6193 328.476C83.7181 328.758 82.999 329.223 82.4983 329.841C81.9704 330.433 81.67 331.206 81.579 332.053C81.4788 332.899 81.5608 333.836 81.8976 334.81C82.1889 335.793 82.735 336.812 83.5088 337.804C96.1617 354.593 109.78 371.092 124.28 387.244C125.136 388.127 126.055 388.955 127.075 389.647C128.085 390.338 129.187 390.884 130.279 391.294C131.362 391.721 132.473 391.967 133.52 392.049C134.567 392.149 135.55 392.058 136.433 391.812L136.424 391.803Z" fill="#C9D6DE"/>
<path opacity="0.58" d="M238.967 430.87C238.967 430.87 239.049 430.87 239.067 430.834C239.067 430.834 239.14 430.816 239.167 430.798L239.268 430.761L239.368 430.725C256.854 423.781 274.141 417.157 291.208 410.787C292.219 410.432 292.947 409.868 293.411 409.203C293.903 408.557 294.076 407.738 293.994 406.874C293.939 406.009 293.593 405.072 292.992 404.116C292.392 403.161 291.554 402.16 290.435 401.223C271.51 384.833 253.486 367.971 236.409 350.708C235.435 349.698 234.288 348.816 233.087 348.051C231.876 347.296 230.593 346.65 229.291 346.186C227.998 345.703 226.687 345.385 225.449 345.248C224.211 345.112 223.028 345.176 221.981 345.412C221.954 345.44 221.908 345.43 221.872 345.44C221.836 345.44 221.808 345.476 221.763 345.467C221.745 345.494 221.663 345.494 221.663 345.494C221.626 345.494 221.59 345.521 221.563 345.521C203.867 351.045 185.952 356.824 167.819 362.957C166.773 363.33 165.953 363.867 165.416 364.577C164.852 365.268 164.606 366.142 164.588 367.098C164.588 368.044 164.825 369.09 165.343 370.164C165.89 371.229 166.645 372.357 167.701 373.431C185.333 391.595 204.021 409.24 223.611 426.448C224.721 427.421 225.977 428.259 227.297 428.968C228.608 429.687 230.001 430.261 231.394 430.625C232.777 431.016 234.152 431.207 235.435 431.298C236.719 431.316 237.929 431.234 238.958 430.87H238.967Z" fill="#EFF5F9"/>
<path opacity="0.63" d="M87.9243 423.553C87.9243 423.553 88.0154 423.544 88.0518 423.508C88.0518 423.462 88.1337 423.489 88.1701 423.462C88.2156 423.453 88.2521 423.444 88.2885 423.417C88.3249 423.398 88.3704 423.38 88.4068 423.371C108.078 415.454 127.494 407.846 146.674 400.557C147.794 400.111 148.677 399.493 149.214 398.655C149.796 397.855 150.051 396.863 150.069 395.789C150.051 394.715 149.769 393.559 149.25 392.34C148.668 391.148 147.885 389.865 146.756 388.664C127.822 367.797 110.081 346.44 93.5863 324.682C92.6214 323.435 91.4927 322.325 90.282 321.333C89.044 320.386 87.7332 319.558 86.386 318.939C85.0388 318.321 83.6642 317.857 82.3261 317.702C81.0062 317.465 79.7045 317.502 78.5484 317.82C78.512 317.82 78.4665 317.857 78.4301 317.847C78.3937 317.847 78.3482 317.875 78.3118 317.875C78.2753 317.875 78.2298 317.875 78.1934 317.911L78.0751 317.948C58.2673 324.336 38.1683 330.952 17.8507 337.995C16.6674 338.432 15.7389 339.078 15.0744 339.933C14.4463 340.816 14.0184 341.835 13.891 342.991C13.6998 344.146 13.9092 345.439 14.3643 346.767C14.8013 348.096 15.4749 349.515 16.5581 350.826C33.6624 373.521 52.0774 395.789 71.694 417.565C72.7681 418.83 74.0789 419.886 75.4535 420.796C76.828 421.688 78.2662 422.47 79.7409 422.971C81.1883 423.535 82.672 423.817 84.0556 423.944C85.4393 424.09 86.7592 423.926 87.9152 423.553H87.9243Z" fill="#C9D6DE"/>
</g>
<defs>
<linearGradient id="paint0_linear_464_13649" x1="200.477" y1="134.386" x2="286.183" y2="129.202" gradientUnits="userSpaceOnUse">
<stop stop-color="#20377A"/>
<stop offset="1" stop-color="#2C85C5"/>
</linearGradient>
<linearGradient id="paint1_linear_464_13649" x1="277.667" y1="194.151" x2="342.227" y2="189.416" gradientUnits="userSpaceOnUse">
<stop stop-color="#20377A"/>
<stop offset="1" stop-color="#2C85C5"/>
</linearGradient>
<clipPath id="clip0_464_13649">
<rect width="916" height="728" fill="white" transform="translate(0 -131)"/>
</clipPath>
</defs>
</svg>
