<svg width="643" height="423" viewBox="0 0 643 423" fill="none" xmlns="http://www.w3.org/2000/svg">
<g clip-path="url(#clip0_2012_763)">
<path opacity="0.6" d="M497.26 129.592C497.26 129.592 497.175 129.585 497.14 129.575C497.102 129.586 497.021 129.557 497.021 129.557C496.977 129.549 496.929 129.563 496.892 129.543C496.857 129.532 496.772 129.526 496.772 129.526C476.801 126.467 457.135 123.601 437.743 121.03C436.601 120.862 435.685 120.473 435.023 119.843C434.36 119.213 433.892 118.391 433.759 117.399C433.537 116.422 433.619 115.273 434.005 114.057C434.358 112.839 434.941 111.514 435.806 110.158C450.601 86.9978 464.277 63.5703 476.86 40.0027C477.602 38.6514 478.472 37.3462 479.515 36.2091C480.529 35.0391 481.679 34.0169 482.879 33.1674C484.092 32.3247 485.345 31.6577 486.564 31.157C487.803 30.692 489.027 30.4605 490.183 30.4574L490.299 30.4651C490.299 30.4651 490.378 30.4839 490.416 30.4728C490.455 30.4616 490.489 30.4724 490.533 30.4804C490.554 30.516 490.639 30.4497 490.65 30.4881C510.461 32.1037 530.575 33.9335 550.996 36.0694C552.188 36.1911 553.205 36.5719 553.932 37.2455C554.662 37.9286 555.209 38.7692 555.514 39.8158C555.778 40.8639 555.826 42.0683 555.617 43.3894C555.377 44.7093 554.944 46.1579 554.133 47.592C541.188 72.171 526.993 96.5311 511.755 120.674C510.865 122.016 509.856 123.31 508.693 124.43C507.529 125.55 506.267 126.542 504.957 127.34C503.666 128.164 502.297 128.719 500.995 129.15C499.687 129.52 498.417 129.703 497.266 129.611L497.26 129.592Z" fill="#C9D6DE"/>
<path opacity="0.76" d="M446.968 187.584L446.88 187.568C446.849 187.567 446.814 187.556 446.783 187.555C446.761 187.551 446.713 187.565 446.695 187.539C446.695 187.539 446.636 187.514 446.607 187.523C430.931 184.265 415.463 181.218 400.221 178.345C399.322 178.19 398.614 177.834 398.157 177.3C397.676 176.794 397.408 176.123 397.362 175.355C397.303 174.581 397.475 173.708 397.85 172.776C398.237 171.851 398.835 170.864 399.628 169.831C413.481 152.487 426.48 134.818 438.773 116.98C439.474 115.953 440.302 114.972 441.246 114.135C442.172 113.272 443.184 112.529 444.221 111.904C445.26 111.289 446.314 110.795 447.351 110.493C448.38 110.162 449.374 110.071 450.29 110.106C450.318 110.129 450.353 110.108 450.385 110.11C450.41 110.123 450.451 110.122 450.483 110.123C450.483 110.123 450.551 110.144 450.58 110.136C450.589 110.165 450.646 110.148 450.678 110.149C466.323 112.301 482.204 114.582 498.313 117.109C499.256 117.272 500.031 117.609 500.557 118.164C501.123 118.676 501.392 119.421 501.576 120.232C501.674 121.068 501.613 122.002 501.317 123.025C500.996 124.035 500.495 125.139 499.725 126.249C487.082 144.855 473.568 163.185 459.336 181.306C458.516 182.316 457.612 183.287 456.562 184.082C455.537 184.891 454.446 185.615 453.327 186.17C452.204 186.716 451.075 187.128 450.007 187.397C448.929 187.628 447.903 187.718 446.981 187.591L446.968 187.584Z" fill="#C9D6DE"/>
<path opacity="0.61" d="M555.178 124.142C555.178 124.142 555.122 124.127 555.093 124.136C555.084 124.107 555.039 124.13 555.008 124.129C555.008 124.129 554.931 124.152 554.922 124.123C554.894 124.131 554.869 124.118 554.844 124.104C540.57 121.511 526.507 119.107 512.637 116.865C511.819 116.739 511.173 116.417 510.701 115.94C510.245 115.447 509.946 114.847 509.809 114.127C509.723 113.402 509.752 112.571 509.992 111.678C510.232 110.785 510.686 109.841 511.293 108.851C521.989 92.0722 531.903 75.1142 540.999 58.0298C541.53 57.0629 542.186 56.1324 542.914 55.3059C543.655 54.4862 544.499 53.7718 545.336 53.1426C546.201 52.5365 547.101 52.087 547.979 51.7377C548.864 51.4173 549.748 51.2329 550.568 51.2961L550.654 51.3025C550.654 51.3025 550.721 51.283 550.739 51.309C550.739 51.309 550.796 51.2922 550.824 51.3154C550.824 51.3154 550.884 51.3082 550.909 51.3218C565.087 52.8698 579.486 54.6034 594.103 56.5131C594.961 56.5967 595.659 56.9558 596.204 57.4324C596.749 57.9091 597.138 58.5665 597.321 59.3361C597.535 60.107 597.564 60.9942 597.375 61.9554C597.196 62.9137 596.867 63.9675 596.286 65.0117C586.876 82.7707 576.685 100.424 565.613 117.844C564.981 118.819 564.227 119.737 563.399 120.54C562.561 121.347 561.636 122.033 560.699 122.607C559.76 123.173 558.782 123.572 557.847 123.865C556.909 124.149 555.996 124.196 555.156 124.138L555.178 124.142Z" fill="#3C98CF"/>
<path opacity="0.61" d="M277.761 298.649C277.761 298.649 277.685 298.64 277.648 298.619L277.538 298.599C277.538 298.599 277.463 298.59 277.438 298.576C277.399 298.587 277.335 298.544 277.335 298.544C258.927 293.238 240.775 288.13 222.833 283.314C221.788 283.014 221.037 282.545 220.557 281.935C220.078 281.325 219.886 280.558 219.994 279.714C220.09 278.863 220.471 277.919 221.11 276.931C221.787 275.963 222.678 274.912 223.879 273.885C244.264 256.295 263.998 238.29 282.975 219.87C284.06 218.804 285.301 217.807 286.636 216.992C287.963 216.147 289.37 215.435 290.76 214.843C292.17 214.286 293.552 213.811 294.889 213.609C296.209 213.35 297.463 213.328 298.562 213.488C298.573 213.526 298.681 213.505 298.681 213.505C298.719 213.525 298.764 213.502 298.801 213.522C298.801 213.522 298.893 213.516 298.911 213.542C298.945 213.553 299.003 213.536 299.021 213.562C317.544 217.584 336.315 221.815 355.345 226.325C356.462 226.583 357.307 227.055 357.835 227.724C358.396 228.363 358.62 229.204 358.61 230.134C358.568 231.062 358.293 232.121 357.663 233.211C357.067 234.312 356.186 235.474 355.007 236.609C335.425 255.851 315.13 274.717 294.064 293.079C292.918 294.152 291.548 295.061 290.129 295.839C288.725 296.633 287.243 297.304 285.769 297.786C284.303 298.296 282.846 298.657 281.484 298.773C280.124 298.929 278.857 298.871 277.761 298.649Z" fill="#5DA6DB"/>
<path opacity="0.56" d="M391.434 249.103C391.434 249.103 391.361 249.103 391.336 249.089C391.302 249.079 391.254 249.093 391.236 249.067C391.207 249.075 391.17 249.055 391.145 249.041C391.127 249.015 391.086 249.017 391.054 249.015C375.933 245.086 361.019 241.336 346.305 237.767C345.436 237.573 344.799 237.175 344.376 236.652C343.963 236.127 343.766 235.486 343.782 234.753C343.807 234.016 344.072 233.21 344.501 232.325C344.956 231.453 345.679 230.575 346.523 229.611C361.769 213.829 376.357 197.719 390.247 181.322C391.07 180.394 391.978 179.505 392.982 178.734C393.974 177.955 395.068 177.314 396.137 176.763C397.221 176.229 398.318 175.847 399.366 175.583C400.422 175.349 401.419 175.267 402.314 175.371C402.339 175.384 402.38 175.383 402.402 175.387C402.427 175.4 402.456 175.392 402.49 175.403L402.578 175.419C402.578 175.419 402.655 175.396 402.666 175.435C417.829 178.29 433.195 181.377 448.774 184.662C449.695 184.821 450.372 185.249 450.871 185.781C451.343 186.331 451.605 187.015 451.663 187.821C451.686 188.616 451.571 189.545 451.124 190.477C450.773 191.454 450.12 192.467 449.243 193.462C434.922 210.558 419.835 227.314 404.144 243.787C403.23 244.689 402.244 245.559 401.153 246.283C400.074 247.014 398.941 247.666 397.776 248.099C396.637 248.587 395.476 248.894 394.396 249.084C393.312 249.222 392.304 249.266 391.402 249.101L391.434 249.103Z" fill="#3C98CF"/>
<path opacity="0.75" d="M503.692 199.751L503.595 199.738C503.567 199.714 503.529 199.726 503.494 199.715C503.46 199.704 503.432 199.681 503.394 199.692C503.376 199.666 503.293 199.669 503.293 199.669C487.404 195.964 471.742 192.431 456.286 189.141C455.378 188.958 454.685 188.545 454.203 187.998C453.721 187.451 453.434 186.753 453.408 185.948C453.382 185.144 453.525 184.238 453.917 183.259C454.265 182.272 454.933 181.276 455.739 180.218C469.887 162.382 483.276 144.266 495.836 125.913C496.575 124.875 497.418 123.869 498.372 122.998C499.326 122.126 500.35 121.349 501.411 120.738C502.473 120.127 503.551 119.646 504.608 119.338C505.662 119.062 506.677 118.934 507.604 119.007C507.604 119.007 507.668 119.01 507.699 119.011C507.728 119.003 507.762 119.013 507.797 119.024C507.826 119.016 507.853 119.039 507.885 119.04C507.912 119.063 507.973 119.056 507.973 119.056C523.846 121.631 539.955 124.481 556.291 127.432C557.245 127.633 558.003 128.017 558.561 128.573C559.105 129.154 559.434 129.891 559.581 130.755C559.69 131.629 559.611 132.61 559.302 133.658C559.005 134.713 558.459 135.841 557.672 136.966C544.716 156.07 530.888 174.897 516.267 193.433C515.476 194.507 514.478 195.444 513.427 196.27C512.376 197.097 511.261 197.807 510.128 198.387C509.001 198.955 507.858 199.392 506.752 199.599C505.654 199.836 504.617 199.888 503.677 199.734L503.692 199.751Z" fill="url(#paint0_linear_2012_763)"/>
<path opacity="0.67" d="M265.708 361.942C265.708 361.942 265.639 361.92 265.605 361.91C265.566 361.921 265.501 361.877 265.501 361.877C265.464 361.857 265.43 361.846 265.398 361.845C265.367 361.843 265.339 361.82 265.305 361.809C247.838 355.407 230.636 349.126 213.612 343.168C212.596 342.828 211.885 342.317 211.505 341.657C211.073 341.032 210.964 340.262 211.141 339.44C211.318 338.618 211.73 337.706 212.457 336.807C213.155 335.875 214.143 334.941 215.402 334.044C236.702 318.343 257.449 302.209 277.581 285.609C278.735 284.637 280.043 283.798 281.412 283.066C282.796 282.382 284.198 281.724 285.618 281.269C287.025 280.807 288.43 280.481 289.741 280.37C291.041 280.221 292.258 280.325 293.317 280.527C293.354 280.547 293.393 280.536 293.43 280.556C293.43 280.556 293.507 280.607 293.543 280.586C293.564 280.622 293.635 280.58 293.656 280.616C293.667 280.654 293.759 280.648 293.759 280.648C311.4 285.968 329.284 291.447 347.387 297.174C348.46 297.497 349.195 298.054 349.689 298.712C350.147 299.391 350.331 300.202 350.22 301.109C350.129 302.01 349.723 303.014 349.02 304.031C348.338 305.052 347.351 306.1 346.125 307.145C325.377 324.455 304.001 341.324 282.014 357.673C280.773 358.597 279.386 359.376 277.966 360.081C276.526 360.75 275.028 361.259 273.573 361.662C272.112 362.046 270.672 362.288 269.329 362.325C267.993 362.349 266.755 362.283 265.727 361.936L265.708 361.942Z" fill="#C9D6DE"/>
<path opacity="0.74" d="M561.142 224.36C561.142 224.36 561.057 224.354 561.02 224.333C560.985 224.323 560.938 224.305 560.897 224.307C560.867 224.274 560.802 224.303 560.775 224.28C560.745 224.247 560.696 224.261 560.653 224.253C540.454 219.021 520.516 214.109 500.869 209.373C499.715 209.095 498.866 208.54 498.235 207.839C497.643 207.094 497.298 206.195 497.25 205.136C497.265 204.08 497.362 202.875 497.919 201.64C498.348 200.359 499.156 199.019 500.256 197.72C518.451 174.789 535.653 151.49 551.817 127.88C552.73 126.51 553.9 125.305 555.074 124.151C556.297 123.055 557.624 122.106 558.96 121.29C560.336 120.546 561.701 119.94 563.036 119.551C564.39 119.23 565.685 119.061 566.869 119.196C566.904 119.206 566.989 119.213 566.989 119.213C567.033 119.221 567.109 119.23 567.109 119.23C567.143 119.241 567.187 119.249 567.228 119.247C567.258 119.28 567.311 119.244 567.348 119.265C587.548 123.11 608.054 127.18 628.85 131.498C630.073 131.725 631.019 132.293 631.728 133.045C632.41 133.815 632.838 134.784 633.01 135.911C633.211 137.03 632.99 138.312 632.631 139.688C632.18 141.038 631.473 142.472 630.53 143.955C613.801 168.449 596.066 192.673 577.244 216.453C576.229 217.832 574.946 219.008 573.614 220.083C572.273 221.13 570.874 222.12 569.394 222.76C567.978 223.515 566.486 223.971 565.092 224.262C563.688 224.483 562.356 224.632 561.186 224.368L561.142 224.36Z" fill="#3C98CF"/>
<path opacity="0.6" d="M309.948 397.2L309.798 397.15C309.798 397.15 309.696 397.086 309.648 397.1C309.594 397.094 309.552 397.055 309.495 397.04C309.468 397.089 309.402 397.005 309.345 396.99C285.072 387.456 261.098 378.199 237.421 369.283C236.033 368.771 235.052 368.015 234.518 367.076C233.897 366.195 233.874 365.077 234.037 363.884C234.31 362.711 234.943 361.453 235.909 360.12C236.915 358.817 238.286 357.481 240.035 356.19C270.009 333.974 299.201 311.111 327.511 287.578C329.149 286.227 331.009 285.07 332.902 283.988C334.837 282.977 336.852 282.171 338.809 281.487C340.807 280.874 342.758 280.42 344.592 280.282C346.42 280.083 348.155 280.14 349.606 280.582C349.611 280.529 349.709 280.615 349.753 280.623C349.803 280.65 349.901 280.663 349.901 280.663C349.949 280.649 350.048 280.704 350.048 280.704C350.085 280.724 350.185 280.747 350.185 280.747C374.793 288.673 399.662 297.034 424.892 305.633C426.338 306.202 427.448 306.899 428.061 307.898C428.753 308.842 428.928 310.051 428.764 311.349C428.569 312.645 428.011 314.057 427.053 315.523C426.144 317.017 424.73 318.491 422.966 319.942C393.75 344.406 363.66 368.228 332.74 391.344C331.011 392.67 329.072 393.808 327.049 394.73C324.995 395.578 322.949 396.424 320.892 396.94C318.866 397.53 316.823 397.812 314.959 397.813C313.095 397.814 311.382 397.688 309.941 397.212L309.948 397.2Z" fill="#18469E"/>
</g>
<path opacity="0.74" d="M94.2867 344.617C94.2867 344.617 94.2289 344.599 94.2071 344.582C94.1854 344.57 94.1564 344.552 94.1275 344.547C94.113 344.523 94.0625 344.529 94.048 344.511C94.0334 344.488 93.9973 344.488 93.9684 344.476C80.9914 338.207 68.1314 332.163 55.4384 326.267C54.693 325.921 54.2138 325.465 53.9144 324.96C53.6511 324.437 53.5893 323.865 53.7652 323.25C53.9845 322.646 54.2898 321.97 54.9201 321.352C55.4707 320.686 56.2957 320.048 57.3158 319.48C74.4668 309.263 91.0021 298.675 106.879 287.74C107.783 287.102 108.832 286.599 109.875 286.127C110.939 285.696 112.047 285.366 113.135 285.114C114.237 284.909 115.303 284.782 116.306 284.775C117.309 284.81 118.24 284.923 119.035 285.191C119.057 285.203 119.115 285.22 119.115 285.22C119.144 285.232 119.194 285.25 119.194 285.25C119.216 285.261 119.245 285.273 119.274 285.279C119.289 285.303 119.332 285.29 119.353 285.308C132.606 290.783 146.026 296.435 159.598 302.277C160.401 302.605 160.946 303.084 161.289 303.63C161.61 304.182 161.715 304.808 161.612 305.482C161.53 306.156 161.124 306.857 160.603 307.588C160.024 308.29 159.25 308.999 158.303 309.697C141.859 321.048 124.772 332.081 107.018 342.684C106.041 343.311 104.919 343.778 103.783 344.18C102.646 344.563 101.48 344.906 100.327 345.033C99.1958 345.238 98.0707 345.258 97.0461 345.199C96.0284 345.099 95.0754 344.969 94.3157 344.629L94.2867 344.617Z" fill="#D5DDE3"/>
<path opacity="0.74" d="M43.3923 404.602C43.3923 404.602 43.3308 404.578 43.308 404.554C43.285 404.538 43.2545 404.515 43.2237 404.506C43.2087 404.475 43.1544 404.482 43.1393 404.459C43.1243 404.428 43.0857 404.427 43.055 404.411C29.32 395.952 15.7043 387.789 2.26334 379.821C1.47405 379.353 0.972903 378.75 0.665956 378.088C0.398015 377.404 0.347458 376.661 0.552822 375.867C0.80434 375.09 1.15002 374.222 1.8424 373.436C2.45069 372.587 3.35215 371.781 4.4609 371.071C23.1199 358.264 41.1293 344.961 58.4422 331.19C59.4286 330.386 60.567 329.761 61.6971 329.175C62.8495 328.644 64.0463 328.245 65.2184 327.945C66.4051 327.708 67.5515 327.571 68.626 327.587C69.6997 327.658 70.6946 327.828 71.5395 328.196C71.5624 328.212 71.6239 328.236 71.6239 328.236C71.6546 328.252 71.7084 328.276 71.7084 328.276C71.7313 328.292 71.762 328.308 71.7928 328.316C71.8078 328.347 71.8544 328.332 71.8773 328.356C85.9294 335.791 100.156 343.462 114.541 351.382C115.392 351.827 115.962 352.462 116.315 353.179C116.644 353.903 116.74 354.717 116.611 355.588C116.505 356.46 116.05 357.358 115.472 358.293C114.832 359.188 113.983 360.087 112.949 360.968C95.0173 375.263 76.404 389.129 57.0881 402.421C56.0245 403.209 54.8096 403.786 53.5804 404.277C52.3516 404.746 51.0927 405.16 49.8535 405.295C48.636 405.532 47.4298 405.529 46.3334 405.428C45.2456 405.272 44.2279 405.078 43.423 404.618L43.3923 404.602Z" fill="#3C98CF"/>
<defs>
<linearGradient id="paint0_linear_2012_763" x1="558.044" y1="127.889" x2="450.55" y2="149.635" gradientUnits="userSpaceOnUse">
<stop stop-color="#20377A"/>
<stop offset="1" stop-color="#2C85C5"/>
</linearGradient>
<clipPath id="clip0_2012_763">
<rect width="462.38" height="304.91" fill="white" transform="matrix(-0.960125 0.279572 0.279572 0.960125 593.457 0)"/>
</clipPath>
</defs>
</svg>
