<svg xmlns="http://www.w3.org/2000/svg" width="14.76" height="14.759" viewBox="0 0 14.76 14.759">
  <path id="パス_69" data-name="パス 69" d="M7.38.006a7.38,7.38,0,1,0,7.38,7.38A7.38,7.38,0,0,0,7.38.006ZM2.814,2.82A6.461,6.461,0,0,1,5.22,1.3,6.761,6.761,0,0,0,4.131,3.292H2.386C2.521,3.128,2.664,2.97,2.814,2.82ZM1.891,3.984H3.909A12.466,12.466,0,0,0,3.466,7.04H.932A6.414,6.414,0,0,1,1.891,3.984Zm0,6.8a6.414,6.414,0,0,1-.96-3.056H3.468a12.5,12.5,0,0,0,.438,3.056H1.891Zm.922,1.164c-.15-.15-.293-.308-.428-.472H4.132a8.234,8.234,0,0,0,.413.957,5.852,5.852,0,0,0,.673,1.035A6.46,6.46,0,0,1,2.814,11.952Zm4.22,1.882q-.162-.008-.322-.025a2.265,2.265,0,0,1-.5-.316A4.978,4.978,0,0,1,4.87,11.479H7.034v2.354Zm0-3.046H4.629a11.652,11.652,0,0,1-.471-3.056H7.034v3.056Zm0-3.748H4.16a11.634,11.634,0,0,1,.472-3.056h2.4V7.04Zm0-3.748H4.873c.09-.225.184-.441.286-.64A4.331,4.331,0,0,1,6.208,1.279a2.264,2.264,0,0,1,.5-.316q.16-.017.322-.025V3.292Zm5.835.692a6.414,6.414,0,0,1,.959,3.056H11.291a12.5,12.5,0,0,0-.438-3.056h2.016ZM11.946,2.82c.15.15.293.308.428.473H10.627a8.259,8.259,0,0,0-.413-.957A5.853,5.853,0,0,0,9.542,1.3,6.464,6.464,0,0,1,11.946,2.82ZM7.726.938q.162.008.322.025a2.278,2.278,0,0,1,.5.316A4.976,4.976,0,0,1,9.89,3.292H7.726Zm0,3.046h2.405A11.648,11.648,0,0,1,10.6,7.04H7.726Zm0,3.748H10.6a11.632,11.632,0,0,1-.472,3.056h-2.4Zm.826,5.761a2.276,2.276,0,0,1-.5.316q-.16.016-.322.025V11.479H9.886c-.09.225-.184.441-.286.64A4.33,4.33,0,0,1,8.552,13.493Zm3.394-1.541a6.46,6.46,0,0,1-2.406,1.52,6.761,6.761,0,0,0,1.088-1.992h1.745C12.239,11.643,12.1,11.8,11.946,11.952Zm.922-1.164H10.851a12.467,12.467,0,0,0,.443-3.056h2.534A6.414,6.414,0,0,1,12.868,10.787Z" transform="translate(0 -0.006)" fill="#006591"/>
</svg>
