<svg xmlns="http://www.w3.org/2000/svg" width="12.305" height="12.305" viewBox="0 0 12.305 12.305"><g transform="translate(-1266.053 -8252.119)"><rect width="12.305" height="12.305" transform="translate(1266.053 8252.118)" fill="rgba(46,35,29,0)"/><path d="M1276.307,8257.758a.514.514,0,0,0-.513.514v3.075a.513.513,0,0,1-.512.514h-6.153a.513.513,0,0,1-.512-.514V8255.2a.512.512,0,0,1,.512-.514h3.076a.512.512,0,1,0,0-1.024h-3.076a1.538,1.538,0,0,0-1.538,1.538v6.151a1.538,1.538,0,0,0,1.538,1.538h6.153a1.538,1.538,0,0,0,1.538-1.538v-3.075A.514.514,0,0,0,1276.307,8257.758Z" fill="#2e231d"/><path d="M1274.256,8254.682h.81l-3.225,3.221a.513.513,0,0,0,0,.725l0,0a.513.513,0,0,0,.725,0l0,0,3.225-3.22v.81a.514.514,0,0,0,.513.514h0a.514.514,0,0,0,.513-.514v-2.051a.512.512,0,0,0-.513-.512h-2.051a.512.512,0,0,0,0,1.024Z" fill="#2e231d"/></g></svg>