<svg xmlns="http://www.w3.org/2000/svg" xmlns:xlink="http://www.w3.org/1999/xlink" width="190.334" height="21.639" viewBox="0 0 190.334 21.639">
  <defs>
    <clipPath id="clip-path">
      <rect id="長方形_1492" data-name="長方形 1492" width="190.334" height="21.639" fill="none"/>
    </clipPath>
  </defs>
  <g id="グループ_112" data-name="グループ 112" transform="translate(0 0)">
    <g id="グループ_110" data-name="グループ 110" transform="translate(0 0)" clip-path="url(#clip-path)">
      <path id="パス_49" data-name="パス 49" d="M422.578,28.889l2.272.8a5.8,5.8,0,0,1-1.737,3.147,4.607,4.607,0,0,1-3.083,1.028,4.752,4.752,0,0,1-3.8-1.761,7.225,7.225,0,0,1-1.488-4.815,7.6,7.6,0,0,1,1.5-5.018,4.878,4.878,0,0,1,3.934-1.787,4.548,4.548,0,0,1,3.459,1.4,5.277,5.277,0,0,1,1.187,2.383l-2.318.618a2.817,2.817,0,0,0-.859-1.589,2.3,2.3,0,0,0-1.586-.582,2.532,2.532,0,0,0-2.094,1.033,5.5,5.5,0,0,0-.8,3.345,5.905,5.905,0,0,0,.791,3.5,2.469,2.469,0,0,0,2.058,1.041,2.21,2.21,0,0,0,1.607-.662,4,4,0,0,0,.966-2.083" transform="translate(-315.292 -15.574)" fill="#003b8a"/>
      <path id="パス_50" data-name="パス 50" d="M463.065,40.161a5.538,5.538,0,0,1,.546-2.392A4.005,4.005,0,0,1,465.158,36a4.219,4.219,0,0,1,2.236-.609,3.979,3.979,0,0,1,3.125,1.382,5.082,5.082,0,0,1,1.219,3.491,5.144,5.144,0,0,1-1.231,3.526,3.952,3.952,0,0,1-3.1,1.4,4.473,4.473,0,0,1-2.2-.583,3.792,3.792,0,0,1-1.595-1.708,6.236,6.236,0,0,1-.546-2.741m2.279.132a3.347,3.347,0,0,0,.594,2.136,1.812,1.812,0,0,0,2.924,0,3.4,3.4,0,0,0,.59-2.154,3.334,3.334,0,0,0-.59-2.119,1.812,1.812,0,0,0-2.924,0,3.348,3.348,0,0,0-.594,2.136" transform="translate(-352.027 -26.907)" fill="#003b8a"/>
      <path id="パス_51" data-name="パス 51" d="M508.326,44.98H506.1V35.606h2.066v1.333a3.9,3.9,0,0,1,.953-1.245,1.622,1.622,0,0,1,.962-.3,2.611,2.611,0,0,1,1.464.468l-.688,2.162a1.826,1.826,0,0,0-1.045-.406,1.153,1.153,0,0,0-.791.287,2.026,2.026,0,0,0-.511,1.037,16.4,16.4,0,0,0-.186,3.142Z" transform="translate(-384.744 -26.907)" fill="#003b8a"/>
      <path id="パス_52" data-name="パス 52" d="M532.541,35.606h2.073v1.377a3.279,3.279,0,0,1,1.092-1.147,2.775,2.775,0,0,1,1.528-.441,3.078,3.078,0,0,1,2.485,1.28,5.581,5.581,0,0,1,1.021,3.566,5.756,5.756,0,0,1-1.029,3.65,3.086,3.086,0,0,1-2.494,1.3,2.592,2.592,0,0,1-1.262-.309,4.366,4.366,0,0,1-1.191-1.059v4.722h-2.224Zm2.2,4.528a3.917,3.917,0,0,0,.562,2.335,1.663,1.663,0,0,0,1.369.755,1.551,1.551,0,0,0,1.29-.693,3.885,3.885,0,0,0,.514-2.273,3.676,3.676,0,0,0-.53-2.189,1.585,1.585,0,0,0-1.314-.715,1.642,1.642,0,0,0-1.353.7,3.377,3.377,0,0,0-.538,2.079" transform="translate(-404.843 -26.907)" fill="#003b8a"/>
      <path id="パス_53" data-name="パス 53" d="M571.951,40.161a5.543,5.543,0,0,1,.546-2.392A4.009,4.009,0,0,1,574.044,36a4.217,4.217,0,0,1,2.236-.609,3.982,3.982,0,0,1,3.127,1.382,5.084,5.084,0,0,1,1.219,3.491,5.145,5.145,0,0,1-1.231,3.526,3.951,3.951,0,0,1-3.1,1.4,4.472,4.472,0,0,1-2.2-.583,3.8,3.8,0,0,1-1.6-1.708,6.242,6.242,0,0,1-.546-2.741m2.279.132a3.347,3.347,0,0,0,.594,2.136,1.813,1.813,0,0,0,2.925,0,3.4,3.4,0,0,0,.589-2.154,3.335,3.335,0,0,0-.589-2.119,1.813,1.813,0,0,0-2.925,0,3.348,3.348,0,0,0-.594,2.136" transform="translate(-434.803 -26.907)" fill="#003b8a"/>
      <path id="パス_54" data-name="パス 54" d="M617.215,44.98h-2.224V35.606h2.065v1.333a3.91,3.91,0,0,1,.954-1.245,1.622,1.622,0,0,1,.961-.3,2.61,2.61,0,0,1,1.465.468l-.689,2.162a1.823,1.823,0,0,0-1.045-.406,1.154,1.154,0,0,0-.792.287,2.033,2.033,0,0,0-.511,1.037,16.464,16.464,0,0,0-.185,3.142Z" transform="translate(-467.522 -26.907)" fill="#003b8a"/>
      <path id="パス_55" data-name="パス 55" d="M641.5,38.467l-2.018-.406a3.556,3.556,0,0,1,1.171-2.013,3.943,3.943,0,0,1,2.469-.653,4.834,4.834,0,0,1,2.216.393,2.307,2.307,0,0,1,1.025,1,5.638,5.638,0,0,1,.3,2.22l-.024,2.895a11.172,11.172,0,0,0,.107,1.823,5.708,5.708,0,0,0,.4,1.258h-2.2q-.086-.247-.214-.732c-.037-.147-.063-.244-.079-.291a4.026,4.026,0,0,1-1.219.927,3.179,3.179,0,0,1-1.385.309A2.69,2.69,0,0,1,640,44.407a2.764,2.764,0,0,1-.748-1.986A2.9,2.9,0,0,1,639.59,41a2.324,2.324,0,0,1,.954-.953,6.878,6.878,0,0,1,1.768-.578,11.124,11.124,0,0,0,2.161-.609v-.247a1.372,1.372,0,0,0-.317-1.019,1.746,1.746,0,0,0-1.195-.3,1.471,1.471,0,0,0-.926.26,1.831,1.831,0,0,0-.538.914m2.976,2.013a12.753,12.753,0,0,1-1.353.38,3.794,3.794,0,0,0-1.211.433,1.069,1.069,0,0,0-.435.874,1.287,1.287,0,0,0,.348.9,1.149,1.149,0,0,0,.886.379A1.8,1.8,0,0,0,643.856,43a1.558,1.558,0,0,0,.53-.821,5.449,5.449,0,0,0,.087-1.209Z" transform="translate(-485.964 -26.908)" fill="#003b8a"/>
      <path id="パス_56" data-name="パス 56" d="M680.229,25.784v1.977h-1.52v3.778a10.442,10.442,0,0,0,.044,1.337.548.548,0,0,0,.2.313.581.581,0,0,0,.376.124,2.635,2.635,0,0,0,.9-.239L680.411,35a4.023,4.023,0,0,1-1.757.371,2.538,2.538,0,0,1-1.084-.225,1.607,1.607,0,0,1-.709-.583,2.474,2.474,0,0,1-.312-.967,13.387,13.387,0,0,1-.071-1.748V27.761h-1.021V25.784h1.021V23.922l2.231-1.448v3.31Z" transform="translate(-513.489 -17.085)" fill="#003b8a"/>
      <path id="パス_57" data-name="パス 57" d="M701.8,21.406h2.224v2.3H701.8Zm0,3.566h2.224v9.374H701.8Z" transform="translate(-533.513 -16.273)" fill="#003b8a"/>
      <path id="パス_58" data-name="パス 58" d="M718.432,40.161a5.548,5.548,0,0,1,.546-2.392A4.006,4.006,0,0,1,720.525,36a4.217,4.217,0,0,1,2.236-.609,3.981,3.981,0,0,1,3.126,1.382,5.083,5.083,0,0,1,1.219,3.491,5.142,5.142,0,0,1-1.231,3.526,3.95,3.95,0,0,1-3.1,1.4,4.473,4.473,0,0,1-2.2-.583,3.794,3.794,0,0,1-1.595-1.708,6.247,6.247,0,0,1-.546-2.741m2.279.132a3.347,3.347,0,0,0,.593,2.136,1.812,1.812,0,0,0,2.924,0,3.394,3.394,0,0,0,.59-2.154,3.331,3.331,0,0,0-.59-2.119,1.812,1.812,0,0,0-2.924,0,3.348,3.348,0,0,0-.593,2.136" transform="translate(-546.159 -26.907)" fill="#003b8a"/>
      <path id="パス_59" data-name="パス 59" d="M769.463,44.98h-2.224V40.2a8.221,8.221,0,0,0-.142-1.964,1.373,1.373,0,0,0-.463-.693,1.224,1.224,0,0,0-.771-.247,1.659,1.659,0,0,0-1.037.353,1.773,1.773,0,0,0-.629.936,9,9,0,0,0-.17,2.154V44.98H761.8V35.606h2.066v1.377a3.271,3.271,0,0,1,2.77-1.589,3.043,3.043,0,0,1,1.345.3,2.29,2.29,0,0,1,.922.755,2.886,2.886,0,0,1,.435,1.042,8.592,8.592,0,0,1,.123,1.668Z" transform="translate(-579.129 -26.907)" fill="#003b8a"/>
      <path id="パス_60" data-name="パス 60" d="M208.441,21.4h2.338V29.59a9.264,9.264,0,0,1-.254,2.472,3.483,3.483,0,0,1-1.236,1.814,3.791,3.791,0,0,1-2.362.684,3.309,3.309,0,0,1-2.647-1.073,4.717,4.717,0,0,1-.935-3.147l2.211-.282a3.78,3.78,0,0,0,.293,1.571,1.238,1.238,0,0,0,1.157.7,1.222,1.222,0,0,0,1.11-.5,4.315,4.315,0,0,0,.325-2.07Z" transform="translate(-154.585 -16.266)" fill="#003b8a"/>
      <path id="パス_61" data-name="パス 61" d="M244.5,38.459l-2.021-.406a3.555,3.555,0,0,1,1.173-2.013,3.953,3.953,0,0,1,2.473-.653,4.846,4.846,0,0,1,2.219.393,2.31,2.31,0,0,1,1.026,1,5.641,5.641,0,0,1,.3,2.22l-.024,2.9a11.188,11.188,0,0,0,.107,1.823,5.739,5.739,0,0,0,.4,1.258h-2.2q-.087-.247-.214-.733c-.037-.147-.063-.244-.079-.291a4.03,4.03,0,0,1-1.221.927,3.193,3.193,0,0,1-1.387.309,2.7,2.7,0,0,1-2.049-.786,2.762,2.762,0,0,1-.749-1.986A2.9,2.9,0,0,1,242.586,41a2.332,2.332,0,0,1,.955-.953,6.894,6.894,0,0,1,1.771-.578,11.129,11.129,0,0,0,2.163-.609v-.247a1.371,1.371,0,0,0-.317-1.019,1.751,1.751,0,0,0-1.2-.3,1.472,1.472,0,0,0-.928.261,1.835,1.835,0,0,0-.539.914m2.98,2.013a12.71,12.71,0,0,1-1.355.38,3.8,3.8,0,0,0-1.213.433,1.067,1.067,0,0,0-.436.874,1.287,1.287,0,0,0,.349.9,1.151,1.151,0,0,0,.887.379A1.8,1.8,0,0,0,246.857,43a1.558,1.558,0,0,0,.531-.821,5.446,5.446,0,0,0,.087-1.21Z" transform="translate(-184.157 -26.902)" fill="#003b8a"/>
      <path id="パス_62" data-name="パス 62" d="M282.07,35.6h2.076v1.377a3.282,3.282,0,0,1,1.094-1.148,2.779,2.779,0,0,1,1.53-.441,3.084,3.084,0,0,1,2.489,1.28,5.576,5.576,0,0,1,1.022,3.567,5.75,5.75,0,0,1-1.03,3.65,3.089,3.089,0,0,1-2.5,1.3,2.6,2.6,0,0,1-1.264-.309,4.371,4.371,0,0,1-1.193-1.059V48.54H282.07Zm2.2,4.529a3.913,3.913,0,0,0,.563,2.335,1.665,1.665,0,0,0,1.371.755,1.554,1.554,0,0,0,1.292-.693,3.881,3.881,0,0,0,.515-2.273,3.675,3.675,0,0,0-.531-2.19,1.587,1.587,0,0,0-1.315-.715,1.644,1.644,0,0,0-1.355.7,3.379,3.379,0,0,0-.539,2.079" transform="translate(-214.432 -26.901)" fill="#003b8a"/>
      <path id="パス_63" data-name="パス 63" d="M323.486,38.459l-2.021-.406a3.556,3.556,0,0,1,1.173-2.013,3.953,3.953,0,0,1,2.473-.653,4.846,4.846,0,0,1,2.219.393,2.311,2.311,0,0,1,1.026,1,5.643,5.643,0,0,1,.3,2.22l-.024,2.9a11.192,11.192,0,0,0,.107,1.823,5.742,5.742,0,0,0,.4,1.258h-2.2q-.087-.247-.214-.733c-.037-.147-.063-.244-.079-.291a4.025,4.025,0,0,1-1.22.927,3.193,3.193,0,0,1-1.387.309,2.7,2.7,0,0,1-2.049-.786,2.763,2.763,0,0,1-.749-1.986A2.9,2.9,0,0,1,321.576,41a2.331,2.331,0,0,1,.955-.953,6.894,6.894,0,0,1,1.771-.578,11.128,11.128,0,0,0,2.163-.609v-.247a1.371,1.371,0,0,0-.317-1.019,1.751,1.751,0,0,0-1.2-.3,1.472,1.472,0,0,0-.927.261,1.833,1.833,0,0,0-.539.914m2.98,2.013a12.725,12.725,0,0,1-1.355.38,3.8,3.8,0,0,0-1.213.433,1.067,1.067,0,0,0-.436.874,1.285,1.285,0,0,0,.349.9,1.152,1.152,0,0,0,.887.379A1.8,1.8,0,0,0,325.847,43a1.556,1.556,0,0,0,.531-.821,5.426,5.426,0,0,0,.087-1.21Z" transform="translate(-244.206 -26.902)" fill="#003b8a"/>
      <path id="パス_64" data-name="パス 64" d="M368.93,44.974H366.7V40.189a8.21,8.21,0,0,0-.143-1.965,1.371,1.371,0,0,0-.464-.693,1.227,1.227,0,0,0-.773-.247,1.661,1.661,0,0,0-1.038.353,1.774,1.774,0,0,0-.63.936,8.987,8.987,0,0,0-.17,2.154v4.246h-2.227V35.6h2.068v1.377a3.275,3.275,0,0,1,2.774-1.589,3.054,3.054,0,0,1,1.347.3,2.3,2.3,0,0,1,.923.755,2.9,2.9,0,0,1,.436,1.042,8.622,8.622,0,0,1,.123,1.668Z" transform="translate(-274.633 -26.901)" fill="#003b8a"/>
      <path id="パス_65" data-name="パス 65" d="M131.212,57.384l-3.957-5.709-2.5,3.38,1.631,2.327Z" transform="translate(-94.844 -39.284)" fill="#003b8a"/>
      <path id="パス_66" data-name="パス 66" d="M121.934,43.8l-2.518,3.417.847,1.221,2.45-3.38Z" transform="translate(-90.782 -33.298)" fill="#003b8a"/>
      <path id="パス_67" data-name="パス 67" d="M117.8,37.8l-2.48,3.424.465.675,2.465-3.38Z" transform="translate(-87.669 -28.737)" fill="#003b8a"/>
      <path id="パス_68" data-name="パス 68" d="M44.171,0,39.945,5.867,35.87,0,30.883.008l-8,11.484V3.007a3,3,0,0,0-3-3L7.805,0a5.648,5.648,0,1,0,0,11.3h4.97a1.173,1.173,0,0,1,0,2.345H2.25L0,18.1l12.292,0A5.645,5.645,0,1,0,12.3,6.817H7.449a1.181,1.181,0,0,1,0-2.361H18.983s-.009,10.531-.009,10.607c0,1.679,1.957,3.039,3.336,3.039.23,0,.541-.491,1.094-1.246L33.341,2.74l4.606,6.484V18.1h4V9.144L48.5,0Z" transform="translate(0 0)" fill="#003b8a"/>
    </g>
  </g>
</svg>
